RobotoMono-ThinItalic.ufo
<glyph name="exclam" format="2">
  <advance width="1202"/>
  <unicode hex="0021"/>
  <outline>
    <contour>
      <point x="568" y="401" type="line"/>
      <point x="513" y="401" type="line"/>
      <point x="694" y="1456" type="line"/>
      <point x="749" y="1456" type="line"/>
    </contour>
    <contour>
      <point x="431" y="51" type="qcurve"/>
      <point x="432" y="61"/>
      <point x="445" y="80"/>
      <point x="454" y="88" type="qcurve" smooth="yes" name="inserted"/>
      <point x="462" y="95"/>
      <point x="483" y="105"/>
      <point x="493" y="105" type="qcurve" smooth="yes"/>
      <point x="503" y="105"/>
      <point x="521" y="97"/>
      <point x="528" y="90" type="qcurve" smooth="yes"/>
      <point x="536" y="82"/>
      <point x="545" y="59"/>
      <point x="543" y="47" type="qcurve"/>
      <point x="541" y="37"/>
      <point x="529" y="18"/>
      <point x="520" y="11" type="qcurve" smooth="yes" name="inserted"/>
      <point x="511" y="3"/>
      <point x="489" y="-6"/>
      <point x="479" y="-6" type="qcurve" smooth="yes"/>
      <point x="469" y="-6"/>
      <point x="451" y="3"/>
      <point x="444" y="9" type="qcurve" smooth="yes"/>
      <point x="437" y="17"/>
      <point x="429" y="39"/>
    </contour>
  </outline>
</glyph>
<glyph name="numbersign" format="2">
  <advance width="1202"/>
  <unicode hex="0023"/>
  <outline>
    <contour>
      <point x="695" y="410" type="line"/>
      <point x="346" y="410" type="line"/>
      <point x="203" y="0" type="line"/>
      <point x="146" y="0" type="line"/>
      <point x="288" y="410" type="line"/>
      <point x="27" y="410" type="line"/>
      <point x="34" y="462" type="line"/>
      <point x="306" y="462" type="line"/>
      <point x="489" y="986" type="line"/>
      <point x="200" y="986" type="line"/>
      <point x="208" y="1040" type="line"/>
      <point x="508" y="1040" type="line"/>
      <point x="653" y="1455" type="line"/>
      <point x="710" y="1455" type="line"/>
      <point x="565" y="1040" type="line"/>
      <point x="915" y="1040" type="line"/>
      <point x="1061" y="1455" type="line"/>
      <point x="1118" y="1455" type="line"/>
      <point x="974" y="1040" type="line"/>
      <point x="1218" y="1040" type="line"/>
      <point x="1211" y="986" type="line"/>
      <point x="955" y="986" type="line"/>
      <point x="771" y="462" type="line"/>
      <point x="1045" y="462" type="line"/>
      <point x="1038" y="410" type="line"/>
      <point x="753" y="410" type="line"/>
      <point x="609" y="0" type="line"/>
      <point x="553" y="0" type="line"/>
    </contour>
    <contour>
      <point x="364" y="462" type="line"/>
      <point x="712" y="462" type="line"/>
      <point x="897" y="986" type="line"/>
      <point x="547" y="986" type="line"/>
    </contour>
  </outline>
</glyph>
<glyph name="dollar" format="2">
  <advance width="1202"/>
  <unicode hex="0024"/>
  <outline>
    <contour>
      <point x="944" y="344" type="qcurve" smooth="yes"/>
      <point x="958" y="420"/>
      <point x="914" y="533"/>
      <point x="870.0" y="575.0" type="qcurve" smooth="yes" name="inserted"/>
      <point x="826" y="617"/>
      <point x="708" y="678"/>
      <point x="648" y="702" type="qcurve" smooth="yes"/>
      <point x="578" y="730"/>
      <point x="446" y="799"/>
      <point x="398" y="847.0" type="qcurve" smooth="yes" name="inserted"/>
      <point x="349" y="895"/>
      <point x="301" y="1023"/>
      <point x="314" y="1110" type="qcurve" smooth="yes"/>
      <point x="337.8973254967583" y="1271.3069471031185"/>
      <point x="582.3268561698985" y="1463.948219705377"/>
      <point x="739" y="1476" type="qcurve"/>
      <point x="770" y="1663" type="line"/>
      <point x="826" y="1663" type="line"/>
      <point x="795" y="1476" type="line"/>
      <point x="971.3992674708865" y="1459.9637029571923"/>
      <point x="1113.9683835355636" y="1210.6296357023155"/>
      <point x="1100" y="1047" type="qcurve"/>
      <point x="1046" y="1047" type="line"/>
      <point x="1061.9635994067205" y="1192.6678445863245"/>
      <point x="926.3702406292751" y="1424.0"/>
      <point x="764" y="1424" type="qcurve" smooth="yes"/>
      <point x="624.0000000000001" y="1424.0"/>
      <point x="394.0" y="1252.0"/>
      <point x="368" y="1112" type="qcurve" smooth="yes"/>
      <point x="358" y="1060"/>
      <point x="372" y="976"/>
      <point x="392" y="942" type="qcurve" smooth="yes" name="inserted"/>
      <point x="430.23866950946405" y="871.560345640461"/>
      <point x="582.5086344397782" y="785.8015085113061"/>
      <point x="664" y="754" type="qcurve" smooth="yes"/>
      <point x="734" y="727"/>
      <point x="865" y="657"/>
      <point x="913.5" y="608.5" type="qcurve" smooth="yes" name="inserted"/>
      <point x="962" y="560"/>
      <point x="1011" y="431"/>
      <point x="999" y="346" type="qcurve" smooth="yes"/>
      <point x="974.7669245876527" y="182.42674096665638"/>
      <point x="730.532927645274" y="-3.1524231017897293"/>
      <point x="578" y="-19" type="qcurve"/>
      <point x="547" y="-208" type="line"/>
      <point x="491" y="-208" type="line"/>
      <point x="522" y="-21" type="line"/>
      <point x="334.1551298389119" y="-11.008251587176167"/>
      <point x="139.98677563611986" y="222.84626676989333"/>
      <point x="156" y="409" type="qcurve"/>
      <point x="211" y="409" type="line"/>
      <point x="193.08869220188876" y="243.81793919519637"/>
      <point x="373.1540145025467" y="29.990047229441725"/>
      <point x="544" y="32" type="qcurve" smooth="yes"/>
      <point x="682.0" y="34.00000000000001"/>
      <point x="918.0000000000001" y="204.0"/>
    </contour>
  </outline>
</glyph>
<glyph name="percent" format="2">
  <advance width="1202"/>
  <unicode hex="0025"/>
  <outline>
    <contour>
      <point x="141" y="1176" type="line" smooth="yes"/>
      <point x="151" y="1228"/>
      <point x="197" y="1334"/>
      <point x="232.5" y="1377.5" type="qcurve" smooth="yes" name="inserted"/>
      <point x="268" y="1421"/>
      <point x="364" y="1477"/>
      <point x="423" y="1477" type="qcurve" smooth="yes"/>
      <point x="483" y="1477"/>
      <point x="560" y="1419"/>
      <point x="581.5" y="1375.0" type="qcurve" smooth="yes" name="inserted"/>
      <point x="603" y="1331"/>
      <point x="615" y="1224"/>
      <point x="608" y="1176" type="qcurve" smooth="yes"/>
      <point x="595" y="1099" type="line" smooth="yes"/>
      <point x="586" y="1048"/>
      <point x="540" y="942"/>
      <point x="505.0" y="898.5" type="qcurve" smooth="yes" name="inserted"/>
      <point x="470" y="855"/>
      <point x="375" y="800"/>
      <point x="317" y="800" type="qcurve" smooth="yes"/>
      <point x="257" y="800"/>
      <point x="178" y="857"/>
      <point x="156.0" y="900.5" type="qcurve" smooth="yes" name="inserted"/>
      <point x="134" y="944"/>
      <point x="122" y="1050"/>
      <point x="129" y="1099" type="qcurve" smooth="yes"/>
    </contour>
    <contour>
      <point x="183" y="1099" type="line" smooth="yes"/>
      <point x="177" y="1061"/>
      <point x="181" y="976"/>
      <point x="195.5" y="939.5" type="qcurve" smooth="yes" name="inserted"/>
      <point x="210" y="903"/>
      <point x="269" y="855"/>
      <point x="317" y="855" type="qcurve" smooth="yes"/>
      <point x="365" y="855"/>
      <point x="440" y="901"/>
      <point x="468.0" y="936.5" type="qcurve" smooth="yes" name="inserted"/>
      <point x="496" y="972"/>
      <point x="532" y="1058"/>
      <point x="540" y="1099" type="qcurve" smooth="yes"/>
      <point x="555" y="1176" type="line" smooth="yes"/>
      <point x="561" y="1213"/>
      <point x="557" y="1299"/>
      <point x="543.0" y="1335.5" type="qcurve" smooth="yes" name="inserted"/>
      <point x="529" y="1372"/>
      <point x="471" y="1422"/>
      <point x="423" y="1422" type="qcurve" smooth="yes"/>
      <point x="375" y="1422"/>
      <point x="299" y="1376"/>
      <point x="270.5" y="1340.0" type="qcurve" smooth="yes" name="inserted"/>
      <point x="242" y="1304"/>
      <point x="206" y="1217"/>
      <point x="197" y="1176" type="qcurve" smooth="yes"/>
    </contour>
    <contour>
      <point x="638" y="357" type="line" smooth="yes"/>
      <point x="648" y="408"/>
      <point x="694" y="515"/>
      <point x="729.0" y="558.0" type="qcurve" smooth="yes" name="inserted"/>
      <point x="764" y="601"/>
      <point x="859" y="657"/>
      <point x="918" y="657" type="qcurve" smooth="yes"/>
      <point x="978" y="657"/>
      <point x="1056" y="600"/>
      <point x="1078.0" y="556.0" type="qcurve" smooth="yes" name="inserted"/>
      <point x="1100" y="512"/>
      <point x="1112" y="406"/>
      <point x="1105" y="357" type="qcurve" smooth="yes"/>
      <point x="1093" y="279" type="line" smooth="yes"/>
      <point x="1083" y="228"/>
      <point x="1037" y="121"/>
      <point x="1001.5" y="78.0" type="qcurve" smooth="yes" name="inserted"/>
      <point x="966" y="35"/>
      <point x="871" y="-21"/>
      <point x="812" y="-21" type="qcurve" smooth="yes"/>
      <point x="753" y="-21"/>
      <point x="674" y="36"/>
      <point x="652.5" y="80.0" type="qcurve" smooth="yes" name="inserted"/>
      <point x="631" y="124"/>
      <point x="618" y="230"/>
      <point x="625" y="279" type="qcurve" smooth="yes"/>
    </contour>
    <contour>
      <point x="679" y="279" type="line" smooth="yes"/>
      <point x="673" y="241"/>
      <point x="677" y="156"/>
      <point x="691.5" y="119.5" type="qcurve" smooth="yes" name="inserted"/>
      <point x="706" y="83"/>
      <point x="764" y="34"/>
      <point x="812" y="34" type="qcurve" smooth="yes"/>
      <point x="860" y="34"/>
      <point x="936" y="80"/>
      <point x="964.0" y="115.5" type="qcurve" smooth="yes" name="inserted"/>
      <point x="992" y="151"/>
      <point x="1028" y="238"/>
      <point x="1037" y="279" type="qcurve" smooth="yes"/>
      <point x="1051" y="357" type="line" smooth="yes"/>
      <point x="1057" y="395"/>
      <point x="1054" y="481"/>
      <point x="1039.5" y="517.0" type="qcurve" smooth="yes" name="inserted"/>
      <point x="1025" y="553"/>
      <point x="967" y="602"/>
      <point x="918" y="602" type="qcurve" smooth="yes"/>
      <point x="870" y="602"/>
      <point x="794" y="557"/>
      <point x="766.0" y="521.5" type="qcurve" smooth="yes" name="inserted"/>
      <point x="738" y="486"/>
      <point x="703" y="399"/>
      <point x="694" y="357" type="qcurve" smooth="yes"/>
    </contour>
    <contour>
      <point x="228" y="132" type="line"/>
      <point x="188" y="164" type="line"/>
      <point x="987" y="1299" type="line"/>
      <point x="1027" y="1267" type="line"/>
    </contour>
  </outline>
</glyph>
<glyph name="ampersand" format="2">
  <advance width="1202"/>
  <unicode hex="0026"/>
  <outline>
    <contour>
      <point x="120" y="352" type="qcurve" smooth="yes"/>
      <point x="129" y="416"/>
      <point x="187" y="532"/>
      <point x="227.5" y="583.0" type="qcurve" smooth="yes" name="inserted"/>
      <point x="268" y="634"/>
      <point x="365" y="724"/>
      <point x="414" y="762" type="qcurve"/>
      <point x="469" y="803" type="line"/>
      <point x="446" y="845"/>
      <point x="405" y="932"/>
      <point x="391.5" y="977.5" type="qcurve" smooth="yes" name="inserted"/>
      <point x="378" y="1023"/>
      <point x="368" y="1118"/>
      <point x="376" y="1167" type="qcurve" smooth="yes"/>
      <point x="394.0" y="1289.0"/>
      <point x="568.0" y="1477.0"/>
      <point x="698" y="1477" type="qcurve" smooth="yes"/>
      <point x="808.2055121592541" y="1477.0"/>
      <point x="929.9702186030031" y="1316.8064209195202"/>
      <point x="914" y="1213" type="qcurve" smooth="yes"/>
      <point x="899.8846032665808" y="1118.2251933613281"/>
      <point x="765.4323737915129" y="973.5458990332103"/>
      <point x="696" y="918" type="qcurve" smooth="yes"/>
      <point x="536" y="794" type="line"/>
      <point x="874" y="263" type="line"/>
      <point x="937" y="346"/>
      <point x="1018" y="531"/>
      <point x="1040" y="632" type="qcurve"/>
      <point x="1094" y="632" type="line"/>
      <point x="1075" y="515"/>
      <point x="983" y="306"/>
      <point x="908" y="215" type="qcurve"/>
      <point x="1048" y="0" type="line"/>
      <point x="986" y="0" type="line"/>
      <point x="874" y="174" type="line"/>
      <point x="787.3400493439206" y="97.41678779230189"/>
      <point x="581.0930580825277" y="-20.0"/>
      <point x="462" y="-20" type="qcurve" smooth="yes"/>
      <point x="302.0339847084155" y="-20.0"/>
      <point x="96" y="186"/>
    </contour>
    <contour>
      <point x="461" y="34" type="qcurve" smooth="yes"/>
      <point x="574.0680036301331" y="34.0"/>
      <point x="763.3517183407387" y="139.33509573409106"/>
      <point x="842" y="220" type="qcurve"/>
      <point x="496" y="762" type="line"/>
      <point x="445" y="723" type="line"/>
      <point x="401" y="688"/>
      <point x="312" y="607"/>
      <point x="274.5" y="560.5" type="qcurve" smooth="yes" name="inserted"/>
      <point x="237" y="514"/>
      <point x="183" y="410"/>
      <point x="174" y="352" type="qcurve" smooth="yes"/>
      <point x="149.99999999999997" y="212.0"/>
      <point x="325.0" y="34.0"/>
    </contour>
    <contour>
      <point x="431" y="1169" type="qcurve" smooth="yes"/>
      <point x="423" y="1125"/>
      <point x="429" y="1038"/>
      <point x="440.5" y="996.0" type="qcurve" smooth="yes" name="inserted"/>
      <point x="452" y="954"/>
      <point x="487" y="874"/>
      <point x="508" y="836" type="qcurve"/>
      <point x="670" y="960" type="line" smooth="yes"/>
      <point x="730.942552840201" y="1007.1813312311234"/>
      <point x="841.7174730784131" y="1131.5873653920662"/>
      <point x="858" y="1213" type="qcurve" smooth="yes"/>
      <point x="872.0" y="1292.9999999999998"/>
      <point x="785.0" y="1421.0000000000002"/>
      <point x="699" y="1423" type="qcurve" smooth="yes"/>
      <point x="591.4640861754197" y="1423.0"/>
      <point x="448.74652988367103" y="1265.61999603332"/>
    </contour>
  </outline>
</glyph>
<glyph name="quotesingle" format="2">
  <advance width="1202"/>
  <unicode hex="0027"/>
  <outline>
    <contour>
      <point x="705" y="1362" type="line"/>
      <point x="653" y="1122" type="line"/>
      <point x="603" y="1122" type="line"/>
      <point x="651" y="1370" type="line"/>
      <point x="676" y="1536" type="line"/>
      <point x="731" y="1536" type="line"/>
    </contour>
  </outline>
</glyph>
<glyph name="parenleft" format="2">
  <advance width="1202"/>
  <unicode hex="0028"/>
  <outline>
    <contour>
      <point x="391" y="586" type="line" smooth="yes"/>
      <point x="406" y="681"/>
      <point x="454" y="879"/>
      <point x="488.0" y="976.5" type="qcurve" smooth="yes" name="inserted"/>
      <point x="522" y="1074"/>
      <point x="612" y="1261"/>
      <point x="669.5" y="1344.5" type="qcurve" smooth="yes" name="inserted"/>
      <point x="727" y="1428"/>
      <point x="868" y="1570"/>
      <point x="954" y="1623" type="qcurve"/>
      <point x="968" y="1578" type="line"/>
      <point x="849" y="1498"/>
      <point x="673" y="1271"/>
      <point x="610.5" y="1139.5" type="qcurve" smooth="yes" name="inserted"/>
      <point x="548" y="1008"/>
      <point x="468" y="725"/>
      <point x="446" y="590" type="qcurve" smooth="yes"/>
      <point x="442" y="564" type="line" smooth="yes"/>
      <point x="430" y="485"/>
      <point x="414" y="307"/>
      <point x="415.0" y="215.5" type="qcurve" smooth="yes" name="inserted"/>
      <point x="416" y="124"/>
      <point x="440" y="-58"/>
      <point x="467.5" y="-142.0" type="qcurve" smooth="yes" name="inserted"/>
      <point x="495" y="-226"/>
      <point x="587" y="-372"/>
      <point x="655" y="-428" type="qcurve"/>
      <point x="631" y="-469" type="line"/>
      <point x="557" y="-411"/>
      <point x="456" y="-259"/>
      <point x="425.0" y="-172.5" type="qcurve" smooth="yes" name="inserted"/>
      <point x="394" y="-86"/>
      <point x="365" y="103"/>
      <point x="362.5" y="198.5" type="qcurve" smooth="yes" name="inserted"/>
      <point x="360" y="294"/>
      <point x="375" y="481"/>
      <point x="388" y="566" type="qcurve" smooth="yes"/>
    </contour>
  </outline>
</glyph>
<glyph name="asterisk" format="2">
  <advance width="1202"/>
  <unicode hex="002A"/>
  <outline>
    <contour>
      <point x="650" y="1019" type="line"/>
      <point x="286" y="1142" type="line"/>
      <point x="311" y="1194" type="line"/>
      <point x="674" y="1061" type="line"/>
      <point x="738" y="1456" type="line"/>
      <point x="797" y="1456" type="line"/>
      <point x="728" y="1063" type="line"/>
      <point x="1119" y="1204" type="line"/>
      <point x="1135" y="1150" type="line"/>
      <point x="731" y="1012" type="line"/>
      <point x="956" y="695" type="line"/>
      <point x="905" y="664" type="line"/>
      <point x="689" y="985" type="line"/>
      <point x="388" y="662" type="line"/>
      <point x="343" y="695" type="line"/>
    </contour>
  </outline>
</glyph>
<glyph name="comma" format="2">
  <advance width="1202"/>
  <unicode hex="002C"/>
  <outline>
    <contour>
      <point x="444" y="27" type="line" smooth="yes"/>
      <point x="436" y="-16"/>
      <point x="407" y="-96"/>
      <point x="387" y="-133" type="qcurve" smooth="yes"/>
      <point x="369" y="-166"/>
      <point x="322" y="-227"/>
      <point x="294" y="-255" type="qcurve"/>
      <point x="260" y="-221" type="line"/>
      <point x="308" y="-166"/>
      <point x="375" y="-47"/>
      <point x="389" y="25" type="qcurve" smooth="yes"/>
      <point x="412" y="159" type="line"/>
      <point x="466" y="159" type="line"/>
    </contour>
  </outline>
</glyph>
<glyph name="period" format="2">
  <advance width="1202"/>
  <unicode hex="002E"/>
  <outline>
    <contour>
      <point x="476" y="54" type="qcurve"/>
      <point x="477.9460770203292" y="73.46077020329244"/>
      <point x="518.3730396536089" y="112.0"/>
      <point x="541" y="112" type="qcurve" smooth="yes"/>
      <point x="565.0000000000001" y="112.0"/>
      <point x="595.9999999999999" y="71.99999999999999"/>
      <point x="592" y="50" type="qcurve" smooth="yes"/>
      <point x="588" y="29"/>
      <point x="547" y="-6"/>
      <point x="525" y="-6" type="qcurve" smooth="yes"/>
      <point x="502" y="-5"/>
      <point x="472" y="32"/>
    </contour>
  </outline>
</glyph>
<glyph name="slash" format="2">
  <advance width="1202"/>
  <unicode hex="002F"/>
  <unicode hex="2215"/>
  <outline>
    <contour>
      <point x="231" y="-124" type="line"/>
      <point x="171" y="-124" type="line"/>
      <point x="1033" y="1455" type="line"/>
      <point x="1093" y="1455" type="line"/>
    </contour>
  </outline>
</glyph>
<glyph name="one" format="2">
  <advance width="1202"/>
  <unicode hex="0031"/>
  <outline>
    <contour>
      <point x="587" y="0" type="line"/>
      <point x="533" y="0" type="line"/>
      <point x="772" y="1383" type="line"/>
      <point x="326" y="1188" type="line"/>
      <point x="334" y="1247" type="line"/>
      <point x="816" y="1455" type="line"/>
      <point x="837" y="1456" type="line"/>
    </contour>
  </outline>
</glyph>
<glyph name="three" format="2">
  <advance width="1202"/>
  <unicode hex="0033"/>
  <outline>
    <contour>
      <point x="430" y="770" type="line"/>
      <point x="535" y="770" type="line" smooth="yes"/>
      <point x="607" y="772"/>
      <point x="751" y="814"/>
      <point x="811.5" y="853.5" type="qcurve" smooth="yes" name="inserted"/>
      <point x="872" y="893"/>
      <point x="959" y="1009"/>
      <point x="974" y="1085" type="qcurve" smooth="yes"/>
      <point x="988" y="1157"/>
      <point x="958" y="1281"/>
      <point x="920.0" y="1326.0" type="qcurve" smooth="yes" name="inserted"/>
      <point x="882" y="1371"/>
      <point x="765" y="1422"/>
      <point x="692" y="1422" type="qcurve" smooth="yes"/>
      <point x="613" y="1422"/>
      <point x="474" y="1369"/>
      <point x="418.0" y="1322.5" type="qcurve" smooth="yes" name="inserted"/>
      <point x="362" y="1276"/>
      <point x="282" y="1149"/>
      <point x="263" y="1075" type="qcurve"/>
      <point x="209" y="1075" type="line"/>
      <point x="228" y="1160"/>
      <point x="316" y="1307"/>
      <point x="379.5" y="1361.0" type="qcurve" smooth="yes" name="inserted"/>
      <point x="443" y="1415"/>
      <point x="601" y="1476"/>
      <point x="691" y="1476" type="qcurve" smooth="yes"/>
      <point x="775" y="1476"/>
      <point x="912" y="1415"/>
      <point x="958.0" y="1362.0" type="qcurve" smooth="yes" name="inserted"/>
      <point x="1004" y="1309"/>
      <point x="1042" y="1165"/>
      <point x="1028" y="1081" type="qcurve" smooth="yes"/>
      <point x="1017" y="1015"/>
      <point x="955" y="907"/>
      <point x="910.0" y="865.0" type="qcurve" smooth="yes" name="inserted"/>
      <point x="865" y="823"/>
      <point x="754" y="762"/>
      <point x="693" y="743" type="qcurve"/>
      <point x="757" y="725"/>
      <point x="857" y="659"/>
      <point x="890.0" y="614.0" type="qcurve" smooth="yes" name="inserted"/>
      <point x="923" y="569"/>
      <point x="949" y="454"/>
      <point x="938" y="386" type="qcurve" smooth="yes"/>
      <point x="924" y="297"/>
      <point x="835" y="148"/>
      <point x="769.5" y="94.0" type="qcurve" smooth="yes" name="inserted"/>
      <point x="704" y="40"/>
      <point x="540" y="-20"/>
      <point x="451" y="-20" type="qcurve" smooth="yes"/>
      <point x="358" y="-20"/>
      <point x="207" y="44"/>
      <point x="155.0" y="100.5" type="qcurve" smooth="yes" name="inserted"/>
      <point x="103" y="157"/>
      <point x="53" y="313"/>
      <point x="62" y="405" type="qcurve"/>
      <point x="116" y="405" type="line"/>
      <point x="107" y="325"/>
      <point x="148" y="189"/>
      <point x="193.0" y="139.5" type="qcurve" smooth="yes" name="inserted"/>
      <point x="238" y="90"/>
      <point x="369" y="34"/>
      <point x="450" y="34" type="qcurve" smooth="yes"/>
      <point x="529" y="34"/>
      <point x="673" y="84"/>
      <point x="730.5" y="129.5" type="qcurve" smooth="yes" name="inserted"/>
      <point x="788" y="175"/>
      <point x="868" y="303"/>
      <point x="883" y="382" type="qcurve" smooth="yes"/>
      <point x="899" y="469"/>
      <point x="851" y="593"/>
      <point x="800.5" y="633.0" type="qcurve" smooth="yes" name="inserted"/>
      <point x="750" y="673"/>
      <point x="610" y="712"/>
      <point x="534" y="714" type="qcurve" smooth="yes"/>
      <point x="422" y="714" type="line"/>
    </contour>
  </outline>
</glyph>
<glyph name="six" format="2">
  <advance width="1202"/>
  <unicode hex="0036"/>
  <outline>
    <contour>
      <point x="981" y="1476" type="line"/>
      <point x="974" y="1422" type="line"/>
      <point x="957" y="1422" type="line"/>
      <point x="856" y="1420"/>
      <point x="682" y="1366"/>
      <point x="609" y="1319" type="qcurve" smooth="yes" name="inserted"/>
      <point x="535" y="1272"/>
      <point x="415" y="1144"/>
      <point x="367" y="1068" type="qcurve" smooth="yes" name="inserted"/>
      <point x="319" y="992"/>
      <point x="248" y="820"/>
      <point x="224" y="731" type="qcurve"/>
      <point x="262" y="782"/>
      <point x="358" y="865"/>
      <point x="414" y="895" type="qcurve" smooth="yes" name="inserted"/>
      <point x="469" y="924"/>
      <point x="591" y="957"/>
      <point x="655" y="957" type="qcurve" smooth="yes"/>
      <point x="753" y="957"/>
      <point x="894" y="873"/>
      <point x="936" y="806" type="qcurve" smooth="yes" name="inserted"/>
      <point x="978" y="738"/>
      <point x="1007" y="567"/>
      <point x="994" y="480" type="qcurve" smooth="yes"/>
      <point x="979.725666039573" y="386.42381070386676"/>
      <point x="895.2466615790931" y="200.3657913502791"/>
      <point x="833" y="130" type="qcurve" smooth="yes"/>
      <point x="769.6595278002995" y="63.32581873715756"/>
      <point x="615.2811602535996" y="-20.0"/>
      <point x="521" y="-20" type="qcurve" smooth="yes"/>
      <point x="415" y="-21"/>
      <point x="258" y="67"/>
      <point x="209" y="140" type="qcurve" smooth="yes" name="inserted"/>
      <point x="160" y="212"/>
      <point x="123" y="396"/>
      <point x="136" y="492" type="qcurve" smooth="yes"/>
      <point x="162" y="660" type="line" smooth="yes"/>
      <point x="179" y="764"/>
      <point x="247" y="965"/>
      <point x="298" y="1056" type="qcurve" smooth="yes" name="inserted"/>
      <point x="348" y="1146"/>
      <point x="482" y="1299"/>
      <point x="565" y="1355" type="qcurve" smooth="yes" name="inserted"/>
      <point x="648" y="1410"/>
      <point x="846" y="1474"/>
      <point x="960" y="1476" type="qcurve" smooth="yes"/>
    </contour>
    <contour>
      <point x="649" y="903" type="qcurve" smooth="yes"/>
      <point x="585" y="903"/>
      <point x="446" y="861"/>
      <point x="385" y="823" type="qcurve" smooth="yes" name="inserted"/>
      <point x="323" y="785"/>
      <point x="229" y="678"/>
      <point x="210" y="614" type="qcurve"/>
      <point x="190" y="493" type="line" smooth="yes"/>
      <point x="185" y="455"/>
      <point x="184" y="379"/>
      <point x="189" y="342" type="qcurve" smooth="yes"/>
      <point x="196" y="298"/>
      <point x="224" y="214"/>
      <point x="247" y="178" type="qcurve" smooth="yes" name="inserted"/>
      <point x="288" y="112"/>
      <point x="424" y="32"/>
      <point x="520" y="33" type="qcurve" smooth="yes"/>
      <point x="607" y="34"/>
      <point x="750" y="116"/>
      <point x="804" y="180" type="qcurve" smooth="yes" name="inserted"/>
      <point x="858" y="244"/>
      <point x="927" y="402"/>
      <point x="940" y="480" type="qcurve" smooth="yes"/>
      <point x="953" y="557"/>
      <point x="931" y="708"/>
      <point x="895" y="768" type="qcurve" smooth="yes" name="inserted"/>
      <point x="859" y="828"/>
      <point x="737" y="903"/>
    </contour>
  </outline>
</glyph>
<glyph name="seven" format="2">
  <advance width="1202"/>
  <unicode hex="0037"/>
  <outline>
    <contour>
      <point x="1165" y="1422" type="line"/>
      <point x="323" y="0" type="line"/>
      <point x="267" y="0" type="line"/>
      <point x="1099" y="1402" type="line"/>
      <point x="259" y="1402" type="line"/>
      <point x="266" y="1456" type="line"/>
      <point x="1169" y="1456" type="line"/>
    </contour>
  </outline>
</glyph>
<glyph name="eight" format="2">
  <advance width="1202"/>
  <unicode hex="0038"/>
  <outline>
    <contour>
      <point x="1116" y="1086" type="qcurve" smooth="yes"/>
      <point x="1105" y="1021"/>
      <point x="1044" y="912"/>
      <point x="1001" y="870" type="qcurve" smooth="yes" name="inserted"/>
      <point x="957" y="827"/>
      <point x="848" y="764"/>
      <point x="788" y="744" type="qcurve"/>
      <point x="849" y="724"/>
      <point x="948" y="654"/>
      <point x="981.5" y="607.5" type="qcurve" smooth="yes" name="inserted"/>
      <point x="1015" y="561"/>
      <point x="1044" y="445"/>
      <point x="1034" y="379" type="qcurve" smooth="yes"/>
      <point x="1019" y="286"/>
      <point x="922" y="138"/>
      <point x="852.0" y="86.5" type="qcurve" smooth="yes" name="inserted"/>
      <point x="782" y="35"/>
      <point x="610" y="-20"/>
      <point x="520" y="-20" type="qcurve" smooth="yes"/>
      <point x="433" y="-20"/>
      <point x="279" y="35"/>
      <point x="224.0" y="87.0" type="qcurve" smooth="yes" name="inserted"/>
      <point x="169" y="139"/>
      <point x="118" y="286"/>
      <point x="133" y="379" type="qcurve" smooth="yes"/>
      <point x="145" y="451"/>
      <point x="212" y="569"/>
      <point x="261.5" y="615.0" type="qcurve" smooth="yes" name="inserted"/>
      <point x="311" y="661"/>
      <point x="434" y="726"/>
      <point x="501" y="746" type="qcurve"/>
      <point x="447" y="767"/>
      <point x="362" y="834"/>
      <point x="334.5" y="878.0" type="qcurve" smooth="yes" name="inserted"/>
      <point x="307" y="922"/>
      <point x="286" y="1027"/>
      <point x="295" y="1086" type="qcurve" smooth="yes"/>
      <point x="308" y="1172"/>
      <point x="394" y="1315"/>
      <point x="457.5" y="1367.0" type="qcurve" smooth="yes" name="inserted"/>
      <point x="521" y="1419"/>
      <point x="679" y="1476"/>
      <point x="765" y="1476" type="qcurve" smooth="yes"/>
      <point x="848" y="1476"/>
      <point x="989" y="1418"/>
      <point x="1037.5" y="1366.0" type="qcurve" smooth="yes" name="inserted"/>
      <point x="1086" y="1314"/>
      <point x="1130" y="1171"/>
    </contour>
    <contour>
      <point x="978" y="374" type="qcurve" smooth="yes"/>
      <point x="993" y="453"/>
      <point x="947" y="580"/>
      <point x="899.5" y="625.0" type="qcurve" smooth="yes" name="inserted"/>
      <point x="852" y="670"/>
      <point x="719" y="718"/>
      <point x="646" y="718" type="qcurve" smooth="yes"/>
      <point x="569" y="718"/>
      <point x="417" y="670"/>
      <point x="354.0" y="625.0" type="qcurve" smooth="yes" name="inserted"/>
      <point x="291" y="580"/>
      <point x="201" y="453"/>
      <point x="186" y="374" type="qcurve" smooth="yes"/>
      <point x="171" y="294"/>
      <point x="215" y="167"/>
      <point x="263.0" y="123.5" type="qcurve" smooth="yes" name="inserted"/>
      <point x="311" y="80"/>
      <point x="445" y="34"/>
      <point x="519" y="34" type="qcurve" smooth="yes"/>
      <point x="597" y="34"/>
      <point x="748" y="80"/>
      <point x="811.0" y="123.5" type="qcurve" smooth="yes" name="inserted"/>
      <point x="874" y="167"/>
      <point x="963" y="294"/>
    </contour>
    <contour>
      <point x="1062" y="1091" type="qcurve" smooth="yes"/>
      <point x="1075" y="1162"/>
      <point x="1038" y="1283"/>
      <point x="996.0" y="1327.5" type="qcurve" smooth="yes" name="inserted"/>
      <point x="954" y="1372"/>
      <point x="835" y="1422"/>
      <point x="766" y="1422" type="qcurve" smooth="yes"/>
      <point x="693" y="1422"/>
      <point x="555" y="1373"/>
      <point x="498.5" y="1329.5" type="qcurve" smooth="yes" name="inserted"/>
      <point x="442" y="1286"/>
      <point x="363" y="1164"/>
      <point x="350" y="1091" type="qcurve" smooth="yes"/>
      <point x="336" y="1019"/>
      <point x="374" y="902"/>
      <point x="415.5" y="860.0" type="qcurve" smooth="yes" name="inserted"/>
      <point x="457" y="818"/>
      <point x="577" y="772"/>
      <point x="645" y="772" type="qcurve" smooth="yes"/>
      <point x="716" y="772"/>
      <point x="854" y="817"/>
      <point x="911.0" y="859.0" type="qcurve" smooth="yes" name="inserted"/>
      <point x="968" y="901"/>
      <point x="1048" y="1019"/>
    </contour>
  </outline>
</glyph>
<glyph name="nine" format="2">
  <advance width="1202"/>
  <unicode hex="0039"/>
  <outline>
    <contour>
      <point x="288" y="34" type="line" smooth="yes"/>
      <point x="388" y="36"/>
      <point x="559" y="88"/>
      <point x="630.5" y="133.5" type="qcurve" smooth="yes" name="inserted"/>
      <point x="702" y="179"/>
      <point x="817" y="305"/>
      <point x="861.5" y="380.0" type="qcurve" smooth="yes" name="inserted"/>
      <point x="906.0" y="455.0"/>
      <point x="968" y="619"/>
      <point x="992" y="735" type="qcurve"/>
      <point x="956" y="677"/>
      <point x="861" y="579"/>
      <point x="804.5" y="543.0" type="qcurve" smooth="yes" name="inserted"/>
      <point x="748" y="507"/>
      <point x="619" y="468"/>
      <point x="549" y="468" type="qcurve" smooth="yes"/>
      <point x="452" y="469"/>
      <point x="313" y="558"/>
      <point x="271.0" y="628.5" type="qcurve" smooth="yes" name="inserted"/>
      <point x="229" y="699"/>
      <point x="200" y="873"/>
      <point x="212" y="958" type="qcurve" smooth="yes"/>
      <point x="221" y="1019"/>
      <point x="264" y="1144"/>
      <point x="296.0" y="1201.0" type="qcurve" smooth="yes" name="inserted"/>
      <point x="328" y="1258"/>
      <point x="413" y="1358"/>
      <point x="465.0" y="1395.0" type="qcurve" smooth="yes" name="inserted"/>
      <point x="517" y="1432"/>
      <point x="637" y="1475"/>
      <point x="705" y="1476" type="qcurve" smooth="yes"/>
      <point x="785" y="1477"/>
      <point x="907" y="1430"/>
      <point x="951.0" y="1388.5" type="qcurve" smooth="yes" name="inserted"/>
      <point x="995" y="1347"/>
      <point x="1049" y="1235"/>
      <point x="1063.0" y="1171.0" type="qcurve" smooth="yes" name="inserted"/>
      <point x="1077" y="1107"/>
      <point x="1078" y="969"/>
      <point x="1069" y="903" type="qcurve" smooth="yes"/>
      <point x="1044" y="740" type="line" smooth="yes"/>
      <point x="1019" y="588"/>
      <point x="899" y="315"/>
      <point x="804.0" y="211.0" type="qcurve" smooth="yes" name="inserted"/>
      <point x="709" y="107"/>
      <point x="450" y="-18"/>
      <point x="285" y="-20" type="qcurve" smooth="yes"/>
      <point x="250" y="-20" type="line"/>
      <point x="258" y="34" type="line"/>
    </contour>
    <contour>
      <point x="548" y="522" type="qcurve" smooth="yes"/>
      <point x="617" y="522"/>
      <point x="761" y="571"/>
      <point x="824.5" y="614.5" type="qcurve" smooth="yes" name="inserted"/>
      <point x="888" y="658"/>
      <point x="984" y="775"/>
      <point x="1005" y="843" type="qcurve"/>
      <point x="1014" y="902" type="line" smooth="yes"/>
      <point x="1023" y="959"/>
      <point x="1025" y="1081"/>
      <point x="1015.0" y="1139.0" type="qcurve" smooth="yes" name="inserted"/>
      <point x="1005" y="1197"/>
      <point x="961" y="1301"/>
      <point x="924.0" y="1339.5" type="qcurve" smooth="yes" name="inserted"/>
      <point x="887" y="1378"/>
      <point x="781" y="1423"/>
      <point x="709" y="1422" type="qcurve" smooth="yes"/>
      <point x="619" y="1421"/>
      <point x="468" y="1336"/>
      <point x="411.0" y="1269.5" type="qcurve" smooth="yes" name="inserted"/>
      <point x="354" y="1203"/>
      <point x="279" y="1039"/>
      <point x="266" y="958" type="qcurve" smooth="yes"/>
      <point x="254" y="885"/>
      <point x="275" y="731"/>
      <point x="309.5" y="667.5" type="qcurve" smooth="yes" name="inserted"/>
      <point x="344" y="604"/>
      <point x="462" y="523"/>
    </contour>
  </outline>
</glyph>
<glyph name="equal" format="2">
  <advance width="1202"/>
  <unicode hex="003D"/>
  <outline>
    <contour>
      <point x="1078" y="843" type="line"/>
      <point x="212" y="843" type="line"/>
      <point x="220" y="897" type="line"/>
      <point x="1085" y="897" type="line"/>
    </contour>
    <contour>
      <point x="1008" y="436" type="line"/>
      <point x="142" y="436" type="line"/>
      <point x="149" y="490" type="line"/>
      <point x="1015" y="490" type="line"/>
    </contour>
  </outline>
</glyph>
<glyph name="at" format="2">
  <advance width="1202"/>
  <unicode hex="0040"/>
  <outline>
    <contour>
      <point x="1166" y="762" type="qcurve" smooth="yes"/>
      <point x="1157" y="722"/>
      <point x="1133" y="619"/>
      <point x="1114.5" y="565.0" type="qcurve" smooth="yes" name="inserted"/>
      <point x="1096" y="511"/>
      <point x="1046" y="408"/>
      <point x="1012.5" y="367.5" type="qcurve" smooth="yes" name="inserted"/>
      <point x="979" y="327"/>
      <point x="894" y="279"/>
      <point x="841" y="279" type="qcurve" smooth="yes"/>
      <point x="772" y="279.0"/>
      <point x="703" y="397"/>
      <point x="716" y="488" type="qcurve"/>
      <point x="695" y="455"/>
      <point x="643" y="382"/>
      <point x="611.5" y="351.0" type="qcurve" smooth="yes" name="inserted"/>
      <point x="580" y="320"/>
      <point x="505" y="279"/>
      <point x="462" y="279" type="qcurve" smooth="yes"/>
      <point x="414" y="279"/>
      <point x="355" y="324"/>
      <point x="339.5" y="360.5" type="qcurve" smooth="yes" name="inserted"/>
      <point x="324" y="397"/>
      <point x="317" y="489"/>
      <point x="320.0" y="535.0" type="qcurve" smooth="yes" name="inserted"/>
      <point x="323" y="581"/>
      <point x="339" y="666"/>
      <point x="346" y="695" type="qcurve" smooth="yes"/>
      <point x="358" y="743"/>
      <point x="395" y="851"/>
      <point x="420.5" y="904.0" type="qcurve" smooth="yes" name="inserted"/>
      <point x="446" y="957"/>
      <point x="513" y="1054"/>
      <point x="555" y="1090.0" type="qcurve" smooth="yes" name="inserted"/>
      <point x="596" y="1126"/>
      <point x="696" y="1168"/>
      <point x="756" y="1167" type="qcurve" smooth="yes"/>
      <point x="808.0" y="1165.0"/>
      <point x="891.0" y="1107.0"/>
      <point x="914" y="1075" type="qcurve"/>
      <point x="778" y="572" type="line"/>
      <point x="774" y="554"/>
      <point x="765" y="506"/>
      <point x="762.0" y="479.5" type="qcurve" smooth="yes" name="inserted"/>
      <point x="755" y="421"/>
      <point x="790" y="335.0"/>
      <point x="843" y="335" type="qcurve" smooth="yes"/>
      <point x="887" y="335"/>
      <point x="957" y="379"/>
      <point x="984.5" y="416.0" type="qcurve" smooth="yes" name="inserted"/>
      <point x="1012" y="453"/>
      <point x="1053" y="546"/>
      <point x="1068.5" y="594.0" type="qcurve" smooth="yes" name="inserted"/>
      <point x="1084" y="642"/>
      <point x="1104" y="730"/>
      <point x="1111" y="762" type="qcurve" smooth="yes"/>
      <point x="1143" y="903"/>
      <point x="1131" y="1205"/>
      <point x="1064.5" y="1302.0" type="qcurve" smooth="yes" name="inserted"/>
      <point x="1029" y="1353"/>
      <point x="906" y="1413"/>
      <point x="816" y="1413" type="qcurve" smooth="yes"/>
      <point x="719" y="1413"/>
      <point x="551" y="1350"/>
      <point x="479.5" y="1296.0" type="qcurve" smooth="yes" name="inserted"/>
      <point x="408" y="1242"/>
      <point x="292" y="1098"/>
      <point x="246.5" y="1016.0" type="qcurve" smooth="yes" name="inserted"/>
      <point x="201" y="934"/>
      <point x="138" y="760"/>
      <point x="120" y="677" type="qcurve" smooth="yes"/>
      <point x="103" y="598"/>
      <point x="95" y="442"/>
      <point x="106.0" y="371.5" type="qcurve" smooth="yes" name="inserted"/>
      <point x="117" y="301"/>
      <point x="174" y="179"/>
      <point x="222.5" y="134.5" type="qcurve" smooth="yes" name="inserted"/>
      <point x="271" y="90"/>
      <point x="412" y="40"/>
      <point x="508" y="41" type="qcurve" smooth="yes"/>
      <point x="582" y="42"/>
      <point x="725" y="88"/>
      <point x="790" y="121" type="qcurve"/>
      <point x="806" y="73" type="line"/>
      <point x="740" y="33"/>
      <point x="583" y="-13"/>
      <point x="505" y="-14" type="qcurve" smooth="yes"/>
      <point x="400" y="-15"/>
      <point x="243" y="38"/>
      <point x="188.5" y="85.5" type="qcurve" smooth="yes" name="inserted"/>
      <point x="134" y="133"/>
      <point x="69" y="264"/>
      <point x="55.0" y="340.5" type="qcurve" smooth="yes" name="inserted"/>
      <point x="41" y="417"/>
      <point x="48" y="589"/>
      <point x="66" y="677" type="qcurve" smooth="yes"/>
      <point x="84" y="771"/>
      <point x="151" y="961"/>
      <point x="198.5" y="1049.5" type="qcurve" smooth="yes" name="inserted"/>
      <point x="246" y="1138"/>
      <point x="372" y="1291"/>
      <point x="449.5" y="1348.0" type="qcurve" smooth="yes" name="inserted"/>
      <point x="527" y="1405"/>
      <point x="711" y="1470"/>
      <point x="819" y="1470" type="qcurve" smooth="yes"/>
      <point x="920" y="1470"/>
      <point x="1058" y="1407"/>
      <point x="1101.5" y="1353.5" type="qcurve" smooth="yes" name="inserted"/>
      <point x="1185" y="1251"/>
      <point x="1199" y="913"/>
    </contour>
    <contour>
      <point x="400" y="695" type="qcurve" smooth="yes"/>
      <point x="395" y="674"/>
      <point x="379" y="605"/>
      <point x="373.5" y="565.5" type="qcurve" smooth="yes" name="inserted"/>
      <point x="368" y="526"/>
      <point x="366" y="444"/>
      <point x="374.0" y="410.5" type="qcurve" smooth="yes" name="inserted"/>
      <point x="382" y="377"/>
      <point x="423" y="334"/>
      <point x="460" y="333" type="qcurve" smooth="yes"/>
      <point x="524.0" y="331.00000000000006"/>
      <point x="636.5" y="442.5"/>
      <point x="677.5" y="509.5" type="qcurve" smooth="yes" name="inserted"/>
      <point x="698" y="543"/>
      <point x="729" y="607"/>
      <point x="740" y="633" type="qcurve"/>
      <point x="861" y="1053" type="line"/>
      <point x="838" y="1079"/>
      <point x="789" y="1110"/>
      <point x="753" y="1112" type="qcurve" smooth="yes"/>
      <point x="701" y="1113"/>
      <point x="615" y="1076"/>
      <point x="580" y="1043.0" type="qcurve" smooth="yes" name="inserted"/>
      <point x="544" y="1010"/>
      <point x="487" y="924"/>
      <point x="465.0" y="877.0" type="qcurve" smooth="yes" name="inserted"/>
      <point x="443" y="830"/>
      <point x="411" y="736"/>
    </contour>
  </outline>
</glyph>
<glyph name="A" format="2">
  <advance width="1202"/>
  <unicode hex="0041"/>
  <outline>
    <contour>
      <point x="883" y="435" type="line"/>
      <point x="285" y="435" type="line"/>
      <point x="71" y="0" type="line"/>
      <point x="14" y="0" type="line"/>
      <point x="727" y="1456" type="line"/>
      <point x="788" y="1456" type="line"/>
      <point x="1001" y="0" type="line"/>
      <point x="947" y="0" type="line"/>
    </contour>
    <contour>
      <point x="310" y="489" type="line"/>
      <point x="876" y="489" type="line"/>
      <point x="749" y="1379" type="line"/>
    </contour>
  </outline>
</glyph>
<glyph name="C" format="2">
  <advance width="1202"/>
  <unicode hex="0043"/>
  <outline>
    <contour>
      <point x="1024" y="445" type="line"/>
      <point x="998" y="354"/>
      <point x="902" y="186"/>
      <point x="835.0" y="121.0" type="qcurve" smooth="yes" name="inserted"/>
      <point x="768" y="56"/>
      <point x="597" y="-21"/>
      <point x="495" y="-20" type="qcurve" smooth="yes"/>
      <point x="412" y="-19"/>
      <point x="289" y="40"/>
      <point x="246.5" y="89.0" type="qcurve" smooth="yes" name="inserted"/>
      <point x="204" y="138"/>
      <point x="153" y="267"/>
      <point x="141.5" y="338.0" type="qcurve" smooth="yes" name="inserted"/>
      <point x="130" y="409"/>
      <point x="132" y="554"/>
      <point x="142" y="619" type="qcurve" smooth="yes"/>
      <point x="179" y="837" type="line" smooth="yes"/>
      <point x="192" y="908"/>
      <point x="240" y="1057"/>
      <point x="275.5" y="1128.0" type="qcurve" smooth="yes" name="inserted"/>
      <point x="311" y="1199"/>
      <point x="405" y="1324"/>
      <point x="463.5" y="1371.5" type="qcurve" smooth="yes" name="inserted"/>
      <point x="522" y="1419"/>
      <point x="663" y="1475"/>
      <point x="745" y="1476" type="qcurve" smooth="yes"/>
      <point x="844" y="1477"/>
      <point x="990" y="1399"/>
      <point x="1036.5" y="1334.5" type="qcurve" smooth="yes" name="inserted"/>
      <point x="1083" y="1270"/>
      <point x="1125" y="1102"/>
      <point x="1122" y="1012" type="qcurve"/>
      <point x="1070" y="1012" type="line"/>
      <point x="1070" y="1090"/>
      <point x="1035" y="1238"/>
      <point x="996.5" y="1295.5" type="qcurve" smooth="yes" name="inserted"/>
      <point x="958" y="1353"/>
      <point x="834" y="1423"/>
      <point x="745" y="1422" type="qcurve" smooth="yes"/>
      <point x="671" y="1421"/>
      <point x="544" y="1370"/>
      <point x="491.0" y="1326.0" type="qcurve" smooth="yes" name="inserted"/>
      <point x="438" y="1282"/>
      <point x="354" y="1167"/>
      <point x="322.0" y="1102.5" type="qcurve" smooth="yes" name="inserted"/>
      <point x="290" y="1038"/>
      <point x="246" y="902"/>
      <point x="234" y="839" type="qcurve" smooth="yes"/>
      <point x="195" y="619" type="line" smooth="yes"/>
      <point x="186" y="562"/>
      <point x="181" y="432"/>
      <point x="189.5" y="367.0" type="qcurve" smooth="yes" name="inserted"/>
      <point x="198" y="302"/>
      <point x="239" y="183"/>
      <point x="275.5" y="137.0" type="qcurve" smooth="yes" name="inserted"/>
      <point x="312" y="91"/>
      <point x="420" y="35"/>
      <point x="495" y="34" type="qcurve" smooth="yes"/>
      <point x="587" y="33"/>
      <point x="737" y="102"/>
      <point x="796.0" y="159.5" type="qcurve" smooth="yes" name="inserted"/>
      <point x="855" y="217"/>
      <point x="941" y="366"/>
      <point x="970" y="445" type="qcurve"/>
    </contour>
  </outline>
</glyph>
<glyph name="D" format="2">
  <advance width="1202"/>
  <unicode hex="0044"/>
  <outline>
    <contour>
      <point x="89" y="0" type="line"/>
      <point x="342" y="1456" type="line"/>
      <point x="693" y="1456" type="line" smooth="yes"/>
      <point x="777" y="1454"/>
      <point x="911" y="1398"/>
      <point x="962.0" y="1351.5" type="qcurve" smooth="yes" name="inserted"/>
      <point x="1013" y="1305"/>
      <point x="1082" y="1181"/>
      <point x="1101.0" y="1111.0" type="qcurve" smooth="yes" name="inserted"/>
      <point x="1120" y="1041"/>
      <point x="1126" y="890"/>
      <point x="1115" y="817" type="qcurve" smooth="yes"/>
      <point x="1085" y="639" type="line" smooth="yes"/>
      <point x="1071" y="562"/>
      <point x="1013" y="408"/>
      <point x="970.5" y="337.5" type="qcurve" smooth="yes" name="inserted"/>
      <point x="928" y="267"/>
      <point x="819" y="146"/>
      <point x="753.0" y="101.0" type="qcurve" smooth="yes" name="inserted"/>
      <point x="687" y="56"/>
      <point x="535" y="2"/>
      <point x="450" y="0" type="qcurve" smooth="yes"/>
    </contour>
    <contour>
      <point x="385" y="1402" type="line"/>
      <point x="151" y="54" type="line"/>
      <point x="450" y="54" type="line" smooth="yes"/>
      <point x="527" y="56"/>
      <point x="665" y="106"/>
      <point x="725.0" y="147.5" type="qcurve" smooth="yes" name="inserted"/>
      <point x="785" y="189"/>
      <point x="885" y="300"/>
      <point x="924.0" y="364.5" type="qcurve" smooth="yes" name="inserted"/>
      <point x="963" y="429"/>
      <point x="1016" y="569"/>
      <point x="1030" y="639" type="qcurve" smooth="yes"/>
      <point x="1062" y="820" type="line" smooth="yes"/>
      <point x="1072" y="885"/>
      <point x="1068" y="1021"/>
      <point x="1052.5" y="1085.0" type="qcurve" smooth="yes" name="inserted"/>
      <point x="1037" y="1149"/>
      <point x="978" y="1262"/>
      <point x="933.5" y="1305.0" type="qcurve" smooth="yes" name="inserted"/>
      <point x="889" y="1348"/>
      <point x="769" y="1400"/>
      <point x="693" y="1402" type="qcurve" smooth="yes"/>
    </contour>
  </outline>
</glyph>
<glyph name="E" format="2">
  <advance width="1202"/>
  <unicode hex="0045"/>
  <outline>
    <contour>
      <point x="945" y="722" type="line"/>
      <point x="287" y="722" type="line"/>
      <point x="171" y="54" type="line"/>
      <point x="919" y="54" type="line"/>
      <point x="912" y="0" type="line"/>
      <point x="109" y="0" type="line"/>
      <point x="361" y="1456" type="line"/>
      <point x="1162" y="1456" type="line"/>
      <point x="1155" y="1402" type="line"/>
      <point x="405" y="1402" type="line"/>
      <point x="296" y="776" type="line"/>
      <point x="952" y="776" type="line"/>
    </contour>
  </outline>
</glyph>
<glyph name="F" format="2">
  <advance width="1202"/>
  <unicode hex="0046"/>
  <outline>
    <contour>
      <point x="957" y="716" type="line"/>
      <point x="295" y="716" type="line"/>
      <point x="171" y="0" type="line"/>
      <point x="119" y="0" type="line"/>
      <point x="371" y="1456" type="line"/>
      <point x="1174" y="1456" type="line"/>
      <point x="1166" y="1402" type="line"/>
      <point x="414" y="1402" type="line"/>
      <point x="304" y="772" type="line"/>
      <point x="965" y="772" type="line"/>
    </contour>
  </outline>
</glyph>
<glyph name="H" format="2">
  <advance width="1202"/>
  <unicode hex="0048"/>
  <outline>
    <contour>
      <point x="918" y="0" type="line"/>
      <point x="867" y="0" type="line"/>
      <point x="992" y="722" type="line"/>
      <point x="245" y="722" type="line"/>
      <point x="120" y="0" type="line"/>
      <point x="69" y="0" type="line"/>
      <point x="320" y="1456" type="line"/>
      <point x="371" y="1456" type="line"/>
      <point x="254" y="776" type="line"/>
      <point x="1001" y="776" type="line"/>
      <point x="1118" y="1456" type="line"/>
      <point x="1169" y="1456" type="line"/>
    </contour>
  </outline>
</glyph>
<glyph name="K" format="2">
  <advance width="1202"/>
  <unicode hex="004B"/>
  <outline>
    <contour>
      <point x="511" y="763" type="line"/>
      <point x="265" y="550" type="line"/>
      <point x="170" y="0" type="line"/>
      <point x="119" y="0" type="line"/>
      <point x="369" y="1456" type="line"/>
      <point x="421" y="1456" type="line"/>
      <point x="277" y="623" type="line"/>
      <point x="524" y="849" type="line"/>
      <point x="1168" y="1455" type="line"/>
      <point x="1244" y="1454" type="line"/>
      <point x="551" y="798" type="line"/>
      <point x="1038" y="0" type="line"/>
      <point x="974" y="0" type="line"/>
    </contour>
  </outline>
</glyph>
<glyph name="L" format="2">
  <advance width="1202"/>
  <unicode hex="004C"/>
  <outline>
    <contour>
      <point x="195" y="54" type="line"/>
      <point x="940" y="54" type="line"/>
      <point x="933" y="0" type="line"/>
      <point x="130" y="0" type="line"/>
      <point x="382" y="1456" type="line"/>
      <point x="437" y="1456" type="line"/>
    </contour>
  </outline>
</glyph>
<glyph name="M" format="2">
  <advance width="1202"/>
  <unicode hex="004D"/>
  <outline>
    <contour>
      <point x="405" y="1456" type="line"/>
      <point x="584" y="544" type="line"/>
      <point x="1100" y="1456" type="line"/>
      <point x="1185" y="1456" type="line"/>
      <point x="933" y="0" type="line"/>
      <point x="879" y="0" type="line"/>
      <point x="1002" y="713" type="line"/>
      <point x="1119" y="1373" type="line"/>
      <point x="600" y="470" type="line"/>
      <point x="550" y="470" type="line"/>
      <point x="368" y="1373" type="line"/>
      <point x="252" y="703" type="line"/>
      <point x="131" y="0" type="line"/>
      <point x="77" y="0" type="line"/>
      <point x="328" y="1456" type="line"/>
    </contour>
  </outline>
</glyph>
<glyph name="Q" format="2">
  <advance width="1202"/>
  <unicode hex="0051"/>
  <outline>
    <contour>
      <point x="1092" y="619" type="line" smooth="yes"/>
      <point x="1076" y="532"/>
      <point x="1014" y="360"/>
      <point x="967.0" y="283.5" type="qcurve" smooth="yes" name="inserted"/>
      <point x="920" y="207"/>
      <point x="794" y="78"/>
      <point x="715" y="34" type="qcurve"/>
      <point x="909" y="-230" type="line"/>
      <point x="869" y="-263" type="line"/>
      <point x="664" y="9" type="line"/>
      <point x="624" y="-4"/>
      <point x="542" y="-20"/>
      <point x="500" y="-20" type="qcurve" smooth="yes"/>
      <point x="416" y="-20"/>
      <point x="288" y="37"/>
      <point x="242.0" y="85.5" type="qcurve" smooth="yes" name="inserted"/>
      <point x="196" y="134"/>
      <point x="137" y="261"/>
      <point x="123.0" y="332.0" type="qcurve" smooth="yes" name="inserted"/>
      <point x="109" y="403"/>
      <point x="107" y="551"/>
      <point x="118" y="619" type="qcurve" smooth="yes"/>
      <point x="156" y="837" type="line" smooth="yes"/>
      <point x="169" y="910"/>
      <point x="221" y="1062"/>
      <point x="258.5" y="1133.0" type="qcurve" smooth="yes" name="inserted"/>
      <point x="296" y="1204"/>
      <point x="395" y="1329"/>
      <point x="456.5" y="1375.5" type="qcurve" smooth="yes" name="inserted"/>
      <point x="518" y="1422"/>
      <point x="663" y="1476"/>
      <point x="747" y="1476" type="qcurve" smooth="yes"/>
      <point x="831" y="1476"/>
      <point x="959" y="1419"/>
      <point x="1005.0" y="1371.0" type="qcurve" smooth="yes" name="inserted"/>
      <point x="1051" y="1323"/>
      <point x="1110" y="1195"/>
      <point x="1124.0" y="1124.0" type="qcurve" smooth="yes" name="inserted"/>
      <point x="1138" y="1053"/>
      <point x="1140" y="905"/>
      <point x="1129" y="837" type="qcurve" smooth="yes"/>
    </contour>
    <contour>
      <point x="1076" y="839" type="line" smooth="yes"/>
      <point x="1086" y="900"/>
      <point x="1088" y="1033"/>
      <point x="1077.0" y="1097.5" type="qcurve" smooth="yes" name="inserted"/>
      <point x="1066" y="1162"/>
      <point x="1018" y="1280"/>
      <point x="978.5" y="1324.5" type="qcurve" smooth="yes" name="inserted"/>
      <point x="939" y="1369"/>
      <point x="825" y="1422"/>
      <point x="748" y="1422" type="qcurve" smooth="yes"/>
      <point x="672" y="1422"/>
      <point x="540" y="1372"/>
      <point x="484.5" y="1329.5" type="qcurve" smooth="yes" name="inserted"/>
      <point x="429" y="1287"/>
      <point x="339" y="1172"/>
      <point x="305.0" y="1107.5" type="qcurve" smooth="yes" name="inserted"/>
      <point x="271" y="1043"/>
      <point x="223" y="905"/>
      <point x="211" y="839" type="qcurve" smooth="yes"/>
      <point x="172" y="619" type="line" smooth="yes"/>
      <point x="162" y="558"/>
      <point x="160" y="425"/>
      <point x="171.0" y="360.0" type="qcurve" smooth="yes" name="inserted"/>
      <point x="182" y="295"/>
      <point x="230" y="177"/>
      <point x="269.5" y="132.0" type="qcurve" smooth="yes" name="inserted"/>
      <point x="309" y="87"/>
      <point x="423" y="34"/>
      <point x="500" y="34" type="qcurve" smooth="yes"/>
      <point x="576" y="34"/>
      <point x="709" y="84"/>
      <point x="764.5" y="127.0" type="qcurve" smooth="yes" name="inserted"/>
      <point x="820" y="170"/>
      <point x="909" y="285"/>
      <point x="943.5" y="350.0" type="qcurve" smooth="yes" name="inserted"/>
      <point x="978" y="415"/>
      <point x="1024" y="553"/>
      <point x="1037" y="619" type="qcurve" smooth="yes"/>
    </contour>
  </outline>
</glyph>
<glyph name="R" format="2">
  <advance width="1202"/>
  <unicode hex="0052"/>
  <outline>
    <contour>
      <point x="692" y="623" type="line"/>
      <point x="276" y="623" type="line"/>
      <point x="168" y="0" type="line"/>
      <point x="117" y="0" type="line"/>
      <point x="368" y="1456" type="line"/>
      <point x="747" y="1456" type="line" smooth="yes"/>
      <point x="834" y="1454"/>
      <point x="979" y="1388"/>
      <point x="1028.0" y="1331.5" type="qcurve" smooth="yes" name="inserted"/>
      <point x="1077" y="1275"/>
      <point x="1120" y="1124"/>
      <point x="1105" y="1036" type="qcurve" smooth="yes"/>
      <point x="1093" y="961"/>
      <point x="1027" y="839"/>
      <point x="979.0" y="789.5" type="qcurve" smooth="yes" name="inserted"/>
      <point x="931" y="740"/>
      <point x="810" y="665"/>
      <point x="743" y="638" type="qcurve"/>
      <point x="981" y="14" type="line"/>
      <point x="980" y="0" type="line"/>
      <point x="926" y="0" type="line"/>
    </contour>
    <contour>
      <point x="285" y="677" type="line"/>
      <point x="655" y="677" type="line" smooth="yes"/>
      <point x="728" y="680"/>
      <point x="860" y="740"/>
      <point x="912.5" y="788.5" type="qcurve" smooth="yes" name="inserted"/>
      <point x="965" y="837"/>
      <point x="1037" y="965"/>
      <point x="1051" y="1036" type="qcurve" smooth="yes"/>
      <point x="1065" y="1113"/>
      <point x="1031" y="1245"/>
      <point x="989.5" y="1293.5" type="qcurve" smooth="yes" name="inserted"/>
      <point x="948" y="1342"/>
      <point x="823" y="1400"/>
      <point x="747" y="1402" type="qcurve" smooth="yes"/>
      <point x="411" y="1402" type="line"/>
    </contour>
  </outline>
</glyph>
<glyph name="S" format="2">
  <advance width="1202"/>
  <unicode hex="0053"/>
  <outline>
    <contour>
      <point x="973" y="349" type="qcurve" smooth="yes"/>
      <point x="984.9793811989684" y="420.8762871938112"/>
      <point x="945.2076149339863" y="534.7923850660137"/>
      <point x="905" y="575" type="qcurve" smooth="yes"/>
      <point x="855" y="626"/>
      <point x="712" y="693"/>
      <point x="641" y="718" type="qcurve" smooth="yes"/>
      <point x="570" y="742"/>
      <point x="428" y="808"/>
      <point x="374" y="855" type="qcurve" smooth="yes" name="inserted"/>
      <point x="319" y="902"/>
      <point x="260" y="1032"/>
      <point x="273" y="1120" type="qcurve" smooth="yes"/>
      <point x="286" y="1205"/>
      <point x="380" y="1337"/>
      <point x="447" y="1383" type="qcurve" smooth="yes" name="inserted"/>
      <point x="513" y="1429"/>
      <point x="674" y="1476"/>
      <point x="754" y="1476" type="qcurve" smooth="yes"/>
      <point x="844" y="1476"/>
      <point x="987" y="1413"/>
      <point x="1036" y="1359" type="qcurve" smooth="yes" name="inserted"/>
      <point x="1085" y="1304"/>
      <point x="1133" y="1154"/>
      <point x="1126" y="1066" type="qcurve"/>
      <point x="1073" y="1066" type="line"/>
      <point x="1076" y="1141"/>
      <point x="1036" y="1270"/>
      <point x="995" y="1318" type="qcurve" smooth="yes" name="inserted"/>
      <point x="954" y="1366"/>
      <point x="833" y="1422"/>
      <point x="755" y="1422" type="qcurve" smooth="yes"/>
      <point x="686" y="1422"/>
      <point x="545" y="1384"/>
      <point x="486" y="1346" type="qcurve" smooth="yes" name="inserted"/>
      <point x="426" y="1308"/>
      <point x="340" y="1195"/>
      <point x="327" y="1122" type="qcurve" smooth="yes"/>
      <point x="313" y="1052"/>
      <point x="354" y="946"/>
      <point x="397" y="904" type="qcurve" smooth="yes"/>
      <point x="445" y="858"/>
      <point x="588" y="791"/>
      <point x="655" y="770" type="qcurve" smooth="yes"/>
      <point x="734" y="744"/>
      <point x="906" y="657"/>
      <point x="946" y="610" type="qcurve" smooth="yes"/>
      <point x="997" y="550"/>
      <point x="1039.382480815997" y="433.5229859159788"/>
      <point x="1028" y="351" type="qcurve" smooth="yes"/>
      <point x="1015" y="261"/>
      <point x="921" y="123"/>
      <point x="854" y="76" type="qcurve" smooth="yes" name="inserted"/>
      <point x="786" y="29"/>
      <point x="621" y="-20"/>
      <point x="536" y="-20" type="qcurve" smooth="yes"/>
      <point x="443" y="-20"/>
      <point x="284" y="36"/>
      <point x="227" y="90" type="qcurve" smooth="yes" name="inserted"/>
      <point x="170" y="143"/>
      <point x="111" y="295"/>
      <point x="118" y="391" type="qcurve"/>
      <point x="170" y="391" type="line"/>
      <point x="167" y="307"/>
      <point x="219" y="174"/>
      <point x="268" y="128" type="qcurve" smooth="yes" name="inserted"/>
      <point x="316" y="82"/>
      <point x="453" y="34"/>
      <point x="535" y="34" type="qcurve" smooth="yes"/>
      <point x="609" y="34"/>
      <point x="754" y="74"/>
      <point x="814" y="114" type="qcurve" smooth="yes" name="inserted"/>
      <point x="874" y="153"/>
      <point x="959" y="271"/>
    </contour>
  </outline>
</glyph>
<glyph name="T" format="2">
  <advance width="1202"/>
  <unicode hex="0054"/>
  <outline>
    <contour>
      <point x="1230" y="1402" type="line"/>
      <point x="765" y="1402" type="line"/>
      <point x="523" y="0" type="line"/>
      <point x="469" y="0" type="line"/>
      <point x="713" y="1402" type="line"/>
      <point x="248" y="1402" type="line"/>
      <point x="256" y="1456" type="line"/>
      <point x="1238" y="1456" type="line"/>
    </contour>
  </outline>
</glyph>
<glyph name="U" format="2">
  <advance width="1202"/>
  <unicode hex="0055"/>
  <outline>
    <contour>
      <point x="1171" y="1456" type="line"/>
      <point x="1002" y="469" type="line" smooth="yes"/>
      <point x="985" y="376"/>
      <point x="898" y="199"/>
      <point x="833.0" y="131.0" type="qcurve" smooth="yes" name="inserted"/>
      <point x="768" y="63"/>
      <point x="597" y="-20"/>
      <point x="495" y="-20" type="qcurve" smooth="yes"/>
      <point x="394" y="-20"/>
      <point x="251" y="66"/>
      <point x="207.5" y="135.5" type="qcurve" smooth="yes" name="inserted"/>
      <point x="164" y="205"/>
      <point x="134" y="380"/>
      <point x="148" y="469" type="qcurve" smooth="yes"/>
      <point x="319" y="1456" type="line"/>
      <point x="370" y="1456" type="line"/>
      <point x="200" y="469" type="line" smooth="yes"/>
      <point x="188" y="392"/>
      <point x="210" y="236"/>
      <point x="246.0" y="174.0" type="qcurve" smooth="yes" name="inserted"/>
      <point x="282" y="112"/>
      <point x="406" y="34"/>
      <point x="495" y="34" type="qcurve" smooth="yes"/>
      <point x="584" y="34"/>
      <point x="736" y="109"/>
      <point x="794.5" y="170.0" type="qcurve" smooth="yes" name="inserted"/>
      <point x="853" y="231"/>
      <point x="931" y="388"/>
      <point x="947" y="469" type="qcurve" smooth="yes"/>
      <point x="1119" y="1456" type="line"/>
    </contour>
  </outline>
</glyph>
<glyph name="V" format="2">
  <advance width="1202"/>
  <unicode hex="0056"/>
  <outline>
    <contour>
      <point x="470" y="0" type="line"/>
      <point x="235" y="1457" type="line"/>
      <point x="290" y="1456" type="line"/>
      <point x="499" y="142" type="line"/>
      <point x="507" y="67" type="line"/>
      <point x="541" y="146" type="line"/>
      <point x="1158" y="1455" type="line"/>
      <point x="1216" y="1455" type="line"/>
      <point x="531" y="0" type="line"/>
    </contour>
  </outline>
</glyph>
<glyph name="W" format="2">
  <advance width="1202"/>
  <unicode hex="0057"/>
  <outline>
    <contour>
      <point x="227" y="0" type="line"/>
      <point x="227" y="1456" type="line"/>
      <point x="276" y="1456" type="line"/>
      <point x="278" y="325" type="line"/>
      <point x="275" y="152" type="line"/>
      <point x="333" y="334" type="line"/>
      <point x="726" y="1456" type="line"/>
      <point x="774" y="1455" type="line"/>
      <point x="817" y="325" type="line"/>
      <point x="815" y="150" type="line"/>
      <point x="872" y="330" type="line"/>
      <point x="1224" y="1455" type="line"/>
      <point x="1273" y="1455" type="line"/>
      <point x="821" y="0" type="line"/>
      <point x="772" y="3" type="line"/>
      <point x="732" y="1219" type="line"/>
      <point x="730" y="1315" type="line"/>
      <point x="695" y="1210" type="line"/>
      <point x="277" y="0" type="line"/>
    </contour>
  </outline>
</glyph>
<glyph name="X" format="2">
  <advance width="1202"/>
  <unicode hex="0058"/>
  <outline>
    <contour>
      <point x="641" y="786" type="line"/>
      <point x="1156" y="1455" type="line"/>
      <point x="1223" y="1455" type="line"/>
      <point x="669" y="739" type="line"/>
      <point x="1013" y="0" type="line"/>
      <point x="952" y="0" type="line"/>
      <point x="632" y="700" type="line"/>
      <point x="94" y="0" type="line"/>
      <point x="30" y="0" type="line"/>
      <point x="605" y="747" type="line"/>
      <point x="273" y="1457" type="line"/>
      <point x="335" y="1457" type="line"/>
    </contour>
  </outline>
</glyph>
<glyph name="Z" format="2">
  <advance width="1202"/>
  <unicode hex="005A"/>
  <outline>
    <contour>
      <point x="123" y="54" type="line"/>
      <point x="925" y="54" type="line"/>
      <point x="918" y="0" type="line"/>
      <point x="47" y="0" type="line"/>
      <point x="52" y="44" type="line"/>
      <point x="1038" y="1403" type="line"/>
      <point x="298" y="1403" type="line"/>
      <point x="305" y="1456" type="line"/>
      <point x="1117" y="1456" type="line"/>
      <point x="1113" y="1418" type="line"/>
    </contour>
  </outline>
</glyph>
<glyph name="bracketleft" format="2">
  <advance width="1202"/>
  <unicode hex="005B"/>
  <outline>
    <contour>
      <point x="910" y="1610" type="line"/>
      <point x="676" y="1610" type="line"/>
      <point x="384" y="-258" type="line"/>
      <point x="617" y="-258" type="line"/>
      <point x="610" y="-312" type="line"/>
      <point x="320" y="-312" type="line"/>
      <point x="629" y="1664" type="line"/>
      <point x="917" y="1664" type="line"/>
    </contour>
  </outline>
</glyph>
<glyph name="asciicircum" format="2">
  <advance width="1202"/>
  <unicode hex="005E"/>
  <outline>
    <contour>
      <point x="262" y="660" type="line"/>
      <point x="717" y="1456" type="line"/>
      <point x="768" y="1456" type="line"/>
      <point x="953" y="658" type="line"/>
      <point x="894" y="658" type="line"/>
      <point x="762" y="1252" type="line"/>
      <point x="734" y="1380" type="line"/>
      <point x="661" y="1253" type="line"/>
      <point x="322" y="660" type="line"/>
    </contour>
  </outline>
</glyph>
<glyph name="grave" format="2">
  <advance width="1202"/>
  <unicode hex="0060"/>
  <outline>
    <contour>
      <point x="818" y="1249" type="line"/>
      <point x="763" y="1249" type="line"/>
      <point x="619" y="1517" type="line"/>
      <point x="681" y="1517" type="line"/>
    </contour>
  </outline>
</glyph>
<glyph name="e" format="2">
  <advance width="1202"/>
  <unicode hex="0065"/>
  <outline>
    <contour>
      <point x="536" y="-20" type="qcurve" smooth="yes"/>
      <point x="422.51051340463596" y="-20.0"/>
      <point x="256.2368290463448" y="85.93861825609203"/>
      <point x="207" y="168" type="qcurve" smooth="yes"/>
      <point x="164.2285961619797" y="240.38237572588037"/>
      <point x="129.6333936851852" y="424.6170589537039"/>
      <point x="144" y="518" type="qcurve" smooth="yes"/>
      <point x="152" y="562" type="line" smooth="yes"/>
      <point x="164" y="628"/>
      <point x="214" y="759"/>
      <point x="251" y="819" type="qcurve" smooth="yes" name="inserted"/>
      <point x="288" y="879"/>
      <point x="383" y="983"/>
      <point x="440" y="1021" type="qcurve" smooth="yes" name="inserted"/>
      <point x="497" y="1059"/>
      <point x="627" y="1102"/>
      <point x="700" y="1102" type="qcurve" smooth="yes"/>
      <point x="796" y="1102"/>
      <point x="936" y="1023"/>
      <point x="980" y="958" type="qcurve" smooth="yes" name="inserted"/>
      <point x="1023" y="893"/>
      <point x="1054" y="727"/>
      <point x="1042" y="640" type="qcurve" smooth="yes"/>
      <point x="1032" y="577" type="line"/>
      <point x="211" y="577" type="line"/>
      <point x="185" y="462"/>
      <point x="204" y="276"/>
      <point x="255" y="190" type="qcurve" smooth="yes" name="inserted"/>
      <point x="296" y="121"/>
      <point x="439" y="34"/>
      <point x="535" y="33" type="qcurve" smooth="yes"/>
      <point x="638" y="32"/>
      <point x="814" y="112"/>
      <point x="888" y="181" type="qcurve"/>
      <point x="925" y="152" type="line"/>
      <point x="847" y="71"/>
      <point x="650" y="-20"/>
    </contour>
    <contour>
      <point x="701" y="1048" type="qcurve" smooth="yes"/>
      <point x="611" y="1048"/>
      <point x="459" y="976"/>
      <point x="399" y="918" type="qcurve" smooth="yes" name="inserted"/>
      <point x="338" y="859"/>
      <point x="249" y="709"/>
      <point x="221" y="631" type="qcurve"/>
      <point x="983" y="631" type="line"/>
      <point x="986" y="644" type="line"/>
      <point x="1001" y="717"/>
      <point x="976" y="862"/>
      <point x="940" y="919.0" type="qcurve" smooth="yes" name="inserted"/>
      <point x="903" y="976"/>
      <point x="782" y="1048"/>
    </contour>
  </outline>
</glyph>
<glyph name="g" format="2">
  <advance width="1202"/>
  <unicode hex="0067"/>
  <outline>
    <contour>
      <point x="164" y="552" type="line" smooth="yes"/>
      <point x="175" y="617"/>
      <point x="218" y="749"/>
      <point x="249.5" y="810.0" type="qcurve" smooth="yes" name="inserted"/>
      <point x="281" y="871"/>
      <point x="364" y="978"/>
      <point x="416.5" y="1017.5" type="qcurve" smooth="yes" name="inserted"/>
      <point x="469" y="1057"/>
      <point x="595" y="1102"/>
      <point x="670" y="1102" type="qcurve" smooth="yes"/>
      <point x="721" y="1102"/>
      <point x="813" y="1073"/>
      <point x="852.0" y="1046.0" type="qcurve" smooth="yes" name="inserted"/>
      <point x="891" y="1019"/>
      <point x="952" y="943"/>
      <point x="972" y="897" type="qcurve"/>
      <point x="1006" y="1082" type="line"/>
      <point x="1061" y="1082" type="line"/>
      <point x="877" y="15" type="line" smooth="yes"/>
      <point x="860" y="-74"/>
      <point x="781" y="-237"/>
      <point x="721.0" y="-299.0" type="qcurve" smooth="yes" name="inserted"/>
      <point x="661" y="-361"/>
      <point x="502" y="-436"/>
      <point x="406" y="-436" type="qcurve" smooth="yes"/>
      <point x="303" y="-436"/>
      <point x="143" y="-337"/>
      <point x="88" y="-252" type="qcurve"/>
      <point x="129" y="-218" type="line"/>
      <point x="177" y="-292"/>
      <point x="312" y="-383"/>
      <point x="403" y="-383" type="qcurve" smooth="yes"/>
      <point x="489" y="-383"/>
      <point x="629" y="-317"/>
      <point x="682.0" y="-262.0" type="qcurve" smooth="yes" name="inserted"/>
      <point x="735" y="-207"/>
      <point x="806" y="-63"/>
      <point x="822" y="15" type="qcurve" smooth="yes"/>
      <point x="851" y="160" type="line"/>
      <point x="817" y="120"/>
      <point x="734" y="54"/>
      <point x="687.0" y="30.0" type="qcurve" smooth="yes" name="inserted"/>
      <point x="640" y="6"/>
      <point x="537" y="-20"/>
      <point x="484" y="-20" type="qcurve" smooth="yes"/>
      <point x="409" y="-20"/>
      <point x="298" y="28"/>
      <point x="259.0" y="69.5" type="qcurve" smooth="yes" name="inserted"/>
      <point x="220" y="111"/>
      <point x="172" y="220"/>
      <point x="161.0" y="281.5" type="qcurve" smooth="yes" name="inserted"/>
      <point x="150" y="343"/>
      <point x="151" y="471"/>
      <point x="160" y="531" type="qcurve" smooth="yes"/>
    </contour>
    <contour>
      <point x="215" y="531" type="line" smooth="yes"/>
      <point x="206" y="479"/>
      <point x="202" y="365"/>
      <point x="209.0" y="310.0" type="qcurve" smooth="yes" name="inserted"/>
      <point x="216" y="255"/>
      <point x="253" y="156"/>
      <point x="285.5" y="118.0" type="qcurve" smooth="yes" name="inserted"/>
      <point x="318" y="80"/>
      <point x="415" y="35"/>
      <point x="482" y="34" type="qcurve" smooth="yes"/>
      <point x="541" y="34"/>
      <point x="653" y="67"/>
      <point x="702.5" y="97.5" type="qcurve" smooth="yes" name="inserted"/>
      <point x="752" y="128"/>
      <point x="834" y="212"/>
      <point x="863" y="262" type="qcurve"/>
      <point x="956" y="783" type="line"/>
      <point x="948" y="839"/>
      <point x="900" y="936"/>
      <point x="863.5" y="971.5" type="qcurve" smooth="yes" name="inserted"/>
      <point x="827" y="1007"/>
      <point x="729" y="1048"/>
      <point x="670" y="1048" type="qcurve" smooth="yes"/>
      <point x="570" y="1048"/>
      <point x="416" y="958"/>
      <point x="360.5" y="886.5" type="qcurve" smooth="yes" name="inserted"/>
      <point x="305" y="815"/>
      <point x="235" y="638"/>
      <point x="219" y="552" type="qcurve" smooth="yes"/>
    </contour>
  </outline>
</glyph>
<glyph name="j" format="2">
  <advance width="1202"/>
  <unicode hex="006A"/>
  <outline>
    <contour>
      <point x="376" y="1082" type="line"/>
      <point x="839" y="1082" type="line"/>
      <point x="652" y="6" type="line" smooth="yes"/>
      <point x="636" y="-83"/>
      <point x="562" y="-242"/>
      <point x="504.5" y="-302.5" type="qcurve" smooth="yes" name="inserted"/>
      <point x="447" y="-363"/>
      <point x="293" y="-436"/>
      <point x="197" y="-437" type="qcurve" smooth="yes"/>
      <point x="146" y="-438"/>
      <point x="47" y="-428"/>
      <point x="-3" y="-420" type="qcurve"/>
      <point x="8" y="-373" type="line"/>
      <point x="54" y="-379"/>
      <point x="146" y="-385"/>
      <point x="193" y="-384" type="qcurve" smooth="yes"/>
      <point x="279" y="-383"/>
      <point x="415" y="-320"/>
      <point x="466.0" y="-267.0" type="qcurve" smooth="yes" name="inserted"/>
      <point x="517" y="-214"/>
      <point x="583" y="-74"/>
      <point x="598" y="6" type="qcurve" smooth="yes"/>
      <point x="775" y="1028" type="line"/>
      <point x="369" y="1028" type="line"/>
    </contour>
    <contour>
      <point x="786" y="1392" type="qcurve" smooth="yes"/>
      <point x="791" y="1424"/>
      <point x="834" y="1465"/>
      <point x="866" y="1465" type="qcurve" smooth="yes"/>
      <point x="900" y="1465"/>
      <point x="931" y="1421"/>
      <point x="926" y="1390" type="qcurve" smooth="yes"/>
      <point x="921" y="1359"/>
      <point x="878" y="1321"/>
      <point x="846" y="1320" type="qcurve" smooth="yes"/>
      <point x="814" y="1320"/>
      <point x="781" y="1360"/>
    </contour>
  </outline>
</glyph>
<glyph name="l" format="2">
  <advance width="1202"/>
  <unicode hex="006C"/>
  <outline>
    <contour>
      <point x="393" y="1536" type="line"/>
      <point x="837" y="1536" type="line"/>
      <point x="580" y="54" type="line"/>
      <point x="947" y="54" type="line"/>
      <point x="940" y="0" type="line"/>
      <point x="128" y="0" type="line"/>
      <point x="136" y="54" type="line"/>
      <point x="525" y="54" type="line"/>
      <point x="773" y="1482" type="line"/>
      <point x="385" y="1482" type="line"/>
    </contour>
  </outline>
</glyph>
<glyph name="m" format="2">
  <advance width="1202"/>
  <unicode hex="006D"/>
  <outline>
    <contour>
      <point x="215" y="1082" type="line"/>
      <point x="188" y="940" type="line"/>
      <point x="236" y="1013"/>
      <point x="373" y="1101"/>
      <point x="464" y="1102" type="qcurve" smooth="yes"/>
      <point x="509" y="1103"/>
      <point x="582" y="1078"/>
      <point x="608" y="1053" type="qcurve" smooth="yes"/>
      <point x="630" y="1032"/>
      <point x="657" y="973"/>
      <point x="661" y="935" type="qcurve"/>
      <point x="712" y="1009"/>
      <point x="861" y="1101"/>
      <point x="953" y="1102" type="qcurve" smooth="yes"/>
      <point x="1021" y="1102"/>
      <point x="1105" y="1050"/>
      <point x="1127" y="1008" type="qcurve" smooth="yes" name="inserted"/>
      <point x="1148" y="965"/>
      <point x="1155" y="856"/>
      <point x="1146" y="800" type="qcurve"/>
      <point x="1006" y="0" type="line"/>
      <point x="957" y="0" type="line"/>
      <point x="1094" y="800" type="line"/>
      <point x="1101" y="844"/>
      <point x="1101" y="933"/>
      <point x="1087" y="969" type="qcurve" smooth="yes" name="inserted"/>
      <point x="1072" y="1005"/>
      <point x="1008" y="1049"/>
      <point x="952" y="1048" type="qcurve" smooth="yes"/>
      <point x="899" y="1048"/>
      <point x="812" y="1014"/>
      <point x="777" y="986" type="qcurve" smooth="yes" name="inserted"/>
      <point x="734.6470588235294" y="951.8823529411765"/>
      <point x="676.0" y="867"/>
      <point x="663" y="833" type="qcurve"/>
      <point x="516" y="0" type="line"/>
      <point x="467" y="0" type="line"/>
      <point x="607" y="820" type="line"/>
      <point x="614" y="863"/>
      <point x="610" y="946"/>
      <point x="595" y="979" type="qcurve" smooth="yes" name="inserted"/>
      <point x="579" y="1011"/>
      <point x="515" y="1049"/>
      <point x="462" y="1049" type="qcurve" smooth="yes"/>
      <point x="406" y="1048"/>
      <point x="311" y="1005"/>
      <point x="274" y="969" type="qcurve" smooth="yes" name="inserted"/>
      <point x="236" y="933"/>
      <point x="182" y="839"/>
      <point x="167" y="788" type="qcurve"/>
      <point x="28" y="0" type="line"/>
      <point x="-21" y="0" type="line"/>
      <point x="166" y="1082" type="line"/>
    </contour>
  </outline>
</glyph>
<glyph name="n" format="2">
  <advance width="1202"/>
  <unicode hex="006E"/>
  <outline>
    <contour>
      <point x="102" y="0" type="line"/>
      <point x="288" y="1082" type="line"/>
      <point x="343" y="1082" type="line"/>
      <point x="294" y="822" type="line"/>
      <point x="330" y="880"/>
      <point x="423" y="981"/>
      <point x="478.5" y="1019.0" type="qcurve" smooth="yes" name="inserted"/>
      <point x="534" y="1057"/>
      <point x="661" y="1102"/>
      <point x="732" y="1102" type="qcurve" smooth="yes"/>
      <point x="821" y="1102"/>
      <point x="942" y="1036"/>
      <point x="976.0" y="980.0" type="qcurve" smooth="yes" name="inserted"/>
      <point x="1010" y="924"/>
      <point x="1028" y="779"/>
      <point x="1016" y="700" type="qcurve"/>
      <point x="897" y="0" type="line"/>
      <point x="842" y="0" type="line"/>
      <point x="963" y="700" type="line"/>
      <point x="974" y="767"/>
      <point x="963" y="894"/>
      <point x="936.0" y="942.5" type="qcurve" smooth="yes" name="inserted"/>
      <point x="909" y="991"/>
      <point x="808" y="1050"/>
      <point x="730" y="1049" type="qcurve" smooth="yes"/>
      <point x="659" y="1048"/>
      <point x="516" y="991"/>
      <point x="454.0" y="943.0" type="qcurve" smooth="yes" name="inserted"/>
      <point x="392" y="895"/>
      <point x="299" y="770"/>
      <point x="278" y="702" type="qcurve"/>
      <point x="157" y="0" type="line"/>
    </contour>
  </outline>
</glyph>
<glyph name="o" format="2">
  <advance width="1202"/>
  <unicode hex="006F"/>
  <outline>
    <contour>
      <point x="129" y="562" type="line" smooth="yes"/>
      <point x="148" y="663"/>
      <point x="241" y="857"/>
      <point x="311.5" y="933.0" type="qcurve" smooth="yes" name="inserted"/>
      <point x="382" y="1009"/>
      <point x="567" y="1102"/>
      <point x="678" y="1102" type="qcurve" smooth="yes"/>
      <point x="752" y="1102"/>
      <point x="870" y="1058"/>
      <point x="914.5" y="1019.5" type="qcurve" smooth="yes" name="inserted"/>
      <point x="959" y="981"/>
      <point x="1020" y="876"/>
      <point x="1036.5" y="816.0" type="qcurve" smooth="yes" name="inserted"/>
      <point x="1053" y="756"/>
      <point x="1060" y="626"/>
      <point x="1050" y="562" type="qcurve" smooth="yes"/>
      <point x="1043" y="520" type="line" smooth="yes"/>
      <point x="1025" y="419"/>
      <point x="932" y="225"/>
      <point x="861.5" y="149.0" type="qcurve" smooth="yes" name="inserted"/>
      <point x="791" y="73"/>
      <point x="606" y="-20"/>
      <point x="495" y="-20" type="qcurve" smooth="yes"/>
      <point x="421" y="-20"/>
      <point x="303" y="24"/>
      <point x="258.5" y="62.5" type="qcurve" smooth="yes" name="inserted"/>
      <point x="214" y="101"/>
      <point x="153" y="206"/>
      <point x="136.0" y="266.0" type="qcurve" smooth="yes" name="inserted"/>
      <point x="119" y="326"/>
      <point x="112" y="456"/>
      <point x="122" y="520" type="qcurve" smooth="yes"/>
    </contour>
    <contour>
      <point x="176" y="520" type="line" smooth="yes"/>
      <point x="162" y="436"/>
      <point x="185" y="263"/>
      <point x="224" y="193" type="qcurve" smooth="yes" name="inserted"/>
      <point x="262" y="123"/>
      <point x="396" y="34"/>
      <point x="495" y="34" type="qcurve" smooth="yes"/>
      <point x="594" y="34"/>
      <point x="759" y="119"/>
      <point x="823" y="188" type="qcurve" smooth="yes" name="inserted"/>
      <point x="886" y="257"/>
      <point x="970" y="431"/>
      <point x="988" y="520" type="qcurve" smooth="yes"/>
      <point x="996" y="562" type="line" smooth="yes"/>
      <point x="1011.7221060603465" y="659.8264377088229"/>
      <point x="976" y="862"/>
      <point x="920" y="932" type="qcurve" smooth="yes"/>
      <point x="879" y="984"/>
      <point x="758.7877629693876" y="1048.0"/>
      <point x="678" y="1048" type="qcurve" smooth="yes"/>
      <point x="580" y="1048"/>
      <point x="414" y="963"/>
      <point x="351" y="894" type="qcurve" smooth="yes" name="inserted"/>
      <point x="287" y="825"/>
      <point x="202" y="651"/>
      <point x="184" y="562" type="qcurve" smooth="yes"/>
    </contour>
  </outline>
</glyph>
<glyph name="r" format="2">
  <advance width="1202"/>
  <unicode hex="0072"/>
  <outline>
    <contour>
      <point x="990" y="1102" type="qcurve" smooth="yes"/>
      <point x="1025" y="1102"/>
      <point x="1094" y="1092"/>
      <point x="1128" y="1086" type="qcurve"/>
      <point x="1116" y="1036" type="line"/>
      <point x="1084" y="1041"/>
      <point x="1021" y="1049"/>
      <point x="989" y="1049" type="qcurve" smooth="yes"/>
      <point x="905" y="1049"/>
      <point x="735" y="1002"/>
      <point x="662.0" y="956.0" type="qcurve" smooth="yes" name="inserted"/>
      <point x="589" y="910"/>
      <point x="478" y="777"/>
      <point x="453" y="691" type="qcurve"/>
      <point x="336" y="0" type="line"/>
      <point x="275" y="0" type="line"/>
      <point x="461" y="1082" type="line"/>
      <point x="514" y="1082" type="line"/>
      <point x="486" y="894" type="line"/>
      <point x="471" y="825" type="line"/>
      <point x="515" y="892"/>
      <point x="628" y="996"/>
      <point x="694.0" y="1031.0" type="qcurve" smooth="yes" name="inserted"/>
      <point x="760" y="1066"/>
      <point x="910" y="1102"/>
    </contour>
  </outline>
</glyph>
<glyph name="s" format="2">
  <advance width="1202"/>
  <unicode hex="0073"/>
  <outline>
    <contour>
      <point x="920" y="265" type="qcurve" smooth="yes"/>
      <point x="933" y="330"/>
      <point x="879.6" y="419.8999999999999"/>
      <point x="825" y="455" type="qcurve" smooth="yes"/>
      <point x="777" y="484"/>
      <point x="661.7354760170969" y="520.3161309957258"/>
      <point x="615" y="532" type="qcurve" smooth="yes"/>
      <point x="576" y="541"/>
      <point x="490" y="564"/>
      <point x="450" y="580" type="qcurve" smooth="yes" name="inserted"/>
      <point x="409" y="595"/>
      <point x="337" y="639"/>
      <point x="312" y="669" type="qcurve" smooth="yes" name="inserted"/>
      <point x="287" y="699"/>
      <point x="263" y="778"/>
      <point x="271" y="829" type="qcurve" smooth="yes"/>
      <point x="281" y="901"/>
      <point x="367" y="1005"/>
      <point x="427" y="1038" type="qcurve" smooth="yes" name="inserted"/>
      <point x="486" y="1071"/>
      <point x="625" y="1102"/>
      <point x="690" y="1102" type="qcurve" smooth="yes"/>
      <point x="763" y="1102"/>
      <point x="898" y="1066"/>
      <point x="949" y="1028" type="qcurve" smooth="yes" name="inserted"/>
      <point x="1000" y="990"/>
      <point x="1059" y="874"/>
      <point x="1056" y="793" type="qcurve"/>
      <point x="1001" y="793" type="line"/>
      <point x="1006" y="860"/>
      <point x="955" y="957"/>
      <point x="911" y="988" type="qcurve" smooth="yes" name="inserted"/>
      <point x="866" y="1019"/>
      <point x="750" y="1048"/>
      <point x="691" y="1048" type="qcurve" smooth="yes"/>
      <point x="638" y="1048"/>
      <point x="519" y="1025"/>
      <point x="467" y="1000" type="qcurve" smooth="yes" name="inserted"/>
      <point x="414" y="974"/>
      <point x="337" y="891"/>
      <point x="325" y="831" type="qcurve" smooth="yes"/>
      <point x="317" y="786"/>
      <point x="337" y="719"/>
      <point x="360" y="694" type="qcurve" smooth="yes" name="inserted"/>
      <point x="383" y="668"/>
      <point x="449" y="632"/>
      <point x="486" y="619" type="qcurve" smooth="yes" name="inserted"/>
      <point x="523" y="605"/>
      <point x="598" y="587"/>
      <point x="630" y="579" type="qcurve" smooth="yes"/>
      <point x="683.7268494542296" y="565.5682876364426"/>
      <point x="797" y="531"/>
      <point x="853" y="499" type="qcurve" smooth="yes"/>
      <point x="919.6035673000328" y="459.82143099998075"/>
      <point x="987" y="340"/>
      <point x="974" y="264" type="qcurve" smooth="yes"/>
      <point x="961" y="187"/>
      <point x="873" y="80"/>
      <point x="810" y="46" type="qcurve" smooth="yes" name="inserted"/>
      <point x="747" y="11"/>
      <point x="600" y="-20"/>
      <point x="533" y="-20" type="qcurve" smooth="yes"/>
      <point x="462" y="-20"/>
      <point x="323" y="11"/>
      <point x="268" y="47" type="qcurve" smooth="yes" name="inserted"/>
      <point x="212" y="82"/>
      <point x="144" y="194"/>
      <point x="146" y="275" type="qcurve"/>
      <point x="200" y="275" type="line"/>
      <point x="200" y="206"/>
      <point x="259" y="113"/>
      <point x="307" y="85" type="qcurve" smooth="yes" name="inserted"/>
      <point x="354" y="57"/>
      <point x="472" y="34"/>
      <point x="532" y="34" type="qcurve" smooth="yes"/>
      <point x="588" y="34"/>
      <point x="714" y="59"/>
      <point x="770" y="87" type="qcurve" smooth="yes" name="inserted"/>
      <point x="826" y="114"/>
      <point x="907" y="202"/>
    </contour>
  </outline>
</glyph>
<glyph name="v" format="2">
  <advance width="1202"/>
  <unicode hex="0076"/>
  <outline>
    <contour>
      <point x="475" y="0" type="line"/>
      <point x="187" y="1083" type="line"/>
      <point x="246" y="1083" type="line"/>
      <point x="498" y="132" type="line"/>
      <point x="511" y="81" type="line"/>
      <point x="540" y="131" type="line"/>
      <point x="1089" y="1081" type="line"/>
      <point x="1151" y="1081" type="line"/>
      <point x="529" y="0" type="line"/>
    </contour>
  </outline>
</glyph>
<glyph name="z" format="2">
  <advance width="1202"/>
  <unicode hex="007A"/>
  <outline>
    <contour>
      <point x="129" y="54" type="line"/>
      <point x="992" y="54" type="line"/>
      <point x="986" y="0" type="line"/>
      <point x="40" y="0" type="line"/>
      <point x="47" y="44" type="line"/>
      <point x="998" y="1027" type="line"/>
      <point x="235" y="1027" type="line"/>
      <point x="242" y="1082" type="line"/>
      <point x="1087" y="1081" type="line"/>
      <point x="1079" y="1034" type="line"/>
    </contour>
  </outline>
</glyph>
<glyph name="braceleft" format="2">
  <advance width="1202"/>
  <unicode hex="007B"/>
  <outline>
    <contour>
      <point x="782" y="-440" type="line"/>
      <point x="704" y="-412"/>
      <point x="591" y="-322"/>
      <point x="556" y="-263" type="qcurve" smooth="yes" name="inserted"/>
      <point x="521" y="-205"/>
      <point x="497" y="-62"/>
      <point x="508" y="20" type="qcurve" smooth="yes"/>
      <point x="547" y="265" type="line" smooth="yes"/>
      <point x="555" y="328"/>
      <point x="534" y="427"/>
      <point x="505" y="462" type="qcurve" smooth="yes"/>
      <point x="476" y="497"/>
      <point x="383" y="537"/>
      <point x="320" y="543" type="qcurve"/>
      <point x="328" y="609" type="line"/>
      <point x="454" y="620"/>
      <point x="619" y="759"/>
      <point x="643" y="885" type="qcurve" smooth="yes"/>
      <point x="681" y="1132" type="line" smooth="yes"/>
      <point x="696" y="1220"/>
      <point x="766" y="1366"/>
      <point x="820" y="1425" type="qcurve" smooth="yes" name="inserted"/>
      <point x="873" y="1483"/>
      <point x="1012" y="1569"/>
      <point x="1095" y="1597" type="qcurve"/>
      <point x="1105" y="1551" type="line"/>
      <point x="1032" y="1525"/>
      <point x="908" y="1445"/>
      <point x="860" y="1392" type="qcurve" smooth="yes"/>
      <point x="814" y="1340"/>
      <point x="750" y="1209"/>
      <point x="736" y="1132" type="qcurve" smooth="yes"/>
      <point x="698" y="885" type="line" smooth="yes"/>
      <point x="677" y="762"/>
      <point x="528" y="604"/>
      <point x="408" y="575" type="qcurve"/>
      <point x="463" y="560"/>
      <point x="543" y="501"/>
      <point x="567" y="461" type="qcurve" smooth="yes" name="inserted"/>
      <point x="591" y="421"/>
      <point x="607" y="321"/>
      <point x="600" y="265" type="qcurve" smooth="yes"/>
      <point x="562" y="20" type="line" smooth="yes"/>
      <point x="551" y="-55"/>
      <point x="574" y="-183"/>
      <point x="605" y="-235" type="qcurve" smooth="yes"/>
      <point x="636" y="-287"/>
      <point x="738" y="-369"/>
      <point x="806" y="-396" type="qcurve"/>
    </contour>
  </outline>
</glyph>
<glyph name="bar" format="2">
  <advance width="1202"/>
  <unicode hex="007C"/>
  <outline>
    <contour>
      <point x="489" y="-270" type="line"/>
      <point x="435" y="-270" type="line"/>
      <point x="703" y="1456" type="line"/>
      <point x="757" y="1456" type="line"/>
    </contour>
  </outline>
</glyph>
<glyph name="braceright" format="2">
  <advance width="1202"/>
  <unicode hex="007D"/>
  <outline>
    <contour>
      <point x="172" y="-394" type="line"/>
      <point x="244" y="-368"/>
      <point x="367" y="-289"/>
      <point x="416" y="-237" type="qcurve" smooth="yes" name="inserted"/>
      <point x="464" y="-186"/>
      <point x="530" y="-57"/>
      <point x="544" y="20" type="qcurve" smooth="yes"/>
      <point x="582" y="265" type="line" smooth="yes"/>
      <point x="603" y="389"/>
      <point x="752" y="547"/>
      <point x="873" y="577" type="qcurve"/>
      <point x="817" y="592"/>
      <point x="737" y="650"/>
      <point x="713" y="690" type="qcurve" smooth="yes" name="inserted"/>
      <point x="689" y="730"/>
      <point x="672" y="829"/>
      <point x="679" y="885" type="qcurve" smooth="yes"/>
      <point x="718" y="1132" type="line" smooth="yes"/>
      <point x="729" y="1209"/>
      <point x="707" y="1344"/>
      <point x="674" y="1399" type="qcurve" smooth="yes"/>
      <point x="644" y="1449"/>
      <point x="546" y="1527"/>
      <point x="480" y="1553" type="qcurve"/>
      <point x="501" y="1596" type="line"/>
      <point x="574" y="1568"/>
      <point x="683" y="1485"/>
      <point x="717" y="1432" type="qcurve" smooth="yes"/>
      <point x="756" y="1371"/>
      <point x="784" y="1220"/>
      <point x="772" y="1132" type="qcurve" smooth="yes"/>
      <point x="733" y="885" type="line" smooth="yes"/>
      <point x="715" y="759"/>
      <point x="834" y="620"/>
      <point x="959" y="609" type="qcurve"/>
      <point x="953" y="543" type="line"/>
      <point x="826" y="533"/>
      <point x="661" y="392"/>
      <point x="637" y="265" type="qcurve" smooth="yes"/>
      <point x="599" y="20" type="line" smooth="yes"/>
      <point x="584" y="-68"/>
      <point x="514" y="-213"/>
      <point x="461" y="-271" type="qcurve" smooth="yes" name="inserted"/>
      <point x="407" y="-329"/>
      <point x="268" y="-414"/>
      <point x="185" y="-441" type="qcurve"/>
    </contour>
  </outline>
</glyph>
<glyph name="asciitilde" format="2">
  <advance width="1202"/>
  <unicode hex="007E"/>
  <outline>
    <contour>
      <point x="1147" y="751" type="line"/>
      <point x="1135" y="693"/>
      <point x="1086" y="583"/>
      <point x="1048.0" y="540.0" type="qcurve" smooth="yes" name="inserted"/>
      <point x="1010" y="497"/>
      <point x="907" y="444"/>
      <point x="841" y="443" type="qcurve" smooth="yes"/>
      <point x="799" y="443"/>
      <point x="726" y="468"/>
      <point x="693.0" y="489.0" type="qcurve" smooth="yes" name="inserted"/>
      <point x="660" y="510"/>
      <point x="601" y="564"/>
      <point x="574" y="593" type="qcurve" smooth="yes"/>
      <point x="551" y="617"/>
      <point x="503" y="663"/>
      <point x="476.0" y="681.0" type="qcurve" smooth="yes" name="inserted"/>
      <point x="449" y="699"/>
      <point x="388" y="720"/>
      <point x="352" y="720" type="qcurve" smooth="yes"/>
      <point x="297" y="719"/>
      <point x="213" y="675"/>
      <point x="183.0" y="639.0" type="qcurve" smooth="yes" name="inserted"/>
      <point x="153" y="603"/>
      <point x="113" y="511"/>
      <point x="102" y="463" type="qcurve"/>
      <point x="47" y="463" type="line"/>
      <point x="59" y="521"/>
      <point x="108" y="633"/>
      <point x="145.5" y="676.5" type="qcurve" smooth="yes" name="inserted"/>
      <point x="183" y="720"/>
      <point x="286" y="773"/>
      <point x="352" y="774" type="qcurve" smooth="yes"/>
      <point x="394" y="774"/>
      <point x="468" y="750"/>
      <point x="501.0" y="729.0" type="qcurve" smooth="yes" name="inserted"/>
      <point x="534" y="708"/>
      <point x="594" y="653"/>
      <point x="621" y="624" type="qcurve" smooth="yes"/>
      <point x="643" y="600"/>
      <point x="691" y="554"/>
      <point x="718.0" y="536.0" type="qcurve" smooth="yes" name="inserted"/>
      <point x="745" y="518"/>
      <point x="806" y="496"/>
      <point x="841" y="496" type="qcurve" smooth="yes"/>
      <point x="896" y="497"/>
      <point x="979" y="541"/>
      <point x="1009.5" y="577.0" type="qcurve" smooth="yes" name="inserted"/>
      <point x="1040" y="613"/>
      <point x="1080" y="704"/>
      <point x="1091" y="752" type="qcurve"/>
    </contour>
  </outline>
</glyph>
<glyph name="exclamdown" format="2">
  <advance width="1202"/>
  <unicode hex="00A1"/>
  <outline>
    <contour>
      <point x="592" y="696" type="line"/>
      <point x="646" y="696" type="line"/>
      <point x="465" y="-359" type="line"/>
      <point x="410" y="-359" type="line"/>
    </contour>
    <contour>
      <point x="729" y="1046" type="qcurve"/>
      <point x="724.8877645818853" y="1025.438822909426"/>
      <point x="684.46864152948" y="992.0"/>
      <point x="665" y="992" type="qcurve" smooth="yes"/>
      <point x="644" y="993"/>
      <point x="613" y="1028"/>
      <point x="616" y="1050" type="qcurve"/>
      <point x="620" y="1070"/>
      <point x="659" y="1103"/>
      <point x="680" y="1103" type="qcurve" smooth="yes"/>
      <point x="701" y="1102"/>
      <point x="732" y="1068"/>
    </contour>
  </outline>
</glyph>
<glyph name="yen" format="2">
  <advance width="1202"/>
  <unicode hex="00A5"/>
  <outline>
    <contour>
      <point x="1204" y="1455" type="line"/>
      <point x="1271" y="1454" type="line"/>
      <point x="666" y="676" type="line"/>
      <point x="1072" y="676" type="line"/>
      <point x="1065" y="621" type="line"/>
      <point x="627" y="621" type="line"/>
      <point x="626" y="617" type="line"/>
      <point x="585" y="381" type="line"/>
      <point x="1021" y="381" type="line"/>
      <point x="1014" y="326" type="line"/>
      <point x="576" y="326" type="line"/>
      <point x="520" y="0" type="line"/>
      <point x="466" y="0" type="line"/>
      <point x="521" y="326" type="line"/>
      <point x="88" y="326" type="line"/>
      <point x="95" y="381" type="line"/>
      <point x="530" y="381" type="line"/>
      <point x="573" y="621" type="line"/>
      <point x="139" y="621" type="line"/>
      <point x="147" y="676" type="line"/>
      <point x="557" y="676" type="line"/>
      <point x="218" y="1457" type="line"/>
      <point x="280" y="1457" type="line"/>
      <point x="593" y="738" type="line"/>
      <point x="606" y="687" type="line"/>
      <point x="610" y="687" type="line"/>
      <point x="643" y="738" type="line"/>
    </contour>
  </outline>
</glyph>
<glyph name="brokenbar" format="2">
  <advance width="1202"/>
  <unicode hex="00A6"/>
  <outline>
    <contour>
      <point x="408" y="-270" type="line"/>
      <point x="537" y="482" type="line"/>
      <point x="591" y="482" type="line"/>
      <point x="462" y="-270" type="line"/>
    </contour>
    <contour>
      <point x="630" y="698" type="line"/>
      <point x="576" y="698" type="line"/>
      <point x="706" y="1456" type="line"/>
      <point x="760" y="1456" type="line"/>
    </contour>
  </outline>
</glyph>
<glyph name="dieresis" format="2">
  <advance width="1202"/>
  <unicode hex="00A8"/>
  <outline>
    <contour>
      <point x="451" y="1422" type="qcurve" smooth="yes"/>
      <point x="454" y="1442"/>
      <point x="492" y="1477"/>
      <point x="512" y="1477" type="qcurve" smooth="yes"/>
      <point x="534.7984549760979" y="1477.0"/>
      <point x="562.9323254631463" y="1439.323254631462"/>
      <point x="561" y="1420" type="qcurve" smooth="yes"/>
      <point x="558" y="1400"/>
      <point x="519" y="1366"/>
      <point x="499" y="1366" type="qcurve" smooth="yes"/>
      <point x="478" y="1367"/>
      <point x="449" y="1402"/>
    </contour>
    <contour>
      <point x="883" y="1422" type="qcurve" smooth="yes"/>
      <point x="886" y="1442"/>
      <point x="924" y="1477"/>
      <point x="944" y="1477" type="qcurve" smooth="yes"/>
      <point x="965" y="1477"/>
      <point x="995" y="1440"/>
      <point x="993" y="1420" type="qcurve" smooth="yes"/>
      <point x="990" y="1400"/>
      <point x="951" y="1366"/>
      <point x="931" y="1366" type="qcurve" smooth="yes"/>
      <point x="910" y="1367"/>
      <point x="880" y="1402"/>
    </contour>
  </outline>
</glyph>
<glyph name="ordfeminine" format="2">
  <advance width="1202"/>
  <unicode hex="00AA"/>
  <outline>
    <contour>
      <point x="846" y="704" type="line"/>
      <point x="844" y="736"/>
      <point x="844" y="796"/>
      <point x="849" y="828" type="qcurve"/>
      <point x="798" y="769"/>
      <point x="662" y="693"/>
      <point x="582" y="691" type="qcurve" smooth="yes"/>
      <point x="535" y="691"/>
      <point x="449" y="718"/>
      <point x="417.5" y="744.5" type="qcurve" smooth="yes" name="inserted"/>
      <point x="386" y="771"/>
      <point x="355" y="849"/>
      <point x="363" y="900" type="qcurve" smooth="yes"/>
      <point x="373" y="964"/>
      <point x="444" y="1051"/>
      <point x="494.5" y="1078.5" type="qcurve" smooth="yes" name="inserted"/>
      <point x="545" y="1106"/>
      <point x="663" y="1131"/>
      <point x="719" y="1132" type="qcurve" smooth="yes"/>
      <point x="893" y="1132" type="line"/>
      <point x="907" y="1201" type="line" smooth="yes"/>
      <point x="914" y="1245"/>
      <point x="903" y="1324"/>
      <point x="884.0" y="1354.0" type="qcurve" smooth="yes" name="inserted"/>
      <point x="865" y="1384"/>
      <point x="798" y="1421"/>
      <point x="750" y="1422" type="qcurve" smooth="yes"/>
      <point x="703" y="1423"/>
      <point x="617" y="1402"/>
      <point x="581.0" y="1379.5" type="qcurve" smooth="yes" name="inserted"/>
      <point x="545" y="1357"/>
      <point x="491" y="1290"/>
      <point x="476" y="1244" type="qcurve"/>
      <point x="421" y="1244" type="line"/>
      <point x="437" y="1300"/>
      <point x="500" y="1387"/>
      <point x="543.5" y="1416.5" type="qcurve" smooth="yes" name="inserted"/>
      <point x="587" y="1446"/>
      <point x="692" y="1476"/>
      <point x="749" y="1476" type="qcurve" smooth="yes"/>
      <point x="809" y="1476"/>
      <point x="896" y="1431"/>
      <point x="923.0" y="1393.0" type="qcurve" smooth="yes" name="inserted"/>
      <point x="950" y="1355"/>
      <point x="969" y="1255"/>
      <point x="962" y="1200" type="qcurve" smooth="yes"/>
      <point x="944" y="1095"/>
      <point x="926" y="991"/>
      <point x="908" y="886" type="qcurve" smooth="yes"/>
      <point x="901" y="842" name="inserted"/>
      <point x="898.5" y="751.0"/>
      <point x="904" y="705" type="qcurve"/>
    </contour>
    <contour>
      <point x="582" y="746" type="qcurve" smooth="yes"/>
      <point x="623" y="747"/>
      <point x="704" y="770"/>
      <point x="740.0" y="791.0" type="qcurve" smooth="yes" name="inserted"/>
      <point x="776" y="812"/>
      <point x="835" y="870"/>
      <point x="855" y="906" type="qcurve"/>
      <point x="887" y="1078" type="line"/>
      <point x="721" y="1078" type="line" smooth="yes"/>
      <point x="675" y="1077"/>
      <point x="577" y="1062"/>
      <point x="534.0" y="1042.5" type="qcurve" smooth="yes" name="inserted"/>
      <point x="491" y="1023"/>
      <point x="427" y="956"/>
      <point x="417" y="904" type="qcurve" smooth="yes"/>
      <point x="409" y="863"/>
      <point x="431" y="804"/>
      <point x="455.0" y="784.5" type="qcurve" smooth="yes" name="inserted"/>
      <point x="479" y="765"/>
      <point x="546" y="746"/>
    </contour>
  </outline>
</glyph>
<glyph name="registered" format="2">
  <advance width="1202"/>
  <unicode hex="00AE"/>
  <outline>
    <contour>
      <point x="68" y="539" type="qcurve" smooth="yes"/>
      <point x="80" y="618"/>
      <point x="139" y="766"/>
      <point x="183" y="830" type="qcurve" smooth="yes"/>
      <point x="220" y="883"/>
      <point x="316" y="974"/>
      <point x="371" y="1009" type="qcurve" smooth="yes"/>
      <point x="437" y="1050"/>
      <point x="591" y="1096"/>
      <point x="675" y="1096" type="qcurve" smooth="yes"/>
      <point x="791" y="1096"/>
      <point x="970" y="1004"/>
      <point x="1028" y="927" type="qcurve" smooth="yes" name="inserted"/>
      <point x="1085" y="850"/>
      <point x="1131" y="649"/>
      <point x="1115" y="539" type="qcurve" smooth="yes"/>
      <point x="1103" y="459"/>
      <point x="1043" y="309"/>
      <point x="998" y="244" type="qcurve" smooth="yes"/>
      <point x="960.0" y="192.0"/>
      <point x="867.0" y="102.0"/>
      <point x="815" y="68" type="qcurve" smooth="yes"/>
      <point x="748" y="26"/>
      <point x="594" y="-21"/>
      <point x="509" y="-21" type="qcurve" smooth="yes"/>
      <point x="425" y="-21"/>
      <point x="284" y="28"/>
      <point x="230" y="72" type="qcurve" smooth="yes"/>
      <point x="189" y="105"/>
      <point x="124" y="192"/>
      <point x="102" y="243" type="qcurve" smooth="yes"/>
      <point x="74" y="308"/>
      <point x="56" y="459"/>
    </contour>
    <contour>
      <point x="123" y="539" type="qcurve" smooth="yes"/>
      <point x="107" y="441"/>
      <point x="145" y="259"/>
      <point x="195.0" y="189.0" type="qcurve" smooth="yes" name="inserted"/>
      <point x="245" y="119"/>
      <point x="404" y="34"/>
      <point x="509" y="34" type="qcurve" smooth="yes"/>
      <point x="615" y="34"/>
      <point x="801" y="116"/>
      <point x="873.5" y="185.5" type="qcurve" smooth="yes" name="inserted"/>
      <point x="946" y="255"/>
      <point x="1043" y="438"/>
      <point x="1060" y="539" type="qcurve" smooth="yes"/>
      <point x="1076" y="636"/>
      <point x="1038" y="818"/>
      <point x="988.0" y="887.5" type="qcurve" smooth="yes" name="inserted"/>
      <point x="938" y="957"/>
      <point x="780" y="1041"/>
      <point x="675" y="1041" type="qcurve" smooth="yes"/>
      <point x="569" y="1041"/>
      <point x="382" y="960"/>
      <point x="309.5" y="891.5" type="qcurve" smooth="yes" name="inserted"/>
      <point x="237" y="823"/>
      <point x="139" y="641"/>
    </contour>
    <contour>
      <point x="452" y="498" type="line"/>
      <point x="411" y="236" type="line"/>
      <point x="358" y="236" type="line"/>
      <point x="453" y="846" type="line"/>
      <point x="645" y="846" type="line"/>
      <point x="684" y="844"/>
      <point x="756" y="821"/>
      <point x="781.5" y="799.0" type="qcurve" smooth="yes" name="inserted"/>
      <point x="807" y="777"/>
      <point x="832" y="711"/>
      <point x="825" y="668" type="qcurve" smooth="yes"/>
      <point x="820" y="635"/>
      <point x="791" y="585"/>
      <point x="769.5" y="566.5" type="qcurve" smooth="yes" name="inserted"/>
      <point x="748" y="548"/>
      <point x="695" y="522"/>
      <point x="666" y="514" type="qcurve"/>
      <point x="777" y="235" type="line"/>
      <point x="721" y="235" type="line"/>
      <point x="617" y="498" type="line"/>
    </contour>
    <contour>
      <point x="460" y="550" type="line"/>
      <point x="609" y="550" type="line" smooth="yes"/>
      <point x="637" y="551"/>
      <point x="690" y="567"/>
      <point x="712.0" y="581.5" type="qcurve" smooth="yes" name="inserted"/>
      <point x="734" y="596"/>
      <point x="765" y="639"/>
      <point x="771" y="669" type="qcurve" smooth="yes"/>
      <point x="777" y="700"/>
      <point x="760" y="745"/>
      <point x="741.5" y="760.0" type="qcurve" smooth="yes" name="inserted"/>
      <point x="723" y="775"/>
      <point x="672" y="789"/>
      <point x="645" y="791" type="qcurve"/>
      <point x="498" y="791" type="line"/>
    </contour>
  </outline>
</glyph>
<glyph name="macron" format="2">
  <advance width="1202"/>
  <unicode hex="00AF"/>
  <unicode hex="02C9"/>
  <outline>
    <contour>
      <point x="1027" y="1403" type="line"/>
      <point x="418" y="1403" type="line"/>
      <point x="424" y="1456" type="line"/>
      <point x="1034" y="1456" type="line"/>
    </contour>
  </outline>
</glyph>
<glyph name="degree" format="2">
  <advance width="1202"/>
  <unicode hex="00B0"/>
  <outline>
    <contour>
      <point x="478" y="1236" type="qcurve" smooth="yes"/>
      <point x="485" y="1283"/>
      <point x="534" y="1369"/>
      <point x="570.0" y="1402.5" type="qcurve" smooth="yes" name="inserted"/>
      <point x="606" y="1436"/>
      <point x="696" y="1476"/>
      <point x="745" y="1476" type="qcurve" smooth="yes"/>
      <point x="792" y="1476"/>
      <point x="868" y="1434"/>
      <point x="893.5" y="1400.5" type="qcurve" smooth="yes" name="inserted"/>
      <point x="919" y="1367"/>
      <point x="941" y="1281"/>
      <point x="934" y="1236" type="qcurve" smooth="yes"/>
      <point x="927" y="1189"/>
      <point x="879" y="1104"/>
      <point x="844.0" y="1071.5" type="qcurve" smooth="yes" name="inserted"/>
      <point x="809" y="1039"/>
      <point x="720" y="999"/>
      <point x="672" y="999" type="qcurve" smooth="yes"/>
      <point x="624" y="999"/>
      <point x="546" y="1039"/>
      <point x="520.0" y="1072.0" type="qcurve" smooth="yes" name="inserted"/>
      <point x="494" y="1105"/>
      <point x="471" y="1190"/>
    </contour>
    <contour>
      <point x="533" y="1236" type="qcurve" smooth="yes"/>
      <point x="526" y="1201"/>
      <point x="540" y="1136"/>
      <point x="558.5" y="1111.0" type="qcurve" smooth="yes" name="inserted"/>
      <point x="577" y="1086"/>
      <point x="635" y="1055"/>
      <point x="672" y="1055" type="qcurve" smooth="yes"/>
      <point x="709" y="1055"/>
      <point x="778" y="1085"/>
      <point x="805.5" y="1109.5" type="qcurve" smooth="yes" name="inserted"/>
      <point x="833" y="1134"/>
      <point x="871" y="1200"/>
      <point x="878" y="1236" type="qcurve" smooth="yes"/>
      <point x="885" y="1270"/>
      <point x="873" y="1336"/>
      <point x="855.5" y="1362.0" type="qcurve" smooth="yes" name="inserted"/>
      <point x="838" y="1388"/>
      <point x="782" y="1420"/>
      <point x="745" y="1420" type="qcurve" smooth="yes"/>
      <point x="707" y="1420"/>
      <point x="636" y="1390"/>
      <point x="607.5" y="1364.5" type="qcurve" smooth="yes" name="inserted"/>
      <point x="579" y="1339"/>
      <point x="540" y="1272"/>
    </contour>
  </outline>
</glyph>
<glyph name="twosuperior" format="2">
  <advance width="1202"/>
  <unicode hex="00B2"/>
  <outline>
    <contour>
      <point x="897" y="667" type="line"/>
      <point x="369" y="667" type="line"/>
      <point x="376" y="711" type="line"/>
      <point x="705" y="1006" type="line" smooth="yes"/>
      <point x="733" y="1031"/>
      <point x="795" y="1084"/>
      <point x="822.5" y="1114.0" type="qcurve" smooth="yes" name="inserted"/>
      <point x="850" y="1144"/>
      <point x="891" y="1211"/>
      <point x="899" y="1250" type="qcurve" smooth="yes"/>
      <point x="907" y="1289"/>
      <point x="888" y="1351"/>
      <point x="866.5" y="1372.5" type="qcurve" smooth="yes" name="inserted"/>
      <point x="845" y="1394"/>
      <point x="781" y="1418"/>
      <point x="744" y="1418" type="qcurve" smooth="yes"/>
      <point x="652" y="1418"/>
      <point x="526" y="1314"/>
      <point x="499" y="1230" type="qcurve"/>
      <point x="444" y="1230" type="line"/>
      <point x="458" y="1282"/>
      <point x="513" y="1369"/>
      <point x="552.0" y="1400.5" type="qcurve" smooth="yes" name="inserted"/>
      <point x="591" y="1432"/>
      <point x="688" y="1467"/>
      <point x="743" y="1467" type="qcurve" smooth="yes"/>
      <point x="790" y="1467"/>
      <point x="873" y="1437"/>
      <point x="903.0" y="1409.0" type="qcurve" smooth="yes" name="inserted"/>
      <point x="933" y="1381"/>
      <point x="961" y="1301"/>
      <point x="953" y="1251" type="qcurve" smooth="yes"/>
      <point x="945" y="1206"/>
      <point x="899" y="1126"/>
      <point x="867.5" y="1090.5" type="qcurve" smooth="yes" name="inserted"/>
      <point x="836" y="1055"/>
      <point x="765" y="992"/>
      <point x="733" y="964" type="qcurve" smooth="yes"/>
      <point x="446" y="716" type="line"/>
      <point x="904" y="716" type="line"/>
    </contour>
  </outline>
</glyph>
<glyph name="threesuperior" format="2">
  <advance width="1202"/>
  <unicode hex="00B3"/>
  <outline>
    <contour>
      <point x="899.0" y="1000.5" type="qcurve" smooth="yes" name="inserted"/>
      <point x="919" y="977"/>
      <point x="936" y="915"/>
      <point x="930" y="877" type="qcurve" smooth="yes"/>
      <point x="922" y="824"/>
      <point x="865" y="741"/>
      <point x="824.0" y="713.0" type="qcurve" smooth="yes" name="inserted"/>
      <point x="783" y="685"/>
      <point x="684" y="655"/>
      <point x="634" y="655" type="qcurve" smooth="yes"/>
      <point x="581" y="655"/>
      <point x="490" y="685"/>
      <point x="457.0" y="714.0" type="qcurve" smooth="yes" name="inserted"/>
      <point x="424" y="743"/>
      <point x="387" y="828"/>
      <point x="388" y="883" type="qcurve"/>
      <point x="441" y="883" type="line"/>
      <point x="439" y="839"/>
      <point x="467" y="772"/>
      <point x="492.5" y="749.5" type="qcurve" smooth="yes" name="inserted"/>
      <point x="518" y="727"/>
      <point x="590" y="703"/>
      <point x="632" y="703" type="qcurve" smooth="yes"/>
      <point x="672" y="703"/>
      <point x="753" y="725"/>
      <point x="786.5" y="746.5" type="qcurve" smooth="yes" name="inserted"/>
      <point x="820" y="768"/>
      <point x="868" y="833"/>
      <point x="876" y="876" type="qcurve" smooth="yes"/>
      <point x="885" y="924"/>
      <point x="853" y="987"/>
      <point x="822.5" y="1006.0" type="qcurve" smooth="yes" name="inserted"/>
      <point x="792" y="1025"/>
      <point x="712" y="1042"/>
      <point x="674" y="1043" type="qcurve" smooth="yes"/>
      <point x="602" y="1043" type="line"/>
      <point x="609" y="1092" type="line"/>
      <point x="676" y="1092" type="line" smooth="yes"/>
      <point x="714" y="1093"/>
      <point x="794" y="1112"/>
      <point x="828.5" y="1131.0" type="qcurve" smooth="yes" name="inserted"/>
      <point x="863" y="1150"/>
      <point x="914" y="1209"/>
      <point x="923" y="1251" type="qcurve" smooth="yes"/>
      <point x="931" y="1291"/>
      <point x="910" y="1352"/>
      <point x="886.5" y="1373.0" type="qcurve" smooth="yes" name="inserted"/>
      <point x="863" y="1394"/>
      <point x="797" y="1417"/>
      <point x="761" y="1417" type="qcurve" smooth="yes"/>
      <point x="676" y="1417"/>
      <point x="551" y="1327"/>
      <point x="523" y="1249" type="qcurve"/>
      <point x="469" y="1249" type="line"/>
      <point x="483" y="1299"/>
      <point x="539" y="1379"/>
      <point x="576.5" y="1407.0" type="qcurve" smooth="yes" name="inserted"/>
      <point x="614" y="1435"/>
      <point x="707" y="1466"/>
      <point x="759" y="1466" type="qcurve" smooth="yes"/>
      <point x="806" y="1466"/>
      <point x="893" y="1436"/>
      <point x="924.0" y="1408.0" type="qcurve" smooth="yes" name="inserted"/>
      <point x="955" y="1380"/>
      <point x="985" y="1299"/>
      <point x="976" y="1248" type="qcurve" smooth="yes"/>
      <point x="970" y="1211"/>
      <point x="934" y="1154"/>
      <point x="908.5" y="1132.0" type="qcurve" smooth="yes" name="inserted"/>
      <point x="883" y="1110"/>
      <point x="820" y="1079"/>
      <point x="787" y="1068" type="qcurve"/>
      <point x="821" y="1058"/>
      <point x="879" y="1024"/>
    </contour>
  </outline>
</glyph>
<glyph name="paragraph" format="2">
  <advance width="1202"/>
  <unicode hex="00B6"/>
  <outline>
    <contour>
      <point x="741" y="0" type="line"/>
      <point x="831" y="520" type="line"/>
      <point x="715" y="520" type="line" smooth="yes"/>
      <point x="615" y="522"/>
      <point x="452" y="593"/>
      <point x="398.0" y="655.0" type="qcurve" smooth="yes" name="inserted"/>
      <point x="344" y="717"/>
      <point x="297" y="887"/>
      <point x="314" y="988" type="qcurve" smooth="yes"/>
      <point x="331" y="1091"/>
      <point x="431" y="1261"/>
      <point x="504.5" y="1322.5" type="qcurve" smooth="yes" name="inserted"/>
      <point x="578" y="1384"/>
      <point x="764" y="1454"/>
      <point x="867" y="1456" type="qcurve" smooth="yes"/>
      <point x="1047" y="1456" type="line"/>
      <point x="795" y="0" type="line"/>
    </contour>
  </outline>
</glyph>
<glyph name="periodcentered" format="2">
  <advance width="1202"/>
  <unicode hex="00B7"/>
  <outline>
    <contour>
      <point x="566" y="708" type="qcurve" smooth="yes"/>
      <point x="567.8827855599338" y="726.8278555993378"/>
      <point x="605.6722206911154" y="762.0"/>
      <point x="627" y="762" type="qcurve" smooth="yes"/>
      <point x="649" y="761"/>
      <point x="678" y="725"/>
      <point x="675" y="704" type="qcurve" smooth="yes"/>
      <point x="672" y="684"/>
      <point x="631.8278555993378" y="651.0"/>
      <point x="613" y="651" type="qcurve" smooth="yes"/>
      <point x="592" y="652"/>
      <point x="563" y="687"/>
    </contour>
  </outline>
</glyph>
<glyph name="cedilla" format="2">
  <advance width="1202"/>
  <unicode hex="00B8"/>
  <outline>
    <contour>
      <point x="496" y="0" type="line"/>
      <point x="470" y="-77" type="line"/>
      <point x="504" y="-83"/>
      <point x="562" y="-109"/>
      <point x="582" y="-129" type="qcurve" smooth="yes" name="inserted"/>
      <point x="602" y="-150"/>
      <point x="621" y="-208"/>
      <point x="615" y="-246" type="qcurve" smooth="yes"/>
      <point x="610" y="-281"/>
      <point x="579" y="-335"/>
      <point x="556" y="-355" type="qcurve" smooth="yes"/>
      <point x="530.6783543785876" y="-376.4260078335028"/>
      <point x="469.82580817461036" y="-405.77978448677055"/>
      <point x="439" y="-414" type="qcurve" smooth="yes"/>
      <point x="405" y="-423"/>
      <point x="336" y="-433"/>
      <point x="305" y="-435" type="qcurve"/>
      <point x="306" y="-386" type="line"/>
      <point x="341" y="-384"/>
      <point x="423" y="-370"/>
      <point x="460" y="-354" type="qcurve" smooth="yes" name="inserted"/>
      <point x="496" y="-339"/>
      <point x="552" y="-286"/>
      <point x="561" y="-245" type="qcurve" smooth="yes"/>
      <point x="569" y="-208"/>
      <point x="540" y="-162"/>
      <point x="515" y="-149" type="qcurve" smooth="yes" name="inserted"/>
      <point x="489" y="-136"/>
      <point x="426" y="-124"/>
      <point x="399" y="-120" type="qcurve"/>
      <point x="443" y="0" type="line"/>
    </contour>
  </outline>
</glyph>
<glyph name="onequarter" format="2">
  <advance width="1202"/>
  <unicode hex="00BC"/>
  <outline>
    <contour>
      <point x="360.5" y="751.0" type="line"/>
      <point x="312.8" y="751.0" type="line"/>
      <point x="424.4" y="1399.0" type="line"/>
      <point x="196.7" y="1328.8000000000002" type="line"/>
      <point x="203.0" y="1375.6" type="line"/>
      <point x="472.1" y="1462.9" type="line"/>
      <point x="482.0" y="1462.9" type="line"/>
    </contour>
    <contour>
      <point x="927.3000000000001" y="227.70000000000002" type="line"/>
      <point x="1055.1" y="227.70000000000002" type="line"/>
      <point x="1047.9" y="183.6" type="line"/>
      <point x="919.2" y="183.6" type="line"/>
      <point x="887.7" y="0.0" type="line"/>
      <point x="840.0" y="0.0" type="line"/>
      <point x="871.5" y="183.6" type="line"/>
      <point x="503.4" y="184.5" type="line"/>
      <point x="507.0" y="212.4" type="line"/>
      <point x="954.3000000000001" y="709.2" type="line"/>
      <point x="1009.2" y="710.1" type="line"/>
    </contour>
    <contour>
      <point x="574.5" y="227.70000000000002" type="line"/>
      <point x="878.7" y="227.70000000000002" type="line"/>
      <point x="952.5" y="647.1" type="line"/>
      <point x="905.7" y="588.6" type="line"/>
    </contour>
    <component base="fraction" xOffset="-34" yOffset="8"/>
  </outline>
</glyph>
<glyph name="onehalf" format="2">
  <advance width="1202"/>
  <unicode hex="00BD"/>
  <outline>
    <contour>
      <point x="367.5" y="747.0" type="line"/>
      <point x="319.8" y="747.0" type="line"/>
      <point x="431.4" y="1395.0" type="line"/>
      <point x="203.7" y="1324.8000000000002" type="line"/>
      <point x="210.0" y="1371.6" type="line"/>
      <point x="479.1" y="1458.9" type="line"/>
      <point x="489.0" y="1458.9" type="line"/>
    </contour>
    <contour>
      <point x="1028.2" y="0.0" type="line"/>
      <point x="553.0" y="0.0" type="line"/>
      <point x="559.3" y="39.6" type="line"/>
      <point x="855.4" y="305.1" type="line" smooth="yes"/>
      <point x="880.6" y="327.6"/>
      <point x="936.4" y="375.3"/>
      <point x="961.15" y="402.3" type="qcurve" smooth="yes" name="inserted"/>
      <point x="985.9" y="429.3"/>
      <point x="1022.8000000000001" y="489.6"/>
      <point x="1030.0" y="524.7" type="qcurve" smooth="yes"/>
      <point x="1037.2" y="559.8000000000001"/>
      <point x="1020.1" y="615.6"/>
      <point x="1000.75" y="634.95" type="qcurve" smooth="yes" name="inserted"/>
      <point x="981.4" y="654.3000000000001"/>
      <point x="923.8000000000001" y="675.9"/>
      <point x="890.5" y="675.9" type="qcurve" smooth="yes"/>
      <point x="807.7" y="675.9"/>
      <point x="694.3" y="582.3000000000001"/>
      <point x="670.0" y="506.7" type="qcurve"/>
      <point x="620.5" y="506.7" type="line"/>
      <point x="633.1" y="553.5"/>
      <point x="682.6" y="631.8000000000001"/>
      <point x="717.7" y="660.15" type="qcurve" smooth="yes" name="inserted"/>
      <point x="752.8" y="688.5"/>
      <point x="840.1" y="720.0"/>
      <point x="889.6" y="720.0" type="qcurve" smooth="yes"/>
      <point x="931.9" y="720.0"/>
      <point x="1006.6" y="693.0"/>
      <point x="1033.6" y="667.8000000000001" type="qcurve" smooth="yes" name="inserted"/>
      <point x="1060.6" y="642.6"/>
      <point x="1085.8000000000002" y="570.6"/>
      <point x="1078.6" y="525.6" type="qcurve" smooth="yes"/>
      <point x="1071.4" y="485.1"/>
      <point x="1030.0" y="413.1"/>
      <point x="1001.65" y="381.15000000000003" type="qcurve" smooth="yes" name="inserted"/>
      <point x="973.3000000000001" y="349.2"/>
      <point x="909.4" y="292.5"/>
      <point x="880.6" y="267.3" type="qcurve" smooth="yes"/>
      <point x="622.3" y="44.1" type="line"/>
      <point x="1034.5" y="44.1" type="line"/>
    </contour>
    <component base="fraction" xOffset="-58" yOffset="8"/>
  </outline>
</glyph>
<glyph name="threequarters" format="2">
  <advance width="1202"/>
  <unicode hex="00BE"/>
  <outline>
    <contour>
      <point x="950.3000000000001" y="228.70000000000002" type="line"/>
      <point x="1078.1" y="228.70000000000002" type="line"/>
      <point x="1070.9" y="184.6" type="line"/>
      <point x="942.2" y="184.6" type="line"/>
      <point x="910.7" y="1.0" type="line"/>
      <point x="863.0" y="1.0" type="line"/>
      <point x="894.5" y="184.6" type="line"/>
      <point x="526.4" y="185.5" type="line"/>
      <point x="530.0" y="213.4" type="line"/>
      <point x="977.3000000000001" y="710.2" type="line"/>
      <point x="1032.2" y="711.1" type="line"/>
    </contour>
    <contour>
      <point x="597.5" y="228.70000000000002" type="line"/>
      <point x="901.7" y="228.70000000000002" type="line"/>
      <point x="975.5" y="648.1" type="line"/>
      <point x="928.7" y="589.6" type="line"/>
    </contour>
    <contour>
      <point x="326.1" y="1127.4" type="line"/>
      <point x="386.40000000000003" y="1127.4" type="line" smooth="yes"/>
      <point x="420.6" y="1128.3"/>
      <point x="492.6" y="1145.4"/>
      <point x="523.65" y="1162.5" type="qcurve" smooth="yes" name="inserted"/>
      <point x="554.7" y="1179.6"/>
      <point x="600.6" y="1232.7"/>
      <point x="608.7" y="1270.5" type="qcurve" smooth="yes"/>
      <point x="615.9" y="1306.5"/>
      <point x="597.0" y="1361.4"/>
      <point x="575.85" y="1380.3000000000002" type="qcurve" smooth="yes" name="inserted"/>
      <point x="554.7" y="1399.2"/>
      <point x="495.30000000000007" y="1419.9"/>
      <point x="462.9" y="1419.9" type="qcurve" smooth="yes"/>
      <point x="386.40000000000003" y="1419.9"/>
      <point x="273.90000000000003" y="1338.9"/>
      <point x="248.7" y="1268.7" type="qcurve"/>
      <point x="200.10000000000002" y="1268.7" type="line"/>
      <point x="212.7" y="1313.7"/>
      <point x="263.1" y="1385.7"/>
      <point x="296.85" y="1410.9" type="qcurve" smooth="yes" name="inserted"/>
      <point x="330.6" y="1436.1"/>
      <point x="414.30000000000007" y="1464.0"/>
      <point x="461.1" y="1464.0" type="qcurve" smooth="yes"/>
      <point x="503.4" y="1464.0"/>
      <point x="581.7" y="1437.0"/>
      <point x="609.6" y="1411.8000000000002" type="qcurve" smooth="yes" name="inserted"/>
      <point x="637.5" y="1386.6"/>
      <point x="664.5" y="1313.7"/>
      <point x="656.4" y="1267.8000000000002" type="qcurve" smooth="yes"/>
      <point x="651.0" y="1234.5"/>
      <point x="618.6" y="1183.2"/>
      <point x="595.65" y="1163.4" type="qcurve" smooth="yes" name="inserted"/>
      <point x="572.7" y="1143.6"/>
      <point x="516.0" y="1115.7"/>
      <point x="486.30000000000007" y="1105.8" type="qcurve"/>
      <point x="516.9" y="1096.8"/>
      <point x="569.1" y="1066.2"/>
      <point x="587.1" y="1045.05" type="qcurve" smooth="yes" name="inserted"/>
      <point x="605.1" y="1023.9000000000001"/>
      <point x="620.4" y="968.1"/>
      <point x="615.0" y="933.9" type="qcurve" smooth="yes"/>
      <point x="607.8000000000001" y="886.2"/>
      <point x="556.5" y="811.5"/>
      <point x="519.6" y="786.3" type="qcurve" smooth="yes" name="inserted"/>
      <point x="482.70000000000005" y="761.1"/>
      <point x="393.6" y="734.1"/>
      <point x="348.6" y="734.1" type="qcurve" smooth="yes"/>
      <point x="300.90000000000003" y="734.1"/>
      <point x="219.0" y="761.1"/>
      <point x="189.3" y="787.2" type="qcurve" smooth="yes" name="inserted"/>
      <point x="159.60000000000002" y="813.3"/>
      <point x="126.30000000000001" y="889.8"/>
      <point x="127.20000000000002" y="939.3" type="qcurve"/>
      <point x="174.90000000000003" y="939.3" type="line"/>
      <point x="173.10000000000002" y="899.7"/>
      <point x="198.3" y="839.4"/>
      <point x="221.25" y="819.15" type="qcurve" smooth="yes" name="inserted"/>
      <point x="244.2" y="798.9"/>
      <point x="309.0" y="777.3"/>
      <point x="346.8" y="777.3" type="qcurve" smooth="yes"/>
      <point x="382.8" y="777.3"/>
      <point x="455.70000000000005" y="797.1"/>
      <point x="485.85" y="816.45" type="qcurve" smooth="yes" name="inserted"/>
      <point x="516.0" y="835.8"/>
      <point x="559.2" y="894.3"/>
      <point x="566.4" y="933.0" type="qcurve" smooth="yes"/>
      <point x="574.5" y="976.2"/>
      <point x="545.7" y="1032.9"/>
      <point x="518.25" y="1050.0" type="qcurve" smooth="yes" name="inserted"/>
      <point x="490.80000000000007" y="1067.1"/>
      <point x="418.80000000000007" y="1082.4"/>
      <point x="384.6" y="1083.3" type="qcurve" smooth="yes"/>
      <point x="319.8" y="1083.3" type="line"/>
    </contour>
    <component base="fraction" xOffset="40"/>
  </outline>
</glyph>
<glyph name="questiondown" format="2">
  <advance width="1202"/>
  <unicode hex="00BF"/>
  <outline>
    <contour>
      <point x="664" y="694" type="line"/>
      <point x="655" y="648"/>
      <point x="627" y="569"/>
      <point x="607" y="534" type="qcurve" smooth="yes" name="inserted"/>
      <point x="586" y="498"/>
      <point x="532" y="434"/>
      <point x="496" y="403" type="qcurve" smooth="yes"/>
      <point x="446" y="360"/>
      <point x="350" y="269"/>
      <point x="310" y="218" type="qcurve" smooth="yes" name="inserted"/>
      <point x="270" y="167"/>
      <point x="212" y="51"/>
      <point x="200" y="-17" type="qcurve" smooth="yes"/>
      <point x="189" y="-79"/>
      <point x="207" y="-192"/>
      <point x="237" y="-234" type="qcurve" smooth="yes" name="inserted"/>
      <point x="266" y="-277"/>
      <point x="363" y="-328"/>
      <point x="430" y="-328" type="qcurve" smooth="yes"/>
      <point x="499" y="-328"/>
      <point x="612" y="-279"/>
      <point x="656" y="-237" type="qcurve" smooth="yes" name="inserted"/>
      <point x="700" y="-195"/>
      <point x="762" y="-84"/>
      <point x="779" y="-22" type="qcurve"/>
      <point x="833" y="-22" type="line"/>
      <point x="816" y="-96"/>
      <point x="746" y="-226"/>
      <point x="695" y="-275" type="qcurve" smooth="yes" name="inserted"/>
      <point x="644" y="-324"/>
      <point x="511" y="-381"/>
      <point x="431" y="-381" type="qcurve" smooth="yes"/>
      <point x="353" y="-381"/>
      <point x="236" y="-321"/>
      <point x="199" y="-270" type="qcurve" smooth="yes" name="inserted"/>
      <point x="162" y="-220"/>
      <point x="134" y="-88"/>
      <point x="146" y="-15" type="qcurve" smooth="yes"/>
      <point x="158" y="59"/>
      <point x="220" y="187"/>
      <point x="264" y="244" type="qcurve" smooth="yes" name="inserted"/>
      <point x="307" y="300"/>
      <point x="412" y="400"/>
      <point x="468" y="445" type="qcurve" smooth="yes"/>
      <point x="498" y="470"/>
      <point x="543" y="522"/>
      <point x="560" y="552" type="qcurve" smooth="yes"/>
      <point x="577" y="583"/>
      <point x="602" y="654"/>
      <point x="610" y="695" type="qcurve"/>
    </contour>
    <contour>
      <point x="639" y="1048" type="qcurve" smooth="yes"/>
      <point x="640.9468641529481" y="1067.4686415294802"/>
      <point x="681.4388229094262" y="1101.0"/>
      <point x="702" y="1101" type="qcurve" smooth="yes"/>
      <point x="723" y="1100"/>
      <point x="752" y="1065"/>
      <point x="749" y="1044" type="qcurve" smooth="yes"/>
      <point x="745" y="1023"/>
      <point x="705.8278555993378" y="990.0"/>
      <point x="687" y="990" type="qcurve" smooth="yes"/>
      <point x="666" y="991"/>
      <point x="636" y="1027"/>
    </contour>
  </outline>
</glyph>
<glyph name="Eth" format="2">
  <advance width="1232"/>
  <unicode hex="00D0"/>
  <outline>
    <contour>
      <point x="119" y="0" type="line"/>
      <point x="243" y="713" type="line"/>
      <point x="-23" y="713" type="line"/>
      <point x="-15" y="767" type="line"/>
      <point x="252" y="767" type="line"/>
      <point x="372" y="1456" type="line"/>
      <point x="723" y="1456" type="line" smooth="yes"/>
      <point x="807" y="1454"/>
      <point x="941" y="1398"/>
      <point x="992" y="1352" type="qcurve" smooth="yes" name="inserted"/>
      <point x="1043" y="1305"/>
      <point x="1112" y="1181"/>
      <point x="1131" y="1111" type="qcurve" smooth="yes" name="inserted"/>
      <point x="1150" y="1041"/>
      <point x="1156" y="890"/>
      <point x="1145" y="817" type="qcurve" smooth="yes"/>
      <point x="1115" y="639" type="line" smooth="yes"/>
      <point x="1093" y="518"/>
      <point x="976" y="281"/>
      <point x="889" y="191" type="qcurve" smooth="yes"/>
      <point x="811" y="109"/>
      <point x="602" y="3"/>
      <point x="480" y="0" type="qcurve" smooth="yes"/>
    </contour>
    <contour>
      <point x="548" y="713" type="line"/>
      <point x="295" y="713" type="line"/>
      <point x="181" y="54" type="line"/>
      <point x="480" y="54" type="line" smooth="yes"/>
      <point x="593" y="57"/>
      <point x="784" y="157"/>
      <point x="857" y="236" type="qcurve" smooth="yes"/>
      <point x="934" y="318"/>
      <point x="1038" y="531"/>
      <point x="1060" y="639" type="qcurve" smooth="yes"/>
      <point x="1092" y="820" type="line" smooth="yes"/>
      <point x="1102" y="885"/>
      <point x="1098" y="1021"/>
      <point x="1083" y="1085" type="qcurve" smooth="yes" name="inserted"/>
      <point x="1067" y="1149"/>
      <point x="1008" y="1262"/>
      <point x="964" y="1305" type="qcurve" smooth="yes" name="inserted"/>
      <point x="919" y="1348"/>
      <point x="799" y="1400"/>
      <point x="723" y="1402" type="qcurve" smooth="yes"/>
      <point x="415" y="1402" type="line"/>
      <point x="305" y="767" type="line"/>
      <point x="556" y="767" type="line"/>
    </contour>
  </outline>
</glyph>
<glyph name="multiply" format="2">
  <advance width="1202"/>
  <unicode hex="00D7"/>
  <outline>
    <contour>
      <point x="147" y="277" type="line"/>
      <point x="589" y="672" type="line"/>
      <point x="305" y="1034" type="line"/>
      <point x="347" y="1071" type="line"/>
      <point x="629" y="708" type="line"/>
      <point x="1039" y="1071" type="line"/>
      <point x="1074" y="1030" type="line"/>
      <point x="663" y="665" type="line"/>
      <point x="970" y="273" type="line"/>
      <point x="928" y="238" type="line"/>
      <point x="623" y="628" type="line"/>
      <point x="183" y="238" type="line"/>
    </contour>
  </outline>
</glyph>
<glyph name="Oslash" format="2">
  <advance width="1202"/>
  <unicode hex="00D8"/>
  <outline>
    <contour>
      <point x="1046" y="619" type="line" smooth="yes"/>
      <point x="1033" y="549"/>
      <point x="986" y="399"/>
      <point x="950.5" y="328.0" type="qcurve" smooth="yes" name="inserted"/>
      <point x="915" y="257"/>
      <point x="822" y="131"/>
      <point x="764.0" y="83.5" type="qcurve" smooth="yes" name="inserted"/>
      <point x="706" y="36"/>
      <point x="565" y="-20"/>
      <point x="483" y="-20" type="qcurve" smooth="yes"/>
      <point x="394" y="-20"/>
      <point x="267" y="46"/>
      <point x="223" y="102" type="qcurve"/>
      <point x="93" y="-74" type="line"/>
      <point x="27" y="-73" type="line"/>
      <point x="192" y="149" type="line"/>
      <point x="163" y="199"/>
      <point x="130" y="317"/>
      <point x="123.0" y="378.5" type="qcurve" smooth="yes" name="inserted"/>
      <point x="116" y="440"/>
      <point x="120" y="563"/>
      <point x="129" y="619" type="qcurve" smooth="yes"/>
      <point x="166" y="837" type="line" smooth="yes"/>
      <point x="179" y="907"/>
      <point x="227" y="1057"/>
      <point x="262.0" y="1128.0" type="qcurve" smooth="yes" name="inserted"/>
      <point x="297" y="1199"/>
      <point x="391" y="1325"/>
      <point x="449.5" y="1373.0" type="qcurve" smooth="yes" name="inserted"/>
      <point x="508" y="1421"/>
      <point x="648" y="1476"/>
      <point x="731" y="1476" type="qcurve" smooth="yes"/>
      <point x="788" y="1476"/>
      <point x="881" y="1447"/>
      <point x="918.5" y="1421.5" type="qcurve" smooth="yes" name="inserted"/>
      <point x="956" y="1396"/>
      <point x="1013" y="1326"/>
      <point x="1033" y="1284" type="qcurve"/>
      <point x="1189" y="1494" type="line"/>
      <point x="1255" y="1493" type="line"/>
      <point x="1057" y="1227" type="line"/>
      <point x="1073" y="1181"/>
      <point x="1090" y="1081"/>
      <point x="1093.0" y="1031.0" type="qcurve" smooth="yes" name="inserted"/>
      <point x="1096" y="981"/>
      <point x="1090" y="882"/>
      <point x="1083" y="837" type="qcurve" smooth="yes"/>
    </contour>
    <contour>
      <point x="183" y="619" type="line" smooth="yes"/>
      <point x="175" y="570"/>
      <point x="169" y="460"/>
      <point x="173.0" y="404.0" type="qcurve" smooth="yes" name="inserted"/>
      <point x="177" y="348"/>
      <point x="202" y="240"/>
      <point x="225" y="194" type="qcurve"/>
      <point x="999" y="1238" type="line"/>
      <point x="982" y="1278"/>
      <point x="934" y="1345"/>
      <point x="901.0" y="1369.5" type="qcurve" smooth="yes" name="inserted"/>
      <point x="868" y="1394"/>
      <point x="784" y="1422"/>
      <point x="731" y="1422" type="qcurve" smooth="yes"/>
      <point x="657" y="1422"/>
      <point x="530" y="1371"/>
      <point x="477.5" y="1327.0" type="qcurve" smooth="yes" name="inserted"/>
      <point x="425" y="1283"/>
      <point x="341" y="1167"/>
      <point x="309.0" y="1102.5" type="qcurve" smooth="yes" name="inserted"/>
      <point x="277" y="1038"/>
      <point x="234" y="902"/>
      <point x="222" y="839" type="qcurve" smooth="yes"/>
    </contour>
    <contour>
      <point x="1031" y="839" type="line" smooth="yes"/>
      <point x="1044" y="915"/>
      <point x="1042" y="1094"/>
      <point x="1020" y="1177" type="qcurve"/>
      <point x="255" y="144" type="line"/>
      <point x="291" y="94"/>
      <point x="403" y="34"/>
      <point x="483" y="34" type="qcurve" smooth="yes"/>
      <point x="558" y="34"/>
      <point x="685" y="85"/>
      <point x="737.5" y="129.0" type="qcurve" smooth="yes" name="inserted"/>
      <point x="790" y="173"/>
      <point x="874" y="289"/>
      <point x="905.5" y="354.0" type="qcurve" smooth="yes" name="inserted"/>
      <point x="937" y="419"/>
      <point x="980" y="555"/>
      <point x="992" y="619" type="qcurve" smooth="yes"/>
    </contour>
  </outline>
</glyph>
<glyph name="ae" format="2">
  <advance width="1202"/>
  <unicode hex="00E6"/>
  <outline>
    <contour>
      <point x="764" y="-20" type="qcurve" smooth="yes"/>
      <point x="710" y="-20"/>
      <point x="623" y="13"/>
      <point x="591" y="44" type="qcurve" smooth="yes"/>
      <point x="564" y="70"/>
      <point x="526" y="141"/>
      <point x="517" y="184" type="qcurve"/>
      <point x="490" y="143"/>
      <point x="423" y="70"/>
      <point x="383" y="42" type="qcurve" smooth="yes" name="inserted"/>
      <point x="343" y="13"/>
      <point x="251" y="-20"/>
      <point x="200" y="-20" type="qcurve" smooth="yes"/>
      <point x="137" y="-20"/>
      <point x="51" y="34"/>
      <point x="26" y="78" type="qcurve" smooth="yes" name="inserted"/>
      <point x="1" y="121"/>
      <point x="-14" y="229"/>
      <point x="-5" y="284" type="qcurve" smooth="yes"/>
      <point x="6" y="353"/>
      <point x="66" y="477"/>
      <point x="113" y="524" type="qcurve" smooth="yes" name="inserted"/>
      <point x="159" y="571"/>
      <point x="281" y="628"/>
      <point x="354" y="630" type="qcurve" smooth="yes"/>
      <point x="551" y="630" type="line"/>
      <point x="584" y="820" type="line" smooth="yes"/>
      <point x="592" y="867"/>
      <point x="585" y="950"/>
      <point x="567" y="981" type="qcurve" smooth="yes" name="inserted"/>
      <point x="549" y="1011"/>
      <point x="479" y="1047"/>
      <point x="425" y="1047" type="qcurve" smooth="yes"/>
      <point x="375" y="1048"/>
      <point x="287" y="1017"/>
      <point x="252" y="989" type="qcurve" smooth="yes" name="inserted"/>
      <point x="217" y="960"/>
      <point x="170" y="880"/>
      <point x="160" y="831" type="qcurve"/>
      <point x="108" y="832" type="line"/>
      <point x="118" y="892"/>
      <point x="174" y="991"/>
      <point x="216" y="1027" type="qcurve" smooth="yes" name="inserted"/>
      <point x="257" y="1062"/>
      <point x="363" y="1102"/>
      <point x="425" y="1102" type="qcurve" smooth="yes"/>
      <point x="525" y="1102"/>
      <point x="640" y="996"/>
      <point x="640" y="896" type="qcurve"/>
      <point x="690" y="987"/>
      <point x="844" y="1102"/>
      <point x="938" y="1102" type="qcurve" smooth="yes"/>
      <point x="1017" y="1102"/>
      <point x="1116" y="1031"/>
      <point x="1141" y="975" type="qcurve" smooth="yes" name="inserted"/>
      <point x="1165" y="919"/>
      <point x="1173" y="784"/>
      <point x="1163" y="720" type="qcurve" smooth="yes"/>
      <point x="1136" y="577" type="line"/>
      <point x="597" y="577" type="line"/>
      <point x="566" y="400" type="line" smooth="yes"/>
      <point x="556" y="341"/>
      <point x="559" y="213"/>
      <point x="580" y="159" type="qcurve" smooth="yes" name="inserted"/>
      <point x="600" y="105"/>
      <point x="688" y="35"/>
      <point x="764" y="35" type="qcurve" smooth="yes"/>
      <point x="802" y="35"/>
      <point x="871" y="56"/>
      <point x="903" y="74" type="qcurve" smooth="yes" name="inserted"/>
      <point x="934" y="92"/>
      <point x="992" y="138"/>
      <point x="1018" y="164" type="qcurve"/>
      <point x="1041" y="120" type="line"/>
      <point x="1015" y="92"/>
      <point x="957" y="43"/>
      <point x="926" y="25" type="qcurve" smooth="yes"/>
      <point x="890" y="4"/>
      <point x="809" y="-20"/>
    </contour>
    <contour>
      <point x="938" y="1048" type="qcurve" smooth="yes"/>
      <point x="860" y="1048"/>
      <point x="748" y="969"/>
      <point x="709.0" y="909.0" type="qcurve" smooth="yes" name="inserted"/>
      <point x="670" y="849"/>
      <point x="621" y="708"/>
      <point x="606" y="645" type="qcurve" smooth="yes"/>
      <point x="603" y="632" type="line"/>
      <point x="1096" y="632" type="line"/>
      <point x="1111" y="724" type="line" smooth="yes"/>
      <point x="1118" y="775"/>
      <point x="1116" y="889"/>
      <point x="1098.5" y="937.0" type="qcurve" smooth="yes" name="inserted"/>
      <point x="1081" y="985"/>
      <point x="1005" y="1048"/>
    </contour>
    <contour>
      <point x="199" y="32" type="qcurve" smooth="yes"/>
      <point x="245" y="32"/>
      <point x="329" y="65"/>
      <point x="365.0" y="91.5" type="qcurve" smooth="yes" name="inserted"/>
      <point x="401" y="118"/>
      <point x="460" y="188"/>
      <point x="481" y="226" type="qcurve"/>
      <point x="541" y="575" type="line"/>
      <point x="356" y="575" type="line" smooth="yes"/>
      <point x="294" y="573"/>
      <point x="191" y="524"/>
      <point x="151.5" y="483.5" type="qcurve" smooth="yes" name="inserted"/>
      <point x="112" y="443"/>
      <point x="59" y="338"/>
      <point x="48" y="280" type="qcurve" smooth="yes"/>
      <point x="40" y="237"/>
      <point x="47" y="149"/>
      <point x="64.0" y="113.0" type="qcurve" smooth="yes" name="inserted"/>
      <point x="81" y="77"/>
      <point x="147" y="32"/>
    </contour>
  </outline>
</glyph>
<glyph name="eth" format="2">
  <advance width="1202"/>
  <unicode hex="00F0"/>
  <outline>
    <contour>
      <point x="985.0" y="973.0" type="qcurve" smooth="yes" name="inserted"/>
      <point x="1001" y="886"/>
      <point x="998" y="706"/>
      <point x="983" y="615" type="qcurve" smooth="yes"/>
      <point x="970" y="535" type="line" smooth="yes"/>
      <point x="958" y="467"/>
      <point x="909" y="332"/>
      <point x="873.0" y="270.0" type="qcurve" smooth="yes" name="inserted"/>
      <point x="837" y="208"/>
      <point x="743" y="103"/>
      <point x="686.0" y="64.0" type="qcurve" smooth="yes" name="inserted"/>
      <point x="629" y="25"/>
      <point x="495" y="-20"/>
      <point x="420" y="-20" type="qcurve" smooth="yes"/>
      <point x="322" y="-20"/>
      <point x="178" y="66"/>
      <point x="134.0" y="135.0" type="qcurve" smooth="yes" name="inserted"/>
      <point x="90" y="204"/>
      <point x="58" y="378"/>
      <point x="72" y="465" type="qcurve" smooth="yes"/>
      <point x="88" y="566"/>
      <point x="181" y="744"/>
      <point x="251.0" y="810.0" type="qcurve" smooth="yes" name="inserted"/>
      <point x="321" y="876"/>
      <point x="502" y="953"/>
      <point x="608" y="953" type="qcurve" smooth="yes"/>
      <point x="659" y="953"/>
      <point x="758" y="932"/>
      <point x="801.5" y="910.0" type="qcurve" smooth="yes" name="inserted"/>
      <point x="845" y="888"/>
      <point x="918" y="821"/>
      <point x="944" y="776" type="qcurve"/>
      <point x="951" y="913"/>
      <point x="881" y="1165"/>
      <point x="796" y="1273" type="qcurve"/>
      <point x="545" y="1149" type="line"/>
      <point x="522" y="1199" type="line"/>
      <point x="756" y="1315" type="line"/>
      <point x="687" y="1388"/>
      <point x="518" y="1490"/>
      <point x="425" y="1528" type="qcurve"/>
      <point x="451" y="1576" type="line"/>
      <point x="551" y="1534"/>
      <point x="731" y="1421"/>
      <point x="806" y="1342" type="qcurve"/>
      <point x="1047" y="1461" type="line"/>
      <point x="1071" y="1411" type="line"/>
      <point x="846" y="1300" type="line"/>
      <point x="901" y="1224"/>
      <point x="969" y="1060"/>
    </contour>
    <contour>
      <point x="661.5" y="113.0" type="qcurve" smooth="yes" name="inserted"/>
      <point x="712" y="148"/>
      <point x="795" y="243"/>
      <point x="827.0" y="298.5" type="qcurve" smooth="yes" name="inserted"/>
      <point x="859" y="354"/>
      <point x="903" y="474"/>
      <point x="915" y="535" type="qcurve" smooth="yes"/>
      <point x="930" y="617" type="line"/>
      <point x="940" y="682" type="line"/>
      <point x="924" y="735"/>
      <point x="856" y="815"/>
      <point x="811.0" y="841.5" type="qcurve" smooth="yes" name="inserted"/>
      <point x="766" y="868"/>
      <point x="661" y="895"/>
      <point x="608" y="895" type="qcurve" smooth="yes"/>
      <point x="515" y="895"/>
      <point x="353" y="828"/>
      <point x="290.5" y="769.5" type="qcurve" smooth="yes" name="inserted"/>
      <point x="228" y="711"/>
      <point x="144" y="554"/>
      <point x="128" y="465" type="qcurve" smooth="yes"/>
      <point x="114" y="389"/>
      <point x="139" y="237"/>
      <point x="176.5" y="175.5" type="qcurve" smooth="yes" name="inserted"/>
      <point x="214" y="114"/>
      <point x="338" y="38"/>
      <point x="424" y="38" type="qcurve" smooth="yes"/>
      <point x="492" y="38"/>
      <point x="611" y="78"/>
    </contour>
  </outline>
</glyph>
<glyph name="divide" format="2">
  <advance width="1202"/>
  <unicode hex="00F7"/>
  <outline>
    <contour>
      <point x="1097" y="686" type="line"/>
      <point x="127" y="686" type="line"/>
      <point x="134" y="738" type="line"/>
      <point x="1104" y="738" type="line"/>
    </contour>
    <contour>
      <point x="636" y="1081" type="qcurve" smooth="yes"/>
      <point x="637.8827855599338" y="1099.827855599338"/>
      <point x="676.6722206911154" y="1135.0"/>
      <point x="698" y="1135" type="qcurve" smooth="yes"/>
      <point x="719" y="1134"/>
      <point x="749" y="1098"/>
      <point x="746" y="1077" type="qcurve"/>
      <point x="741.8877645818853" y="1056.438822909426"/>
      <point x="702.46864152948" y="1024.0"/>
      <point x="683" y="1024" type="qcurve" smooth="yes"/>
      <point x="662" y="1025"/>
      <point x="633" y="1060"/>
    </contour>
    <contour>
      <point x="502" y="303" type="qcurve"/>
      <point x="503.8827855599337" y="321.8278555993377"/>
      <point x="541.6722206911154" y="357.0"/>
      <point x="563" y="357" type="qcurve" smooth="yes"/>
      <point x="584" y="356"/>
      <point x="614" y="320"/>
      <point x="611" y="299" type="qcurve"/>
      <point x="606.8877645818853" y="278.4388229094262"/>
      <point x="567.46864152948" y="246.0"/>
      <point x="548" y="246" type="qcurve" smooth="yes"/>
      <point x="527" y="247"/>
      <point x="498" y="282"/>
    </contour>
  </outline>
</glyph>
<glyph name="oslash" format="2">
  <advance width="1202"/>
  <unicode hex="00F8"/>
  <outline>
    <contour>
      <point x="129" y="562" type="line" smooth="yes"/>
      <point x="148" y="663"/>
      <point x="241" y="857"/>
      <point x="311.5" y="933.0" type="qcurve" smooth="yes" name="inserted"/>
      <point x="382" y="1009"/>
      <point x="567" y="1102"/>
      <point x="678" y="1102" type="qcurve" smooth="yes"/>
      <point x="728" y="1102"/>
      <point x="813" y="1081"/>
      <point x="850" y="1062" type="qcurve"/>
      <point x="950" y="1218" type="line"/>
      <point x="1014" y="1218" type="line"/>
      <point x="895" y="1034" type="line"/>
      <point x="945" y="997"/>
      <point x="1014" y="891"/>
      <point x="1033.0" y="828.5" type="qcurve" smooth="yes" name="inserted"/>
      <point x="1052" y="766"/>
      <point x="1060" y="629"/>
      <point x="1050" y="562" type="qcurve" smooth="yes"/>
      <point x="1043" y="520" type="line" smooth="yes"/>
      <point x="1025" y="419"/>
      <point x="932" y="225"/>
      <point x="861.5" y="149.0" type="qcurve" smooth="yes" name="inserted"/>
      <point x="791" y="73"/>
      <point x="606" y="-20"/>
      <point x="495" y="-20" type="qcurve" smooth="yes"/>
      <point x="423" y="-20"/>
      <point x="310" y="21"/>
      <point x="266" y="56" type="qcurve"/>
      <point x="137" y="-144" type="line"/>
      <point x="72" y="-144" type="line"/>
      <point x="226" y="95" type="line"/>
      <point x="190" y="135"/>
      <point x="142" y="234"/>
      <point x="129.5" y="289.0" type="qcurve" smooth="yes" name="inserted"/>
      <point x="117" y="344"/>
      <point x="113" y="462"/>
      <point x="122" y="520" type="qcurve" smooth="yes"/>
    </contour>
    <contour>
      <point x="176" y="520" type="line" smooth="yes"/>
      <point x="168" y="470"/>
      <point x="169" y="367"/>
      <point x="178.5" y="318.0" type="qcurve" smooth="yes" name="inserted"/>
      <point x="188" y="269"/>
      <point x="227" y="179"/>
      <point x="257" y="143" type="qcurve"/>
      <point x="820" y="1016" type="line"/>
      <point x="790" y="1031"/>
      <point x="719" y="1048"/>
      <point x="678" y="1048" type="qcurve" smooth="yes"/>
      <point x="580" y="1048"/>
      <point x="414" y="963"/>
      <point x="350.5" y="894.0" type="qcurve" smooth="yes" name="inserted"/>
      <point x="287" y="825"/>
      <point x="202" y="651"/>
      <point x="184" y="562" type="qcurve" smooth="yes"/>
    </contour>
    <contour>
      <point x="996" y="562" type="line" smooth="yes"/>
      <point x="1005" y="621"/>
      <point x="1000" y="743"/>
      <point x="984.0" y="799.5" type="qcurve" smooth="yes" name="inserted"/>
      <point x="968" y="856"/>
      <point x="909" y="953"/>
      <point x="865" y="987" type="qcurve"/>
      <point x="296" y="103" type="line"/>
      <point x="334" y="71"/>
      <point x="432" y="34"/>
      <point x="495" y="34" type="qcurve" smooth="yes"/>
      <point x="594" y="34"/>
      <point x="759" y="119"/>
      <point x="822.5" y="188.0" type="qcurve" smooth="yes" name="inserted"/>
      <point x="886" y="257"/>
      <point x="970" y="431"/>
      <point x="988" y="520" type="qcurve" smooth="yes"/>
    </contour>
  </outline>
</glyph>
<glyph name="thorn" format="2">
  <advance width="1202"/>
  <unicode hex="00FE"/>
  <outline>
    <contour>
      <point x="701" y="25" type="qcurve" smooth="yes"/>
      <point x="662" y="4"/>
      <point x="572" y="-20"/>
      <point x="522" y="-20" type="qcurve" smooth="yes"/>
      <point x="472" y="-20"/>
      <point x="375" y="3"/>
      <point x="332" y="26" type="qcurve" smooth="yes" name="inserted"/>
      <point x="288" y="48"/>
      <point x="217" y="116"/>
      <point x="193" y="161" type="qcurve"/>
      <point x="92" y="-416" type="line"/>
      <point x="38" y="-416" type="line"/>
      <point x="374" y="1536" type="line"/>
      <point x="428" y="1536" type="line"/>
      <point x="314" y="898" type="line"/>
      <point x="350" y="942"/>
      <point x="437" y="1017"/>
      <point x="487" y="1044" type="qcurve" smooth="yes" name="inserted"/>
      <point x="536" y="1071"/>
      <point x="646" y="1102"/>
      <point x="704" y="1102" type="qcurve" smooth="yes"/>
      <point x="778" y="1102"/>
      <point x="886" y="1053"/>
      <point x="924" y="1011" type="qcurve" smooth="yes" name="inserted"/>
      <point x="961" y="969"/>
      <point x="1004" y="859"/>
      <point x="1013" y="798" type="qcurve" smooth="yes" name="inserted"/>
      <point x="1022" y="737"/>
      <point x="1019" y="610"/>
      <point x="1010" y="552" type="qcurve" smooth="yes"/>
      <point x="1007" y="531" type="line" smooth="yes"/>
      <point x="996" y="469"/>
      <point x="955" y="339"/>
      <point x="926" y="278" type="qcurve" smooth="yes" name="inserted"/>
      <point x="906" y="238"/>
      <point x="857" y="162"/>
      <point x="829" y="129" type="qcurve" smooth="yes"/>
      <point x="800.0874534334987" y="98.15995032906534"/>
      <point x="736.3287796221283" y="43.70347156465618"/>
    </contour>
    <contour>
      <point x="522" y="34" type="qcurve" smooth="yes"/>
      <point x="587" y="35"/>
      <point x="695" y="78"/>
      <point x="739.5" y="115.0" type="qcurve" smooth="yes" name="inserted"/>
      <point x="784" y="152"/>
      <point x="853" y="250"/>
      <point x="879.0" y="305.0" type="qcurve" smooth="yes" name="inserted"/>
      <point x="905" y="360"/>
      <point x="941" y="476"/>
      <point x="951" y="531" type="qcurve" smooth="yes"/>
      <point x="955" y="552" type="line" smooth="yes"/>
      <point x="963" y="601"/>
      <point x="969" y="713"/>
      <point x="963.5" y="768.0" type="qcurve" smooth="yes" name="inserted"/>
      <point x="958" y="823"/>
      <point x="925" y="924"/>
      <point x="894.5" y="962.5" type="qcurve" smooth="yes" name="inserted"/>
      <point x="864" y="1001"/>
      <point x="772" y="1047"/>
      <point x="706" y="1048" type="qcurve" smooth="yes"/>
      <point x="641" y="1048"/>
      <point x="521" y="1008"/>
      <point x="468.5" y="973.0" type="qcurve" smooth="yes" name="inserted"/>
      <point x="416" y="938"/>
      <point x="331" y="843"/>
      <point x="300" y="788" type="qcurve"/>
      <point x="206" y="258" type="line"/>
      <point x="219" y="204"/>
      <point x="280" y="120"/>
      <point x="322.5" y="91.5" type="qcurve" smooth="yes" name="inserted"/>
      <point x="365" y="63"/>
      <point x="468" y="34"/>
    </contour>
  </outline>
</glyph>
<glyph name="aogonek" format="2">
  <advance width="1202"/>
  <unicode hex="0105"/>
  <outline>
    <contour>
      <point x="855" y="21" type="qcurve"/>
      <point x="854" y="69"/>
      <point x="865" y="155"/>
      <point x="874" y="202" type="qcurve"/>
      <point x="831" y="150"/>
      <point x="726" y="67"/>
      <point x="666.5" y="38.5" type="qcurve" smooth="yes" name="inserted"/>
      <point x="607" y="10"/>
      <point x="477" y="-21"/>
      <point x="409" y="-20" type="qcurve" smooth="yes"/>
      <point x="346" y="-19"/>
      <point x="232" y="22"/>
      <point x="191.5" y="60.0" type="qcurve" smooth="yes" name="inserted"/>
      <point x="151" y="98"/>
      <point x="110" y="206"/>
      <point x="121" y="274" type="qcurve" smooth="yes"/>
      <point x="131" y="339"/>
      <point x="190" y="438"/>
      <point x="233.5" y="474.5" type="qcurve" smooth="yes" name="inserted"/>
      <point x="277" y="511"/>
      <point x="384" y="560"/>
      <point x="442.0" y="575.0" type="qcurve" smooth="yes" name="inserted"/>
      <point x="500" y="590"/>
      <point x="620" y="603"/>
      <point x="676" y="604" type="qcurve" smooth="yes"/>
      <point x="939" y="604" type="line"/>
      <point x="967" y="762" type="line" smooth="yes"/>
      <point x="977" y="831"/>
      <point x="942" y="937"/>
      <point x="904.0" y="973.5" type="qcurve" smooth="yes" name="inserted"/>
      <point x="866" y="1010"/>
      <point x="755" y="1048"/>
      <point x="690" y="1048" type="qcurve" smooth="yes"/>
      <point x="625" y="1048"/>
      <point x="500" y="1014"/>
      <point x="446.5" y="980.5" type="qcurve" smooth="yes" name="inserted"/>
      <point x="393" y="947"/>
      <point x="313" y="849"/>
      <point x="294" y="785" type="qcurve"/>
      <point x="240" y="787" type="line"/>
      <point x="259" y="862"/>
      <point x="348" y="979"/>
      <point x="409.0" y="1019.0" type="qcurve" smooth="yes" name="inserted"/>
      <point x="470" y="1059"/>
      <point x="614" y="1102"/>
      <point x="689" y="1102" type="qcurve" smooth="yes"/>
      <point x="765" y="1102"/>
      <point x="896" y="1056"/>
      <point x="942.0" y="1011.5" type="qcurve" smooth="yes" name="inserted"/>
      <point x="988" y="967"/>
      <point x="1031" y="840"/>
      <point x="1020" y="760" type="qcurve" smooth="yes"/>
      <point x="926" y="218" type="line" smooth="yes"/>
      <point x="918" y="165"/>
      <point x="919" y="62"/>
      <point x="919" y="9" type="qcurve"/>
      <point x="918" y="0" type="line"/>
      <point x="898" y="0" type="line"/>
      <point x="895" y="-2" type="line"/>
      <point x="863" y="-24"/>
      <point x="787" y="-74"/>
      <point x="753.0" y="-103.5" type="qcurve" smooth="yes" name="inserted"/>
      <point x="719" y="-133"/>
      <point x="668" y="-204"/>
      <point x="662" y="-246" type="qcurve" smooth="yes"/>
      <point x="656" y="-288"/>
      <point x="699" y="-338"/>
      <point x="741" y="-340" type="qcurve" smooth="yes"/>
      <point x="774" y="-342"/>
      <point x="833" y="-318"/>
      <point x="862" y="-303" type="qcurve"/>
      <point x="872" y="-352" type="line"/>
      <point x="841" y="-370"/>
      <point x="776" y="-395"/>
      <point x="740" y="-395" type="qcurve" smooth="yes"/>
      <point x="707" y="-395"/>
      <point x="655" y="-372"/>
      <point x="637.5" y="-352.5" type="qcurve" smooth="yes" name="inserted"/>
      <point x="620" y="-333"/>
      <point x="604" y="-278"/>
      <point x="609" y="-246" type="qcurve" smooth="yes"/>
      <point x="615" y="-200"/>
      <point x="667" y="-123"/>
      <point x="702.0" y="-91.0" type="qcurve" smooth="yes" name="inserted"/>
      <point x="737.0" y="-59.0"/>
      <point x="819" y="-2"/>
    </contour>
    <contour>
      <point x="408" y="33" type="qcurve" smooth="yes"/>
      <point x="481" y="31"/>
      <point x="618" y="68"/>
      <point x="678.5" y="102.5" type="qcurve" smooth="yes" name="inserted"/>
      <point x="739" y="137"/>
      <point x="843" y="234"/>
      <point x="884" y="293" type="qcurve"/>
      <point x="930" y="549" type="line"/>
      <point x="679" y="549" type="line" smooth="yes"/>
      <point x="631" y="549"/>
      <point x="525" y="538"/>
      <point x="472.0" y="526.0" type="qcurve" smooth="yes" name="inserted"/>
      <point x="419" y="514"/>
      <point x="321" y="474"/>
      <point x="280.5" y="443.0" type="qcurve" smooth="yes" name="inserted"/>
      <point x="240" y="412"/>
      <point x="184" y="327"/>
      <point x="174" y="270" type="qcurve" smooth="yes"/>
      <point x="164" y="215"/>
      <point x="198" y="128"/>
      <point x="231.5" y="97.5" type="qcurve" smooth="yes" name="inserted"/>
      <point x="265" y="67"/>
      <point x="358" y="34"/>
    </contour>
  </outline>
</glyph>
<glyph name="Dcroat" format="2">
  <advance width="1232"/>
  <unicode hex="0110"/>
  <outline>
    <contour>
      <point x="119" y="0" type="line"/>
      <point x="243" y="713" type="line"/>
      <point x="-23" y="713" type="line"/>
      <point x="-15" y="767" type="line"/>
      <point x="252" y="767" type="line"/>
      <point x="372" y="1456" type="line"/>
      <point x="723" y="1456" type="line" smooth="yes"/>
      <point x="807" y="1454"/>
      <point x="941" y="1398"/>
      <point x="992" y="1352" type="qcurve" smooth="yes" name="inserted"/>
      <point x="1043" y="1305"/>
      <point x="1112" y="1181"/>
      <point x="1131" y="1111" type="qcurve" smooth="yes" name="inserted"/>
      <point x="1150" y="1041"/>
      <point x="1156" y="890"/>
      <point x="1145" y="817" type="qcurve" smooth="yes"/>
      <point x="1115" y="639" type="line" smooth="yes"/>
      <point x="1092.9104279179558" y="517.507353548757"/>
      <point x="976.3799379567175" y="281.11056101786494"/>
      <point x="889" y="191" type="qcurve" smooth="yes"/>
      <point x="810.5785983227581" y="109.31103991953962"/>
      <point x="602.4852528073177" y="2.8820059484074756"/>
      <point x="480" y="0" type="qcurve" smooth="yes"/>
    </contour>
    <contour>
      <point x="548" y="713" type="line"/>
      <point x="295" y="713" type="line"/>
      <point x="181" y="54" type="line"/>
      <point x="480" y="54" type="line" smooth="yes"/>
      <point x="592.5753420079953" y="56.92403485735052"/>
      <point x="784.2183282004152" y="156.88948717436438"/>
      <point x="857" y="236" type="qcurve" smooth="yes"/>
      <point x="933.5767984401718" y="318.2491538801847"/>
      <point x="1038.375465703858" y="530.8773285192912"/>
      <point x="1060" y="639" type="qcurve" smooth="yes"/>
      <point x="1092" y="820" type="line" smooth="yes"/>
      <point x="1102" y="885"/>
      <point x="1098" y="1021"/>
      <point x="1083" y="1085" type="qcurve" smooth="yes" name="inserted"/>
      <point x="1067" y="1149"/>
      <point x="1008" y="1262"/>
      <point x="964" y="1305" type="qcurve" smooth="yes" name="inserted"/>
      <point x="919" y="1348"/>
      <point x="799" y="1400"/>
      <point x="723" y="1402" type="qcurve" smooth="yes"/>
      <point x="415" y="1402" type="line"/>
      <point x="305" y="767" type="line"/>
      <point x="556" y="767" type="line"/>
    </contour>
  </outline>
</glyph>
<glyph name="dcroat" format="2">
  <advance width="1202"/>
  <unicode hex="0111"/>
  <outline>
    <contour>
      <point x="1258" y="1281" type="line"/>
      <point x="1078" y="1281" type="line"/>
      <point x="858" y="0" type="line"/>
      <point x="804" y="0" type="line"/>
      <point x="835" y="162" type="line"/>
      <point x="801" y="122"/>
      <point x="718" y="55"/>
      <point x="671" y="31.0" type="qcurve" smooth="yes" name="inserted"/>
      <point x="623" y="7"/>
      <point x="521" y="-20"/>
      <point x="467" y="-20" type="qcurve" smooth="yes"/>
      <point x="392" y="-20"/>
      <point x="281" y="28"/>
      <point x="242.0" y="70" type="qcurve" smooth="yes" name="inserted"/>
      <point x="203" y="111"/>
      <point x="155" y="220"/>
      <point x="144.0" y="282" type="qcurve" smooth="yes" name="inserted"/>
      <point x="133" y="343"/>
      <point x="134" y="471"/>
      <point x="143" y="531" type="qcurve" smooth="yes"/>
      <point x="147" y="552" type="line" smooth="yes"/>
      <point x="158" y="617"/>
      <point x="201" y="749"/>
      <point x="233" y="810.0" type="qcurve" smooth="yes" name="inserted"/>
      <point x="264" y="871"/>
      <point x="347" y="978"/>
      <point x="400" y="1018" type="qcurve" smooth="yes" name="inserted"/>
      <point x="452" y="1057"/>
      <point x="578" y="1102"/>
      <point x="653" y="1102" type="qcurve" smooth="yes"/>
      <point x="704" y="1102"/>
      <point x="797" y="1072"/>
      <point x="836.0" y="1045.0" type="qcurve" smooth="yes" name="inserted"/>
      <point x="875" y="1018"/>
      <point x="936" y="942"/>
      <point x="956" y="896" type="qcurve"/>
      <point x="1023" y="1281" type="line"/>
      <point x="687" y="1281" type="line"/>
      <point x="695" y="1335" type="line"/>
      <point x="1033" y="1335" type="line"/>
      <point x="1068" y="1536" type="line"/>
      <point x="1122" y="1536" type="line"/>
      <point x="1087" y="1335" type="line"/>
      <point x="1266" y="1335" type="line"/>
    </contour>
    <contour>
      <point x="199" y="531" type="line" smooth="yes"/>
      <point x="190" y="479"/>
      <point x="185" y="365"/>
      <point x="193" y="310.0" type="qcurve" smooth="yes" name="inserted"/>
      <point x="200" y="255"/>
      <point x="236" y="156"/>
      <point x="269" y="118.0" type="qcurve" smooth="yes" name="inserted"/>
      <point x="301" y="80"/>
      <point x="398" y="35"/>
      <point x="465" y="34" type="qcurve" smooth="yes"/>
      <point x="523" y="34"/>
      <point x="634" y="66"/>
      <point x="684" y="96" type="qcurve" smooth="yes" name="inserted"/>
      <point x="733" y="125"/>
      <point x="816" y="206"/>
      <point x="846" y="255" type="qcurve"/>
      <point x="941" y="790" type="line"/>
      <point x="932" y="845"/>
      <point x="883" y="940"/>
      <point x="846" y="975" type="qcurve" smooth="yes" name="inserted"/>
      <point x="808" y="1009"/>
      <point x="711" y="1048"/>
      <point x="653" y="1048" type="qcurve" smooth="yes"/>
      <point x="553" y="1048"/>
      <point x="400" y="958"/>
      <point x="345" y="887" type="qcurve" smooth="yes" name="inserted"/>
      <point x="289" y="815"/>
      <point x="219" y="638"/>
      <point x="203" y="552" type="qcurve" smooth="yes"/>
    </contour>
  </outline>
</glyph>
<glyph name="eogonek" format="2">
  <advance width="1202"/>
  <unicode hex="0119"/>
  <outline>
    <contour>
      <point x="925" y="152" type="line"/>
      <point x="894.0" y="121.0"/>
      <point x="831.0" y="68.0"/>
      <point x="796" y="48" type="qcurve"/>
      <point x="764" y="26"/>
      <point x="688" y="-24"/>
      <point x="654" y="-53" type="qcurve" smooth="yes" name="inserted"/>
      <point x="620" y="-83"/>
      <point x="569" y="-154"/>
      <point x="563" y="-196" type="qcurve" smooth="yes"/>
      <point x="557" y="-238"/>
      <point x="600" y="-288"/>
      <point x="642" y="-290" type="qcurve" smooth="yes"/>
      <point x="675" y="-292"/>
      <point x="734" y="-268"/>
      <point x="763" y="-253" type="qcurve"/>
      <point x="773" y="-302" type="line"/>
      <point x="742" y="-320"/>
      <point x="677" y="-345"/>
      <point x="641" y="-345" type="qcurve" smooth="yes"/>
      <point x="608" y="-345"/>
      <point x="556" y="-322"/>
      <point x="539" y="-302" type="qcurve" smooth="yes" name="inserted"/>
      <point x="521" y="-283"/>
      <point x="505" y="-228"/>
      <point x="510" y="-196" type="qcurve" smooth="yes"/>
      <point x="518" y="-138"/>
      <point x="592" y="-47"/>
      <point x="640" y="-9" type="qcurve"/>
      <point x="614" y="-14"/>
      <point x="563" y="-20"/>
      <point x="536" y="-20" type="qcurve" smooth="yes"/>
      <point x="424.1861434925318" y="-20.0"/>
      <point x="258.7430655397677" y="82.3643626403826"/>
      <point x="211" y="161" type="qcurve" smooth="yes"/>
      <point x="167.04964800030461" y="233.2041497137853"/>
      <point x="129.32559750878974" y="422.6163838071334"/>
      <point x="144" y="518" type="qcurve" smooth="yes"/>
      <point x="152" y="562" type="line" smooth="yes"/>
      <point x="164" y="628"/>
      <point x="214" y="759"/>
      <point x="251" y="819" type="qcurve" smooth="yes" name="inserted"/>
      <point x="288" y="879"/>
      <point x="383" y="983"/>
      <point x="440" y="1021" type="qcurve" smooth="yes" name="inserted"/>
      <point x="497" y="1059"/>
      <point x="627" y="1102"/>
      <point x="700" y="1102" type="qcurve" smooth="yes"/>
      <point x="796" y="1102"/>
      <point x="936" y="1023"/>
      <point x="980" y="958" type="qcurve" smooth="yes" name="inserted"/>
      <point x="1023" y="893"/>
      <point x="1054" y="727"/>
      <point x="1042" y="640" type="qcurve" smooth="yes"/>
      <point x="1032" y="577" type="line"/>
      <point x="211" y="577" type="line"/>
      <point x="208" y="562" type="line"/>
      <point x="205" y="547"/>
      <point x="202" y="533"/>
      <point x="199" y="518" type="qcurve" smooth="yes"/>
      <point x="184" y="432"/>
      <point x="212" y="259"/>
      <point x="255" y="190" type="qcurve" smooth="yes" name="inserted"/>
      <point x="298" y="121"/>
      <point x="439" y="34"/>
      <point x="535" y="33" type="qcurve" smooth="yes"/>
      <point x="638" y="32"/>
      <point x="814" y="112"/>
      <point x="888" y="181" type="qcurve"/>
    </contour>
    <contour>
      <point x="701" y="1048" type="qcurve" smooth="yes"/>
      <point x="611" y="1048"/>
      <point x="459" y="976"/>
      <point x="398.5" y="917.5" type="qcurve" smooth="yes" name="inserted"/>
      <point x="338" y="859"/>
      <point x="249" y="709"/>
      <point x="221" y="631" type="qcurve"/>
      <point x="983" y="631" type="line"/>
      <point x="986" y="644" type="line" smooth="yes"/>
      <point x="1001" y="717"/>
      <point x="976" y="862"/>
      <point x="939.5" y="919.0" type="qcurve" smooth="yes" name="inserted"/>
      <point x="903" y="976"/>
      <point x="782" y="1048"/>
    </contour>
  </outline>
</glyph>
<glyph name="hbar" format="2">
  <advance width="1202"/>
  <unicode hex="0127"/>
  <outline>
    <contour>
      <point x="695" y="1281" type="line"/>
      <point x="392" y="1281" type="line"/>
      <point x="310" y="821" type="line"/>
      <point x="346" y="879"/>
      <point x="439" y="981"/>
      <point x="495" y="1019.0" type="qcurve" smooth="yes" name="inserted"/>
      <point x="550" y="1057"/>
      <point x="678" y="1102"/>
      <point x="749" y="1102" type="qcurve" smooth="yes"/>
      <point x="838" y="1102"/>
      <point x="959" y="1036"/>
      <point x="994" y="981" type="qcurve" smooth="yes" name="inserted"/>
      <point x="1028" y="925"/>
      <point x="1047" y="779"/>
      <point x="1035" y="700" type="qcurve" smooth="yes"/>
      <point x="915" y="0" type="line"/>
      <point x="860" y="0" type="line"/>
      <point x="981" y="700" type="line" smooth="yes"/>
      <point x="992" y="767"/>
      <point x="981" y="894"/>
      <point x="954.0" y="943" type="qcurve" smooth="yes" name="inserted"/>
      <point x="927" y="991"/>
      <point x="826" y="1050"/>
      <point x="747" y="1049" type="qcurve" smooth="yes"/>
      <point x="676" y="1048"/>
      <point x="533" y="991"/>
      <point x="471" y="943.0" type="qcurve" smooth="yes" name="inserted"/>
      <point x="408" y="895"/>
      <point x="315" y="770"/>
      <point x="294" y="702" type="qcurve"/>
      <point x="173" y="0" type="line"/>
      <point x="118" y="0" type="line"/>
      <point x="339" y="1281" type="line"/>
      <point x="124" y="1281" type="line"/>
      <point x="132" y="1335" type="line"/>
      <point x="348" y="1335" type="line"/>
      <point x="383" y="1536" type="line"/>
      <point x="437" y="1536" type="line"/>
      <point x="401" y="1335" type="line"/>
      <point x="703" y="1335" type="line"/>
    </contour>
  </outline>
</glyph>
<glyph name="Iogonek" format="2">
  <advance width="1202"/>
  <unicode hex="012E"/>
  <outline>
    <contour>
      <point x="353" y="1456" type="line"/>
      <point x="1136" y="1456" type="line"/>
      <point x="1128" y="1400" type="line"/>
      <point x="758" y="1400" type="line"/>
      <point x="524" y="54" type="line"/>
      <point x="893" y="54" type="line"/>
      <point x="885" y="0" type="line"/>
      <point x="746" y="0" type="line"/>
      <point x="750" y="-2" type="line"/>
      <point x="718" y="-24"/>
      <point x="642" y="-74"/>
      <point x="608.0" y="-103.5" type="qcurve" smooth="yes" name="inserted"/>
      <point x="574" y="-133"/>
      <point x="523" y="-204"/>
      <point x="517" y="-246" type="qcurve" smooth="yes"/>
      <point x="511" y="-288"/>
      <point x="554" y="-338"/>
      <point x="596" y="-340" type="qcurve" smooth="yes"/>
      <point x="629" y="-342"/>
      <point x="688" y="-318"/>
      <point x="717" y="-303" type="qcurve"/>
      <point x="727" y="-352" type="line"/>
      <point x="696" y="-370"/>
      <point x="631" y="-395"/>
      <point x="595" y="-395" type="qcurve" smooth="yes"/>
      <point x="562" y="-395"/>
      <point x="510" y="-372"/>
      <point x="492.5" y="-352.5" type="qcurve" smooth="yes" name="inserted"/>
      <point x="475" y="-333"/>
      <point x="459" y="-278"/>
      <point x="464" y="-246" type="qcurve" smooth="yes"/>
      <point x="470" y="-205"/>
      <point x="513" y="-134"/>
      <point x="543.0" y="-104.0" type="qcurve" smooth="yes" name="inserted"/>
      <point x="573" y="-74"/>
      <point x="644" y="-22"/>
      <point x="677" y="0" type="qcurve"/>
      <point x="102" y="0" type="line"/>
      <point x="110" y="54" type="line"/>
      <point x="466" y="54" type="line"/>
      <point x="700" y="1400" type="line"/>
      <point x="345" y="1400" type="line"/>
    </contour>
  </outline>
</glyph>
<glyph name="iogonek" format="2">
  <advance width="1202"/>
  <unicode hex="012F"/>
  <outline>
    <contour>
      <point x="314" y="1082" type="line"/>
      <point x="754" y="1082" type="line"/>
      <point x="576" y="54" type="line"/>
      <point x="947" y="54" type="line"/>
      <point x="940" y="0" type="line"/>
      <point x="563" y="0" type="line"/>
      <point x="567" y="-2" type="line"/>
      <point x="535" y="-24"/>
      <point x="459" y="-74"/>
      <point x="425.0" y="-103.5" type="qcurve" smooth="yes" name="inserted"/>
      <point x="391" y="-133"/>
      <point x="340" y="-204"/>
      <point x="334" y="-246" type="qcurve" smooth="yes"/>
      <point x="328" y="-288"/>
      <point x="371" y="-338"/>
      <point x="413" y="-340" type="qcurve" smooth="yes"/>
      <point x="446" y="-342"/>
      <point x="505" y="-318"/>
      <point x="534" y="-303" type="qcurve"/>
      <point x="544" y="-352" type="line"/>
      <point x="513" y="-370"/>
      <point x="448" y="-395"/>
      <point x="412" y="-395" type="qcurve" smooth="yes"/>
      <point x="379" y="-395"/>
      <point x="327" y="-372"/>
      <point x="309.5" y="-352.5" type="qcurve" smooth="yes" name="inserted"/>
      <point x="292" y="-333"/>
      <point x="276" y="-278"/>
      <point x="281" y="-246" type="qcurve" smooth="yes"/>
      <point x="287" y="-205"/>
      <point x="330" y="-134"/>
      <point x="360.0" y="-104.0" type="qcurve" smooth="yes" name="inserted"/>
      <point x="390" y="-74"/>
      <point x="461" y="-22"/>
      <point x="494" y="0" type="qcurve"/>
      <point x="128" y="0" type="line"/>
      <point x="136" y="54" type="line"/>
      <point x="521" y="54" type="line"/>
      <point x="691" y="1028" type="line"/>
      <point x="307" y="1028" type="line"/>
    </contour>
    <contour>
      <point x="709" y="1391" type="qcurve" smooth="yes"/>
      <point x="711" y="1408"/>
      <point x="725" y="1436"/>
      <point x="736" y="1446" type="qcurve" smooth="yes"/>
      <point x="746" y="1454"/>
      <point x="772" y="1464"/>
      <point x="787" y="1464" type="qcurve" smooth="yes"/>
      <point x="804" y="1464"/>
      <point x="829" y="1452"/>
      <point x="837" y="1442" type="qcurve" smooth="yes"/>
      <point x="844" y="1432"/>
      <point x="850" y="1405"/>
      <point x="847" y="1389" type="qcurve" smooth="yes"/>
      <point x="845" y="1375"/>
      <point x="832" y="1350"/>
      <point x="823" y="1340" type="qcurve" smooth="yes"/>
      <point x="812" y="1330"/>
      <point x="784" y="1318"/>
      <point x="767" y="1319" type="qcurve" smooth="yes"/>
      <point x="751" y="1320"/>
      <point x="727" y="1331"/>
      <point x="720" y="1340" type="qcurve" smooth="yes"/>
      <point x="712" y="1350"/>
      <point x="706" y="1375"/>
    </contour>
  </outline>
</glyph>
<glyph name="ij" format="2">
  <advance width="1202"/>
  <unicode hex="0133"/>
  <outline>
    <contour>
      <point x="739" y="1082" type="line"/>
      <point x="1055" y="1082" type="line"/>
      <point x="869" y="6" type="line" smooth="yes"/>
      <point x="853" y="-83"/>
      <point x="778" y="-242"/>
      <point x="720.5" y="-302.5" type="qcurve" smooth="yes" name="inserted"/>
      <point x="663" y="-363"/>
      <point x="509" y="-436"/>
      <point x="413" y="-437" type="qcurve" smooth="yes"/>
      <point x="362" y="-438"/>
      <point x="263" y="-428"/>
      <point x="213" y="-420" type="qcurve"/>
      <point x="224" y="-373" type="line"/>
      <point x="270" y="-379"/>
      <point x="363" y="-385"/>
      <point x="409" y="-384" type="qcurve" smooth="yes"/>
      <point x="495" y="-383"/>
      <point x="631" y="-320"/>
      <point x="682.0" y="-267.0" type="qcurve" smooth="yes" name="inserted"/>
      <point x="733" y="-214"/>
      <point x="799" y="-74"/>
      <point x="814" y="6" type="qcurve" smooth="yes"/>
      <point x="991" y="1028" type="line"/>
      <point x="731" y="1028" type="line"/>
    </contour>
    <contour>
      <point x="208" y="1082" type="line"/>
      <point x="534" y="1082" type="line"/>
      <point x="356" y="54" type="line"/>
      <point x="558" y="54" type="line"/>
      <point x="551" y="0" type="line"/>
      <point x="23" y="0" type="line"/>
      <point x="30" y="54" type="line"/>
      <point x="301" y="54" type="line"/>
      <point x="470" y="1028" type="line"/>
      <point x="201" y="1028" type="line"/>
    </contour>
    <contour>
      <point x="1003" y="1392" type="qcurve" smooth="yes"/>
      <point x="1008" y="1424"/>
      <point x="1050" y="1465"/>
      <point x="1083" y="1465" type="qcurve" smooth="yes"/>
      <point x="1116" y="1465"/>
      <point x="1147" y="1421"/>
      <point x="1142" y="1390" type="qcurve" smooth="yes"/>
      <point x="1137" y="1359"/>
      <point x="1095" y="1321"/>
      <point x="1063" y="1320" type="qcurve" smooth="yes"/>
      <point x="1030" y="1320"/>
      <point x="998" y="1360"/>
    </contour>
    <contour>
      <point x="488" y="1391" type="qcurve" smooth="yes"/>
      <point x="493" y="1423"/>
      <point x="535" y="1464"/>
      <point x="567" y="1464" type="qcurve" smooth="yes"/>
      <point x="601" y="1464"/>
      <point x="632" y="1420"/>
      <point x="627" y="1389" type="qcurve" smooth="yes"/>
      <point x="622" y="1359"/>
      <point x="579" y="1318"/>
      <point x="547" y="1319" type="qcurve" smooth="yes"/>
      <point x="515" y="1321"/>
      <point x="484" y="1360"/>
    </contour>
  </outline>
</glyph>
<glyph name="Lslash" format="2">
  <advance width="1202"/>
  <unicode hex="0141"/>
  <outline>
    <contour>
      <point x="363" y="801" type="line"/>
      <point x="695" y="901" type="line"/>
      <point x="687" y="845" type="line"/>
      <point x="353" y="745" type="line"/>
      <point x="234" y="54" type="line"/>
      <point x="979" y="54" type="line"/>
      <point x="972" y="0" type="line"/>
      <point x="169" y="0" type="line"/>
      <point x="295" y="727" type="line"/>
      <point x="66" y="659" type="line"/>
      <point x="74" y="715" type="line"/>
      <point x="305" y="784" type="line"/>
      <point x="421" y="1456" type="line"/>
      <point x="476" y="1456" type="line"/>
    </contour>
  </outline>
</glyph>
<glyph name="eng" format="2">
  <advance width="1202"/>
  <unicode hex="014B"/>
  <outline>
    <contour>
      <point x="114" y="0" type="line"/>
      <point x="300" y="1082" type="line"/>
      <point x="349" y="1082" type="line"/>
      <point x="309" y="842" type="line"/>
      <point x="342" y="899"/>
      <point x="427" y="994"/>
      <point x="478" y="1029" type="qcurve" smooth="yes" name="inserted"/>
      <point x="529" y="1063"/>
      <point x="649" y="1102"/>
      <point x="717" y="1102" type="qcurve" smooth="yes"/>
      <point x="806" y="1102.0"/>
      <point x="921" y="1030"/>
      <point x="954" y="968" type="qcurve" smooth="yes"/>
      <point x="989" y="902"/>
      <point x="999" y="726"/>
      <point x="985" y="637" type="qcurve"/>
      <point x="860" y="-89" type="line" smooth="yes"/>
      <point x="848" y="-154"/>
      <point x="795" y="-278"/>
      <point x="754" y="-327" type="qcurve" smooth="yes" name="inserted"/>
      <point x="712" y="-376"/>
      <point x="599" y="-436"/>
      <point x="526" y="-437" type="qcurve" smooth="yes"/>
      <point x="493" y="-437"/>
      <point x="428" y="-424"/>
      <point x="396" y="-416" type="qcurve"/>
      <point x="415" y="-366" type="line"/>
      <point x="443" y="-374"/>
      <point x="498" y="-385"/>
      <point x="527" y="-384" type="qcurve" smooth="yes"/>
      <point x="587" y="-383"/>
      <point x="681" y="-331"/>
      <point x="716" y="-289" type="qcurve" smooth="yes" name="inserted"/>
      <point x="750" y="-247"/>
      <point x="794" y="-142"/>
      <point x="805" y="-89" type="qcurve" smooth="yes"/>
      <point x="932" y="639" type="line"/>
      <point x="944" y="716"/>
      <point x="941" y="876"/>
      <point x="908" y="941" type="qcurve" smooth="yes"/>
      <point x="883" y="990"/>
      <point x="790" y="1048.0"/>
      <point x="718" y="1048" type="qcurve" smooth="yes"/>
      <point x="637" y="1048"/>
      <point x="496" y="985"/>
      <point x="439" y="932" type="qcurve" smooth="yes" name="inserted"/>
      <point x="382" y="879"/>
      <point x="302" y="741"/>
      <point x="283" y="666" type="qcurve"/>
      <point x="167" y="0" type="line"/>
    </contour>
  </outline>
</glyph>
<glyph name="OE" format="2">
  <advance width="1202"/>
  <unicode hex="0152"/>
  <outline>
    <contour>
      <point x="1055" y="0" type="line"/>
      <point x="584" y="0" type="line"/>
      <point x="530" y="-3"/>
      <point x="422" y="-13"/>
      <point x="367" y="-11" type="qcurve" smooth="yes"/>
      <point x="290" y="-9"/>
      <point x="181" y="47"/>
      <point x="144.5" y="92.5" type="qcurve" smooth="yes" name="inserted"/>
      <point x="108" y="138"/>
      <point x="67" y="256"/>
      <point x="59.0" y="320.5" type="qcurve" smooth="yes" name="inserted"/>
      <point x="51" y="385"/>
      <point x="56" y="517"/>
      <point x="66" y="576" type="qcurve" smooth="yes"/>
      <point x="118" y="880" type="line" smooth="yes"/>
      <point x="130" y="945"/>
      <point x="170" y="1081"/>
      <point x="199.5" y="1145.0" type="qcurve" smooth="yes" name="inserted"/>
      <point x="229" y="1209"/>
      <point x="309" y="1324"/>
      <point x="359.5" y="1367.5" type="qcurve" smooth="yes" name="inserted"/>
      <point x="410" y="1411"/>
      <point x="535" y="1463"/>
      <point x="611" y="1466" type="qcurve" smooth="yes"/>
      <point x="665" y="1468"/>
      <point x="772" y="1459"/>
      <point x="827" y="1456" type="qcurve"/>
      <point x="1306" y="1456" type="line"/>
      <point x="1298" y="1402" type="line"/>
      <point x="828" y="1402" type="line"/>
      <point x="719" y="776" type="line"/>
      <point x="1124" y="776" type="line"/>
      <point x="1116" y="722" type="line"/>
      <point x="710" y="722" type="line"/>
      <point x="594" y="54" type="line"/>
      <point x="1063" y="54" type="line"/>
    </contour>
    <contour>
      <point x="367" y="43" type="qcurve" smooth="yes"/>
      <point x="411" y="41"/>
      <point x="498" y="43"/>
      <point x="542" y="47" type="qcurve"/>
      <point x="783" y="1408" type="line"/>
      <point x="741" y="1412"/>
      <point x="655" y="1414"/>
      <point x="612" y="1412" type="qcurve" smooth="yes"/>
      <point x="510" y="1407"/>
      <point x="359" y="1307"/>
      <point x="306.5" y="1230.5" type="qcurve" smooth="yes" name="inserted"/>
      <point x="254" y="1154"/>
      <point x="189" y="970"/>
      <point x="173" y="882" type="qcurve" smooth="yes"/>
      <point x="120" y="576" type="line" smooth="yes"/>
      <point x="111" y="525"/>
      <point x="103" y="407"/>
      <point x="107.5" y="349.0" type="qcurve" smooth="yes" name="inserted"/>
      <point x="112" y="291"/>
      <point x="143" y="183"/>
      <point x="173.0" y="141.0" type="qcurve" smooth="yes" name="inserted"/>
      <point x="203" y="99"/>
      <point x="298" y="46"/>
    </contour>
  </outline>
</glyph>
<glyph name="oe" format="2">
  <advance width="1202"/>
  <unicode hex="0153"/>
  <outline>
    <contour>
      <point x="410" y="1102" type="qcurve" smooth="yes"/>
      <point x="471" y="1102"/>
      <point x="561" y="1055"/>
      <point x="591.0" y="1016.0" type="qcurve" smooth="yes" name="inserted"/>
      <point x="621" y="977"/>
      <point x="653" y="876"/>
      <point x="658" y="821" type="qcurve"/>
      <point x="681" y="872"/>
      <point x="743" y="972"/>
      <point x="783.0" y="1012.0" type="qcurve" smooth="yes" name="inserted"/>
      <point x="823" y="1052"/>
      <point x="924" y="1102"/>
      <point x="986" y="1102" type="qcurve" smooth="yes"/>
      <point x="1040" y="1102"/>
      <point x="1119" y="1066"/>
      <point x="1145.5" y="1035.0" type="qcurve" smooth="yes" name="inserted"/>
      <point x="1172" y="1004"/>
      <point x="1202" y="924"/>
      <point x="1208.0" y="879.0" type="qcurve" smooth="yes" name="inserted"/>
      <point x="1214" y="834"/>
      <point x="1211" y="742"/>
      <point x="1204" y="700" type="qcurve" smooth="yes"/>
      <point x="1176" y="557" type="line"/>
      <point x="644" y="557" type="line"/>
      <point x="623" y="440" type="line" smooth="yes"/>
      <point x="617" y="404"/>
      <point x="611" y="317"/>
      <point x="614.5" y="272.0" type="qcurve" smooth="yes" name="inserted"/>
      <point x="618" y="227"/>
      <point x="641" y="143"/>
      <point x="663.0" y="110.0" type="qcurve" smooth="yes" name="inserted"/>
      <point x="685" y="77"/>
      <point x="753" y="36"/>
      <point x="803" y="35" type="qcurve" smooth="yes"/>
      <point x="840" y="34"/>
      <point x="909" y="52"/>
      <point x="941.0" y="67.5" type="qcurve" smooth="yes" name="inserted"/>
      <point x="973" y="83"/>
      <point x="1032" y="124"/>
      <point x="1061" y="145" type="qcurve"/>
      <point x="1083" y="101" type="line"/>
      <point x="1053" y="76"/>
      <point x="988" y="32"/>
      <point x="953.0" y="15.5" type="qcurve" smooth="yes" name="inserted"/>
      <point x="918" y="-1"/>
      <point x="844" y="-20"/>
      <point x="804" y="-20" type="qcurve" smooth="yes"/>
      <point x="745" y="-19"/>
      <point x="660" y="29"/>
      <point x="631.5" y="68.0" type="qcurve" smooth="yes" name="inserted"/>
      <point x="603" y="107"/>
      <point x="571" y="206"/>
      <point x="567" y="258" type="qcurve"/>
      <point x="543" y="205"/>
      <point x="478" y="106"/>
      <point x="436.5" y="67.0" type="qcurve" smooth="yes" name="inserted"/>
      <point x="395" y="28"/>
      <point x="291" y="-20"/>
      <point x="228" y="-20" type="qcurve" smooth="yes"/>
      <point x="166" y="-20"/>
      <point x="77" y="25"/>
      <point x="47.0" y="63.0" type="qcurve" smooth="yes" name="inserted"/>
      <point x="17" y="101"/>
      <point x="-16" y="199"/>
      <point x="-22.0" y="252.5" type="qcurve" smooth="yes" name="inserted"/>
      <point x="-28" y="306"/>
      <point x="-24" y="413"/>
      <point x="-17" y="460" type="qcurve" smooth="yes"/>
      <point x="11" y="622" type="line" smooth="yes"/>
      <point x="20" y="673"/>
      <point x="53" y="784"/>
      <point x="76.5" y="837.5" type="qcurve" smooth="yes" name="inserted"/>
      <point x="100" y="891"/>
      <point x="165" y="986"/>
      <point x="206.0" y="1022.5" type="qcurve" smooth="yes" name="inserted"/>
      <point x="247" y="1059"/>
      <point x="349" y="1102"/>
    </contour>
    <contour>
      <point x="37" y="460" type="line" smooth="yes"/>
      <point x="31" y="422"/>
      <point x="24" y="329"/>
      <point x="27.0" y="282.0" type="qcurve" smooth="yes" name="inserted"/>
      <point x="30" y="235"/>
      <point x="53" y="145"/>
      <point x="76.0" y="110.5" type="qcurve" smooth="yes" name="inserted"/>
      <point x="99" y="76"/>
      <point x="173" y="34"/>
      <point x="227" y="34" type="qcurve" smooth="yes"/>
      <point x="280" y="34"/>
      <point x="368" y="73"/>
      <point x="403.5" y="106.0" type="qcurve" smooth="yes" name="inserted"/>
      <point x="439" y="139"/>
      <point x="494" y="225"/>
      <point x="514.5" y="272.5" type="qcurve" smooth="yes" name="inserted"/>
      <point x="535" y="320"/>
      <point x="563" y="416"/>
      <point x="571" y="460" type="qcurve" smooth="yes"/>
      <point x="600" y="622" type="line" smooth="yes"/>
      <point x="606" y="660"/>
      <point x="613" y="753"/>
      <point x="609.5" y="800.0" type="qcurve" smooth="yes" name="inserted"/>
      <point x="606" y="847"/>
      <point x="584" y="936"/>
      <point x="561.0" y="971.0" type="qcurve" smooth="yes" name="inserted"/>
      <point x="538" y="1006"/>
      <point x="464" y="1048"/>
      <point x="411" y="1048" type="qcurve" smooth="yes"/>
      <point x="358" y="1048"/>
      <point x="271" y="1009"/>
      <point x="235.0" y="976.0" type="qcurve" smooth="yes" name="inserted"/>
      <point x="199" y="943"/>
      <point x="143" y="857"/>
      <point x="122.5" y="809.5" type="qcurve" smooth="yes" name="inserted"/>
      <point x="102" y="762"/>
      <point x="73" y="665"/>
      <point x="65" y="622" type="qcurve" smooth="yes"/>
    </contour>
    <contour>
      <point x="650" y="611" type="line"/>
      <point x="1137" y="611" type="line"/>
      <point x="1152" y="692" type="line" smooth="yes"/>
      <point x="1158" y="725"/>
      <point x="1164" y="803"/>
      <point x="1160.5" y="842.5" type="qcurve" smooth="yes" name="inserted"/>
      <point x="1157" y="882"/>
      <point x="1136" y="956"/>
      <point x="1115.5" y="984.5" type="qcurve" smooth="yes" name="inserted"/>
      <point x="1095" y="1013"/>
      <point x="1032" y="1048"/>
      <point x="987" y="1048" type="qcurve" smooth="yes"/>
      <point x="935" y="1048"/>
      <point x="850" y="1008"/>
      <point x="816.0" y="975.0" type="qcurve" smooth="yes" name="inserted"/>
      <point x="782" y="942"/>
      <point x="730" y="855"/>
      <point x="710.0" y="808.0" type="qcurve" smooth="yes" name="inserted"/>
      <point x="690" y="761"/>
      <point x="662" y="666"/>
      <point x="653" y="625" type="qcurve" smooth="yes"/>
    </contour>
  </outline>
</glyph>
<glyph name="Uogonek" format="2">
  <advance width="1202"/>
  <unicode hex="0172"/>
  <outline>
    <contour>
      <point x="1171" y="1456" type="line"/>
      <point x="1002" y="469" type="line" smooth="yes"/>
      <point x="983.421716737388" y="370.3921888369056"/>
      <point x="887.6093218576096" y="185.60932185760979"/>
      <point x="821" y="119" type="qcurve" smooth="yes"/>
      <point x="792" y="90"/>
      <point x="725" y="43"/>
      <point x="689" y="25" type="qcurve"/>
      <point x="657" y="3"/>
      <point x="584" y="-46"/>
      <point x="552" y="-75" type="qcurve" smooth="yes" name="inserted"/>
      <point x="519" y="-104"/>
      <point x="471" y="-172"/>
      <point x="465" y="-213" type="qcurve" smooth="yes"/>
      <point x="459" y="-255"/>
      <point x="502" y="-305"/>
      <point x="544" y="-307" type="qcurve" smooth="yes"/>
      <point x="577" y="-309"/>
      <point x="636" y="-285"/>
      <point x="665" y="-270" type="qcurve"/>
      <point x="675" y="-319" type="line"/>
      <point x="644" y="-337"/>
      <point x="579" y="-362"/>
      <point x="543" y="-362" type="qcurve" smooth="yes"/>
      <point x="510" y="-362"/>
      <point x="458" y="-339"/>
      <point x="441" y="-319" type="qcurve" smooth="yes" name="inserted"/>
      <point x="423" y="-300"/>
      <point x="407" y="-245"/>
      <point x="412" y="-213" type="qcurve" smooth="yes"/>
      <point x="416" y="-182"/>
      <point x="443" y="-127"/>
      <point x="463" y="-102" type="qcurve" smooth="yes" name="inserted"/>
      <point x="482" y="-78"/>
      <point x="529" y="-35"/>
      <point x="555" y="-16" type="qcurve"/>
      <point x="541" y="-18"/>
      <point x="510" y="-20"/>
      <point x="495" y="-20" type="qcurve" smooth="yes"/>
      <point x="394" y="-20"/>
      <point x="251" y="66"/>
      <point x="208" y="136" type="qcurve" smooth="yes" name="inserted"/>
      <point x="164" y="205"/>
      <point x="134" y="380"/>
      <point x="148" y="469" type="qcurve" smooth="yes"/>
      <point x="319" y="1456" type="line"/>
      <point x="370" y="1456" type="line"/>
      <point x="200" y="469" type="line" smooth="yes"/>
      <point x="188" y="392"/>
      <point x="210" y="236"/>
      <point x="246" y="174" type="qcurve" smooth="yes" name="inserted"/>
      <point x="282" y="112"/>
      <point x="406" y="34"/>
      <point x="495" y="34" type="qcurve" smooth="yes"/>
      <point x="584" y="34"/>
      <point x="736" y="109"/>
      <point x="795" y="170" type="qcurve" smooth="yes" name="inserted"/>
      <point x="853" y="231"/>
      <point x="931" y="388"/>
      <point x="947" y="469" type="qcurve" smooth="yes"/>
      <point x="1119" y="1456" type="line"/>
    </contour>
  </outline>
</glyph>
<glyph name="uogonek" format="2">
  <advance width="1202"/>
  <unicode hex="0173"/>
  <outline>
    <contour>
      <point x="882" y="0" type="line"/>
      <point x="886" y="-2" type="line"/>
      <point x="854" y="-24"/>
      <point x="778" y="-74"/>
      <point x="744" y="-103" type="qcurve" smooth="yes" name="inserted"/>
      <point x="710" y="-133"/>
      <point x="659" y="-204"/>
      <point x="653" y="-246" type="qcurve" smooth="yes"/>
      <point x="647" y="-288"/>
      <point x="690" y="-338"/>
      <point x="732" y="-340" type="qcurve" smooth="yes"/>
      <point x="765" y="-342"/>
      <point x="824" y="-318"/>
      <point x="853" y="-303" type="qcurve"/>
      <point x="863" y="-352" type="line"/>
      <point x="832" y="-370"/>
      <point x="767" y="-395"/>
      <point x="731" y="-395" type="qcurve" smooth="yes"/>
      <point x="698" y="-395"/>
      <point x="646" y="-372"/>
      <point x="629" y="-352" type="qcurve" smooth="yes" name="inserted"/>
      <point x="611" y="-333"/>
      <point x="595" y="-278"/>
      <point x="600" y="-246" type="qcurve" smooth="yes"/>
      <point x="606" y="-201"/>
      <point x="655" y="-126"/>
      <point x="689" y="-94" type="qcurve" smooth="yes" name="inserted"/>
      <point x="722" y="-63"/>
      <point x="799" y="-10"/>
      <point x="833" y="13" type="qcurve"/>
      <point x="869" y="193" type="line"/>
      <point x="843" y="156"/>
      <point x="781" y="93"/>
      <point x="746" y="68" type="qcurve" smooth="yes"/>
      <point x="686" y="25"/>
      <point x="542" y="-20"/>
      <point x="461" y="-20" type="qcurve" smooth="yes"/>
      <point x="371" y="-20"/>
      <point x="249" y="50"/>
      <point x="215" y="108" type="qcurve" smooth="yes" name="inserted"/>
      <point x="180" y="166"/>
      <point x="162" y="315"/>
      <point x="174" y="395" type="qcurve" smooth="yes"/>
      <point x="292" y="1082" type="line"/>
      <point x="346" y="1082" type="line"/>
      <point x="227" y="393" type="line" smooth="yes"/>
      <point x="216" y="327"/>
      <point x="227" y="198"/>
      <point x="254" y="148" type="qcurve" smooth="yes" name="inserted"/>
      <point x="281" y="97"/>
      <point x="381" y="35"/>
      <point x="459" y="34" type="qcurve" smooth="yes"/>
      <point x="528" y="34"/>
      <point x="664" y="75"/>
      <point x="723" y="114" type="qcurve" smooth="yes" name="inserted"/>
      <point x="781" y="153"/>
      <point x="869" y="264"/>
      <point x="889" y="333" type="qcurve"/>
      <point x="1017" y="1082" type="line"/>
      <point x="1073" y="1082" type="line"/>
      <point x="887" y="0" type="line"/>
    </contour>
  </outline>
</glyph>
<glyph name="longs" format="2">
  <advance width="1202"/>
  <unicode hex="017F"/>
  <outline>
    <contour>
      <point x="403" y="0" type="line"/>
      <point x="617" y="1236" type="line" smooth="yes"/>
      <point x="630" y="1307"/>
      <point x="697" y="1424"/>
      <point x="746.0" y="1466.0" type="qcurve" smooth="yes" name="inserted"/>
      <point x="795" y="1508"/>
      <point x="921" y="1556"/>
      <point x="994" y="1557" type="qcurve" smooth="yes"/>
      <point x="1032" y="1558"/>
      <point x="1105" y="1547"/>
      <point x="1141" y="1539" type="qcurve"/>
      <point x="1127" y="1489" type="line"/>
      <point x="1094" y="1496"/>
      <point x="1028" y="1504"/>
      <point x="994" y="1503" type="qcurve" smooth="yes"/>
      <point x="934" y="1502"/>
      <point x="829" y="1462"/>
      <point x="787.0" y="1427.0" type="qcurve" smooth="yes" name="inserted"/>
      <point x="745" y="1392"/>
      <point x="687" y="1295"/>
      <point x="674" y="1236" type="qcurve" smooth="yes"/>
      <point x="460" y="0" type="line"/>
    </contour>
  </outline>
</glyph>
<glyph name="florin" format="2">
  <advance width="1202"/>
  <unicode hex="0192"/>
  <outline>
    <contour>
      <point x="1046" y="1027" type="line"/>
      <point x="688" y="1027" type="line"/>
      <point x="512" y="-89" type="line" smooth="yes"/>
      <point x="499" y="-162"/>
      <point x="435" y="-289"/>
      <point x="385.5" y="-336.0" type="qcurve" smooth="yes" name="inserted"/>
      <point x="336" y="-383"/>
      <point x="207" y="-437"/>
      <point x="130" y="-437" type="qcurve" smooth="yes"/>
      <point x="96" y="-437"/>
      <point x="29" y="-425"/>
      <point x="-4" y="-416" type="qcurve"/>
      <point x="15" y="-366" type="line"/>
      <point x="44" y="-374"/>
      <point x="101" y="-383"/>
      <point x="131" y="-383" type="qcurve" smooth="yes"/>
      <point x="196" y="-382"/>
      <point x="305" y="-337"/>
      <point x="346.5" y="-297.5" type="qcurve" smooth="yes" name="inserted"/>
      <point x="388" y="-258"/>
      <point x="443" y="-151"/>
      <point x="455" y="-89" type="qcurve" smooth="yes"/>
      <point x="628" y="1027" type="line"/>
      <point x="395" y="1027" type="line"/>
      <point x="402" y="1082" type="line"/>
      <point x="639" y="1082" type="line"/>
      <point x="664" y="1236" type="line" smooth="yes"/>
      <point x="677" y="1310"/>
      <point x="748" y="1429"/>
      <point x="799.5" y="1470.0" type="qcurve" smooth="yes" name="inserted"/>
      <point x="851" y="1511"/>
      <point x="983" y="1556"/>
      <point x="1057" y="1557" type="qcurve" smooth="yes"/>
      <point x="1097" y="1557"/>
      <point x="1175" y="1548"/>
      <point x="1213" y="1540" type="qcurve"/>
      <point x="1198" y="1489" type="line"/>
      <point x="1163" y="1496"/>
      <point x="1093" y="1504"/>
      <point x="1058" y="1503" type="qcurve" smooth="yes"/>
      <point x="997" y="1502"/>
      <point x="885" y="1465"/>
      <point x="839.5" y="1430.5" type="qcurve" smooth="yes" name="inserted"/>
      <point x="794" y="1396"/>
      <point x="731" y="1298"/>
      <point x="719" y="1236" type="qcurve" smooth="yes"/>
      <point x="696" y="1082" type="line"/>
      <point x="1053" y="1082" type="line"/>
    </contour>
  </outline>
</glyph>
